<?xml version="1.0" encoding="UTF-8" standalone="no"?>
<!DOCTYPE svg PUBLIC "-//W3C//DTD SVG 1.1//EN"
 "http://www.w3.org/Graphics/SVG/1.1/DTD/svg11.dtd">
<!-- Generated by graphviz version 2.43.0 (0)
 -->
<!-- Title: ESP32CAM_TPL5110 Pages: 1 -->
<svg width="1350pt" height="1012pt"
 viewBox="0.00 0.00 1350.00 1012.20" xmlns="http://www.w3.org/2000/svg" xmlns:xlink="http://www.w3.org/1999/xlink">
<g id="graph0" class="graph" transform="scale(1 1) rotate(0) translate(57.6 954.6)">
<title>ESP32CAM_TPL5110</title>
<polygon fill="white" stroke="transparent" points="-57.6,57.6 -57.6,-954.6 1292.4,-954.6 1292.4,57.6 -57.6,57.6"/>
<text text-anchor="middle" x="617.4" y="-881.8" font-family="Arial" font-size="14.00">ESP32&#45;CAM Intervallfotografie — TPL5110 + Si2301 Power&#45;Gate</text>
<text text-anchor="middle" x="617.4" y="-866.8" font-family="Arial" font-size="14.00">3.6 V Li&#45;SOCl₂ (ER26500) · 15 min Intervall · DONE&#45;Abschaltung</text>
<g id="clust1" class="cluster">
<title>cluster_power</title>
<polygon fill="#fff8e1" stroke="#e65100" stroke-width="2" points="8,-699 8,-851 505.9,-851 505.9,-699 8,-699"/>
<text text-anchor="middle" x="256.95" y="-838.2" font-family="Arial" font-size="11.00">Stromquelle</text>
</g>
<g id="clust2" class="cluster">
<title>cluster_timer</title>
<polygon fill="#e8f5e9" stroke="#2e7d32" stroke-width="2" points="361.05,-525 361.05,-691 931.45,-691 931.45,-525 361.05,-525"/>
<text text-anchor="middle" x="646.25" y="-678.2" font-family="Arial" font-size="11.00">Timer&#45;Steuerung</text>
</g>
<g id="clust3" class="cluster">
<title>cluster_switch</title>
<polygon fill="#e3f2fd" stroke="#1565c0" stroke-width="2" points="796.09,-231 796.09,-484 1226.8,-484 1226.8,-231 796.09,-231"/>
<text text-anchor="middle" x="1011.45" y="-471.2" font-family="Arial" font-size="11.00">Schaltstufe</text>
</g>
<g id="clust4" class="cluster">
<title>cluster_mcu</title>
<polygon fill="#f3e5f5" stroke="#6a1b9a" stroke-width="2" points="779.09,-8 779.09,-202 1226.8,-202 1226.8,-8 779.09,-8"/>
<text text-anchor="middle" x="1002.95" y="-189.2" font-family="Arial" font-size="11.00">Recheneinheit &amp; Kamera</text>
</g>
<!-- gnd_bat -->
<g id="node1" class="node">
<title>gnd_bat</title>
<polygon fill="#444444" stroke="black" points="462.55,-743.57 497.76,-775.71 427.33,-775.71 462.55,-743.57"/>
<text text-anchor="middle" x="462.55" y="-763.1" font-family="Arial" font-size="8.00" fill="white">GND</text>
</g>
<!-- gnd_timer -->
<g id="node2" class="node">
<title>gnd_timer</title>
<polygon fill="#444444" stroke="black" points="888.09,-589.57 923.3,-621.71 852.88,-621.71 888.09,-589.57"/>
<text text-anchor="middle" x="888.09" y="-609.1" font-family="Arial" font-size="8.00" fill="white">GND</text>
</g>
<!-- gnd_switch -->
<g id="node3" class="node">
<title>gnd_switch</title>
<polygon fill="#444444" stroke="black" points="1183.45,-250.57 1218.66,-282.71 1148.24,-282.71 1183.45,-250.57"/>
<text text-anchor="middle" x="1183.45" y="-270.1" font-family="Arial" font-size="8.00" fill="white">GND</text>
</g>
<!-- gnd_mcu -->
<g id="node4" class="node">
<title>gnd_mcu</title>
<polygon fill="#444444" stroke="black" points="1183.45,-73.57 1218.66,-105.71 1148.24,-105.71 1183.45,-73.57"/>
<text text-anchor="middle" x="1183.45" y="-93.1" font-family="Arial" font-size="8.00" fill="white">GND</text>
</g>
<!-- VCC_SW -->
<g id="node5" class="node">
<title>VCC_SW</title>
<polygon fill="#fff3cd" stroke="#cc7700" stroke-width="2.8" points="462.55,-277 368.95,-241 462.55,-205 556.14,-241 462.55,-277"/>
<text text-anchor="middle" x="462.55" y="-244" font-family="Arial" font-size="10.00">VCC_SWITCHED</text>
<text text-anchor="middle" x="462.55" y="-233" font-family="Arial" font-size="10.00">(3.6 V geschaltet)</text>
</g>
<!-- C1 -->
<g id="node9" class="node">
<title>C1</title>
<path fill="#e3f2fd" stroke="#1565c0" stroke-width="1.5" d="M960.09,-304.5C960.09,-304.5 816.09,-304.5 816.09,-304.5 810.09,-304.5 804.09,-298.5 804.09,-292.5 804.09,-292.5 804.09,-251.5 804.09,-251.5 804.09,-245.5 810.09,-239.5 816.09,-239.5 816.09,-239.5 960.09,-239.5 960.09,-239.5 966.09,-239.5 972.09,-245.5 972.09,-251.5 972.09,-251.5 972.09,-292.5 972.09,-292.5 972.09,-298.5 966.09,-304.5 960.09,-304.5"/>
<text text-anchor="middle" x="888.09" y="-280.5" font-family="Arial" font-size="10.00">C1: 470 µF / 6.3 V</text>
<text text-anchor="middle" x="888.09" y="-269.5" font-family="Arial" font-size="10.00">Low&#45;ESR Elektrolytkondensator</text>
<text text-anchor="middle" x="888.09" y="-258.5" font-family="Arial" font-size="10.00">(Glättung nach MOSFET)</text>
</g>
<!-- VCC_SW&#45;&gt;C1 -->
<g id="edge9" class="edge">
<title>VCC_SW&#45;&gt;C1</title>
<path fill="none" stroke="#cc7700" stroke-width="2.5" d="M541.72,-246.72C612.98,-251.94 718.35,-259.65 793.94,-265.18"/>
<polygon fill="#cc7700" stroke="#cc7700" stroke-width="2.5" points="793.71,-268.67 803.94,-265.91 794.22,-261.69 793.71,-268.67"/>
<text text-anchor="middle" x="782.99" y="-252.01" font-family="Arial" font-size="9.00" fill="#cc7700">+</text>
</g>
<!-- M1 -->
<g id="node10" class="node">
<title>M1</title>
<path fill="#f3e5f5" stroke="#6a1b9a" stroke-width="2" d="M977.09,-174C977.09,-174 799.09,-174 799.09,-174 793.09,-174 787.09,-168 787.09,-162 787.09,-162 787.09,-28 787.09,-28 787.09,-22 793.09,-16 799.09,-16 799.09,-16 977.09,-16 977.09,-16 983.09,-16 989.09,-22 989.09,-28 989.09,-28 989.09,-162 989.09,-162 989.09,-168 983.09,-174 977.09,-174"/>
<text text-anchor="middle" x="888.09" y="-126" font-family="Arial" font-size="10.00">M1: ESP32&#45;CAM</text>
<text text-anchor="middle" x="888.09" y="-115" font-family="Arial" font-size="10.00">+ OV2640 Kamera&#45;Modul</text>
<text text-anchor="middle" x="888.09" y="-104" font-family="Arial" font-size="10.00">8 MB PSRAM · 4 MB Flash</text>
<text text-anchor="middle" x="888.09" y="-93" font-family="Arial" font-size="10.00">Blitz&#45;LED intern (GPIO 4)</text>
<text text-anchor="middle" x="888.09" y="-82" font-family="Arial" font-size="10.00">WLAN&#45;Upload per SCP</text>
<text text-anchor="middle" x="888.09" y="-59" font-family="Arial" font-size="10.00">3.3V | GND | GPIO 2 → DONE</text>
</g>
<!-- VCC_SW&#45;&gt;M1 -->
<g id="edge10" class="edge">
<title>VCC_SW&#45;&gt;M1</title>
<path fill="none" stroke="#cc7700" stroke-width="2.8" d="M512.55,-224.11C576.88,-201.93 691.67,-162.36 777.27,-132.86"/>
<polygon fill="#cc7700" stroke="#cc7700" stroke-width="2.8" points="778.46,-136.15 786.77,-129.58 776.18,-129.53 778.46,-136.15"/>
<text text-anchor="middle" x="762.9" y="-129.88" font-family="Arial" font-size="9.00" fill="#cc7700">3.3V</text>
<text text-anchor="middle" x="762.9" y="-119.88" font-family="Arial" font-size="9.00" fill="#cc7700">(!= 5V&#45;Pin)</text>
</g>
<!-- BAT1 -->
<g id="node6" class="node">
<title>BAT1</title>
<path fill="#fff8e1" stroke="#e65100" stroke-width="2.5" d="M135,-812.05C135,-817.81 108.33,-822.5 75.5,-822.5 42.67,-822.5 16,-817.81 16,-812.05 16,-812.05 16,-717.95 16,-717.95 16,-712.19 42.67,-707.5 75.5,-707.5 108.33,-707.5 135,-712.19 135,-717.95 135,-717.95 135,-812.05 135,-812.05"/>
<path fill="none" stroke="#e65100" stroke-width="2.5" d="M135,-812.05C135,-806.28 108.33,-801.59 75.5,-801.59 42.67,-801.59 16,-806.28 16,-812.05"/>
<text text-anchor="middle" x="75.5" y="-773.5" font-family="Arial" font-size="10.00">BAT1: ER26500</text>
<text text-anchor="middle" x="75.5" y="-762.5" font-family="Arial" font-size="10.00">Li&#45;SOCl₂ Primärzelle</text>
<text text-anchor="middle" x="75.5" y="-751.5" font-family="Arial" font-size="10.00">3.6 V &#160;/ &#160;8500 mAh</text>
</g>
<!-- BAT1&#45;&gt;gnd_bat -->
<g id="edge1" class="edge">
<title>BAT1&#45;&gt;gnd_bat</title>
<path fill="none" stroke="#444444" stroke-width="2" d="M135.4,-765C217.62,-765 363.99,-765 428.95,-765"/>
<polygon fill="#444444" stroke="#444444" stroke-width="2" points="429.01,-768.5 439.01,-765 429.01,-761.5 429.01,-768.5"/>
<text text-anchor="middle" x="157.15" y="-772.94" font-family="Arial" font-size="9.00" fill="#444444">&#45;</text>
</g>
<!-- U1 -->
<g id="node7" class="node">
<title>U1</title>
<path fill="#e8f5e9" stroke="#2e7d32" stroke-width="2" d="M544.05,-663C544.05,-663 381.05,-663 381.05,-663 375.05,-663 369.05,-657 369.05,-651 369.05,-651 369.05,-545 369.05,-545 369.05,-539 375.05,-533 381.05,-533 381.05,-533 544.05,-533 544.05,-533 550.05,-533 556.05,-539 556.05,-545 556.05,-545 556.05,-651 556.05,-651 556.05,-657 550.05,-663 544.05,-663"/>
<text text-anchor="middle" x="462.55" y="-623.5" font-family="Arial" font-size="10.00">U1: TPL5110</text>
<text text-anchor="middle" x="462.55" y="-612.5" font-family="Arial" font-size="10.00">Power&#45;Timer&#45;Breakout</text>
<text text-anchor="middle" x="462.55" y="-601.5" font-family="Arial" font-size="10.00">(SOT&#45;23&#45;6 / 5&#45;Pin&#45;Block)</text>
<text text-anchor="middle" x="462.55" y="-578.5" font-family="Arial" font-size="10.00">VDD | GND | DRV | DONE</text>
<text text-anchor="middle" x="462.55" y="-567.5" font-family="Arial" font-size="10.00">Intervall 15 min (intern)</text>
</g>
<!-- BAT1&#45;&gt;U1 -->
<g id="edge5" class="edge">
<title>BAT1&#45;&gt;U1</title>
<path fill="none" stroke="#e65100" stroke-width="2.8" d="M135.4,-739.45C194.88,-713.66 287.93,-673.3 359.44,-642.28"/>
<polygon fill="#e65100" stroke="#e65100" stroke-width="2.8" points="361.16,-645.35 368.94,-638.16 358.37,-638.93 361.16,-645.35"/>
<text text-anchor="middle" x="252" y="-703.8" font-family="Arial" font-size="9.00">VCC_BATT (3.6 V)</text>
<text text-anchor="middle" x="344.95" y="-635.31" font-family="Arial" font-size="9.00" fill="#e65100">VDD</text>
<text text-anchor="middle" x="159.39" y="-737.9" font-family="Arial" font-size="9.00" fill="#e65100">+</text>
</g>
<!-- Q1 -->
<g id="node8" class="node">
<title>Q1</title>
<path fill="#e3f2fd" stroke="#1565c0" stroke-width="2" d="M950.59,-456C950.59,-456 825.59,-456 825.59,-456 819.59,-456 813.59,-450 813.59,-444 813.59,-444 813.59,-382 813.59,-382 813.59,-376 819.59,-370 825.59,-370 825.59,-370 950.59,-370 950.59,-370 956.59,-370 962.59,-376 962.59,-382 962.59,-382 962.59,-444 962.59,-444 962.59,-450 956.59,-456 950.59,-456"/>
<text text-anchor="middle" x="888.09" y="-421.5" font-family="Arial" font-size="10.00">Q1: Si2301</text>
<text text-anchor="middle" x="888.09" y="-410.5" font-family="Arial" font-size="10.00">P&#45;Kanal MOSFET (SOT&#45;23)</text>
<text text-anchor="middle" x="888.09" y="-399.5" font-family="Arial" font-size="10.00">Source | Gate | Drain</text>
</g>
<!-- BAT1&#45;&gt;Q1 -->
<g id="edge6" class="edge">
<title>BAT1&#45;&gt;Q1</title>
<path fill="none" stroke="#e65100" stroke-width="2.8" d="M123.45,-710.13C175.84,-652.19 265.85,-562.04 361.05,-509 502.07,-430.43 694.22,-414.3 802.98,-412.04"/>
<polygon fill="#e65100" stroke="#e65100" stroke-width="2.8" points="803.3,-415.54 813.24,-411.87 803.18,-408.54 803.3,-415.54"/>
<text text-anchor="middle" x="791.32" y="-399.9" font-family="Arial" font-size="9.00" fill="#e65100">Source</text>
<text text-anchor="middle" x="145.64" y="-698.79" font-family="Arial" font-size="9.00" fill="#e65100">+</text>
</g>
<!-- U1&#45;&gt;gnd_timer -->
<g id="edge2" class="edge">
<title>U1&#45;&gt;gnd_timer</title>
<path fill="none" stroke="#444444" stroke-width="1.8" d="M556.12,-602.77C581.7,-603.97 609.47,-605.15 635.09,-606 713.97,-608.62 806.79,-610.03 854.75,-610.63"/>
<polygon fill="#444444" stroke="#444444" stroke-width="1.8" points="854.8,-614.14 864.84,-610.76 854.88,-607.14 854.8,-614.14"/>
<text text-anchor="middle" x="577.38" y="-611.71" font-family="Arial" font-size="9.00" fill="#444444">GND</text>
</g>
<!-- U1&#45;&gt;Q1 -->
<g id="edge7" class="edge">
<title>U1&#45;&gt;Q1</title>
<path fill="none" stroke="#1565c0" stroke-width="2.2" d="M556.07,-571.74C602.53,-557.37 659.19,-538 708.09,-516 742.91,-500.33 779.73,-479.88 810.87,-461.33"/>
<polygon fill="#1565c0" stroke="#1565c0" stroke-width="2.2" points="812.72,-464.3 819.5,-456.15 809.12,-458.3 812.72,-464.3"/>
<text text-anchor="middle" x="671.59" y="-557.8" font-family="Arial" font-size="9.00">TPL_DRV</text>
<text text-anchor="middle" x="671.59" y="-547.8" font-family="Arial" font-size="9.00">(Steuersignal)</text>
<text text-anchor="middle" x="795.63" y="-456.45" font-family="Arial" font-size="9.00" fill="#1565c0">Gate</text>
<text text-anchor="middle" x="579.86" y="-572.71" font-family="Arial" font-size="9.00" fill="#1565c0">DRV</text>
</g>
<!-- Q1&#45;&gt;VCC_SW -->
<g id="edge8" class="edge">
<title>Q1&#45;&gt;VCC_SW</title>
<path fill="none" stroke="#cc7700" stroke-width="2.8" d="M813.44,-383.09C729.27,-348.91 593.46,-293.76 518.19,-263.19"/>
<polygon fill="#cc7700" stroke="#cc7700" stroke-width="2.8" points="519.46,-259.93 508.87,-259.41 516.82,-266.41 519.46,-259.93"/>
<text text-anchor="middle" x="671.59" y="-339.8" font-family="Arial" font-size="9.00">VCC_SWITCHED</text>
<text text-anchor="middle" x="797.11" y="-363.31" font-family="Arial" font-size="9.00" fill="#cc7700">Drain</text>
</g>
<!-- C1&#45;&gt;gnd_switch -->
<g id="edge3" class="edge">
<title>C1&#45;&gt;gnd_switch</title>
<path fill="none" stroke="#444444" stroke-width="1.5" d="M972.37,-272C1031.4,-272 1107.39,-272 1149.91,-272"/>
<polygon fill="#444444" stroke="#444444" stroke-width="1.5" points="1149.97,-275.5 1159.97,-272 1149.97,-268.5 1149.97,-275.5"/>
<text text-anchor="middle" x="994.12" y="-279.94" font-family="Arial" font-size="9.00" fill="#444444">&#45;</text>
</g>
<!-- M1&#45;&gt;gnd_mcu -->
<g id="edge4" class="edge">
<title>M1&#45;&gt;gnd_mcu</title>
<path fill="none" stroke="#444444" stroke-width="1.8" d="M989.23,-95C1045.06,-95 1110.93,-95 1149.55,-95"/>
<polygon fill="#444444" stroke="#444444" stroke-width="1.8" points="1149.69,-98.5 1159.69,-95 1149.69,-91.5 1149.69,-98.5"/>
<text text-anchor="middle" x="1010.98" y="-102.94" font-family="Arial" font-size="9.00" fill="#444444">GND</text>
</g>
<!-- M1&#45;&gt;U1 -->
<g id="edge11" class="edge">
<title>M1&#45;&gt;U1</title>
<path fill="none" stroke="#4527a0" stroke-width="2" stroke-dasharray="5,2" d="M810.28,-174.07C799.17,-187.24 788.37,-201.14 779.09,-215 738.5,-275.62 750.86,-303.89 708.09,-363 663.94,-424.03 602.84,-482.75 552.77,-526.23"/>
<polygon fill="#4527a0" stroke="#4527a0" stroke-width="2" points="550.43,-523.62 545.14,-532.8 555,-528.92 550.43,-523.62"/>
<text text-anchor="middle" x="671.59" y="-459.8" font-family="Arial" font-size="9.00">MCU_DONE</text>
<text text-anchor="middle" x="671.59" y="-449.8" font-family="Arial" font-size="9.00">(Abschaltsignal)</text>
<text text-anchor="middle" x="568.24" y="-524.08" font-family="Arial" font-size="9.00" fill="#4527a0">DONE</text>
<text text-anchor="middle" x="788.55" y="-182.05" font-family="Arial" font-size="9.00" fill="#4527a0">GPIO 2</text>
</g>
</g>
</svg>
