<?xml version="1.0" encoding="UTF-8" standalone="no"?>
<!DOCTYPE svg PUBLIC "-//W3C//DTD SVG 1.1//EN"
 "http://www.w3.org/Graphics/SVG/1.1/DTD/svg11.dtd">
<!-- Generated by graphviz version 2.43.0 (0)
 -->
<!-- Title: ESP32CAM_TPL5110 Pages: 1 -->
<svg width="1336pt" height="1064pt"
 viewBox="0.00 0.00 1335.91 1064.20" xmlns="http://www.w3.org/2000/svg" xmlns:xlink="http://www.w3.org/1999/xlink">
<g id="graph0" class="graph" transform="scale(1 1) rotate(0) translate(57.6 1006.6)">
<title>ESP32CAM_TPL5110</title>
<polygon fill="white" stroke="transparent" points="-57.6,57.6 -57.6,-1006.6 1278.31,-1006.6 1278.31,57.6 -57.6,57.6"/>
<text text-anchor="middle" x="610.36" y="-933.8" font-family="Arial" font-size="14.00">ESP32&#45;CAM Intervallfotografie — TPL5110 + Si2301 Power&#45;Gate</text>
<text text-anchor="middle" x="610.36" y="-918.8" font-family="Arial" font-size="14.00">3.6 V Li&#45;SOCl₂ (ER26500) · 15 min Intervall · DONE&#45;Abschaltung</text>
<g id="clust1" class="cluster">
<title>cluster_power</title>
<polygon fill="#fff8e1" stroke="#e65100" stroke-width="2" points="8,-751 8,-903 506.36,-903 506.36,-751 8,-751"/>
<text text-anchor="middle" x="257.18" y="-890.2" font-family="Arial" font-size="11.00">Stromquelle</text>
</g>
<g id="clust2" class="cluster">
<title>cluster_timer</title>
<polygon fill="#e8f5e9" stroke="#2e7d32" stroke-width="2" points="361,-574 361,-743 1212.71,-743 1212.71,-574 361,-574"/>
<text text-anchor="middle" x="786.86" y="-730.2" font-family="Arial" font-size="11.00">Timer&#45;Steuerung</text>
</g>
<g id="clust3" class="cluster">
<title>cluster_switch</title>
<polygon fill="#e3f2fd" stroke="#1565c0" stroke-width="2" points="789.5,-203 789.5,-456 1212.71,-456 1212.71,-203 789.5,-203"/>
<text text-anchor="middle" x="1001.11" y="-443.2" font-family="Arial" font-size="11.00">Schaltstufe</text>
</g>
<g id="clust4" class="cluster">
<title>cluster_mcu</title>
<polygon fill="#f3e5f5" stroke="#6a1b9a" stroke-width="2" points="780,-8 780,-174 1212.71,-174 1212.71,-8 780,-8"/>
<text text-anchor="middle" x="996.36" y="-161.2" font-family="Arial" font-size="11.00">Recheneinheit &amp; Kamera</text>
</g>
<!-- gnd_bat -->
<g id="node1" class="node">
<title>gnd_bat</title>
<polygon fill="#444444" stroke="black" points="463,-795.57 498.21,-827.71 427.79,-827.71 463,-795.57"/>
<text text-anchor="middle" x="463" y="-815.1" font-family="Arial" font-size="8.00" fill="white">GND</text>
</g>
<!-- gnd_timer -->
<g id="node2" class="node">
<title>gnd_timer</title>
<polygon fill="#444444" stroke="black" points="1169.36,-620.57 1204.57,-652.71 1134.14,-652.71 1169.36,-620.57"/>
<text text-anchor="middle" x="1169.36" y="-640.1" font-family="Arial" font-size="8.00" fill="white">GND</text>
</g>
<!-- gnd_switch -->
<g id="node3" class="node">
<title>gnd_switch</title>
<polygon fill="#444444" stroke="black" points="1169.36,-222.57 1204.57,-254.71 1134.14,-254.71 1169.36,-222.57"/>
<text text-anchor="middle" x="1169.36" y="-242.1" font-family="Arial" font-size="8.00" fill="white">GND</text>
</g>
<!-- gnd_mcu -->
<g id="node4" class="node">
<title>gnd_mcu</title>
<polygon fill="#444444" stroke="black" points="1169.36,-59.57 1204.57,-91.71 1134.14,-91.71 1169.36,-59.57"/>
<text text-anchor="middle" x="1169.36" y="-79.1" font-family="Arial" font-size="8.00" fill="white">GND</text>
</g>
<!-- VCC_SW -->
<g id="node5" class="node">
<title>VCC_SW</title>
<polygon fill="#fff3cd" stroke="#cc7700" stroke-width="2.8" points="463,-249 369.41,-213 463,-177 556.59,-213 463,-249"/>
<text text-anchor="middle" x="463" y="-216" font-family="Arial" font-size="10.00">VCC_SWITCHED</text>
<text text-anchor="middle" x="463" y="-205" font-family="Arial" font-size="10.00">(3.6 V geschaltet)</text>
</g>
<!-- C1 -->
<g id="node10" class="node">
<title>C1</title>
<path fill="#e3f2fd" stroke="#1565c0" stroke-width="1.5" d="M953.5,-276.5C953.5,-276.5 809.5,-276.5 809.5,-276.5 803.5,-276.5 797.5,-270.5 797.5,-264.5 797.5,-264.5 797.5,-223.5 797.5,-223.5 797.5,-217.5 803.5,-211.5 809.5,-211.5 809.5,-211.5 953.5,-211.5 953.5,-211.5 959.5,-211.5 965.5,-217.5 965.5,-223.5 965.5,-223.5 965.5,-264.5 965.5,-264.5 965.5,-270.5 959.5,-276.5 953.5,-276.5"/>
<text text-anchor="middle" x="881.5" y="-252.5" font-family="Arial" font-size="10.00">C1: 470 µF / 6.3 V</text>
<text text-anchor="middle" x="881.5" y="-241.5" font-family="Arial" font-size="10.00">Low&#45;ESR Elektrolytkondensator</text>
<text text-anchor="middle" x="881.5" y="-230.5" font-family="Arial" font-size="10.00">(Glättung nach MOSFET)</text>
</g>
<!-- VCC_SW&#45;&gt;C1 -->
<g id="edge11" class="edge">
<title>VCC_SW&#45;&gt;C1</title>
<path fill="none" stroke="#cc7700" stroke-width="2.5" d="M541.85,-218.79C611.34,-223.97 713.23,-231.55 787.09,-237.05"/>
<polygon fill="#cc7700" stroke="#cc7700" stroke-width="2.5" points="787.09,-240.56 797.32,-237.81 787.61,-233.58 787.09,-240.56"/>
<text text-anchor="middle" x="776.38" y="-223.88" font-family="Arial" font-size="9.00" fill="#cc7700">+</text>
</g>
<!-- M1 -->
<g id="node11" class="node">
<title>M1</title>
<path fill="#f3e5f5" stroke="#6a1b9a" stroke-width="2" d="M963,-146C963,-146 800,-146 800,-146 794,-146 788,-140 788,-134 788,-134 788,-28 788,-28 788,-22 794,-16 800,-16 800,-16 963,-16 963,-16 969,-16 975,-22 975,-28 975,-28 975,-134 975,-134 975,-140 969,-146 963,-146"/>
<text text-anchor="middle" x="881.5" y="-101" font-family="Arial" font-size="10.00">M1: ESP32&#45;CAM</text>
<text text-anchor="middle" x="881.5" y="-90" font-family="Arial" font-size="10.00">+ OV2640 Kamera&#45;Modul</text>
<text text-anchor="middle" x="881.5" y="-79" font-family="Arial" font-size="10.00">Blitz&#45;LED intern (GPIO 4)</text>
<text text-anchor="middle" x="881.5" y="-56" font-family="Arial" font-size="10.00">3.3V | GND | GPIO 2 → DONE</text>
</g>
<!-- VCC_SW&#45;&gt;M1 -->
<g id="edge12" class="edge">
<title>VCC_SW&#45;&gt;M1</title>
<path fill="none" stroke="#cc7700" stroke-width="2.8" d="M515.07,-196.81C580.26,-176.15 694.59,-139.92 778.04,-113.47"/>
<polygon fill="#cc7700" stroke="#cc7700" stroke-width="2.8" points="779.33,-116.73 787.81,-110.38 777.22,-110.06 779.33,-116.73"/>
<text text-anchor="middle" x="764.01" y="-110.08" font-family="Arial" font-size="9.00" fill="#cc7700">3.3V</text>
<text text-anchor="middle" x="764.01" y="-100.08" font-family="Arial" font-size="9.00" fill="#cc7700">(!= 5V&#45;Pin)</text>
</g>
<!-- BAT1 -->
<g id="node6" class="node">
<title>BAT1</title>
<path fill="#fff8e1" stroke="#e65100" stroke-width="2.5" d="M135,-864.05C135,-869.81 108.33,-874.5 75.5,-874.5 42.67,-874.5 16,-869.81 16,-864.05 16,-864.05 16,-769.95 16,-769.95 16,-764.19 42.67,-759.5 75.5,-759.5 108.33,-759.5 135,-764.19 135,-769.95 135,-769.95 135,-864.05 135,-864.05"/>
<path fill="none" stroke="#e65100" stroke-width="2.5" d="M135,-864.05C135,-858.28 108.33,-853.59 75.5,-853.59 42.67,-853.59 16,-858.28 16,-864.05"/>
<text text-anchor="middle" x="75.5" y="-825.5" font-family="Arial" font-size="10.00">BAT1: ER26500</text>
<text text-anchor="middle" x="75.5" y="-814.5" font-family="Arial" font-size="10.00">Li&#45;SOCl₂ Primärzelle</text>
<text text-anchor="middle" x="75.5" y="-803.5" font-family="Arial" font-size="10.00">3.6 V &#160;/ &#160;8500 mAh</text>
</g>
<!-- BAT1&#45;&gt;gnd_bat -->
<g id="edge1" class="edge">
<title>BAT1&#45;&gt;gnd_bat</title>
<path fill="none" stroke="#444444" stroke-width="2" d="M135.05,-817C217.25,-817 364.1,-817 429.29,-817"/>
<polygon fill="#444444" stroke="#444444" stroke-width="2" points="429.39,-820.5 439.39,-817 429.39,-813.5 429.39,-820.5"/>
<text text-anchor="middle" x="156.8" y="-824.94" font-family="Arial" font-size="9.00" fill="#444444">&#45;</text>
</g>
<!-- U1 -->
<g id="node7" class="node">
<title>U1</title>
<path fill="#e8f5e9" stroke="#2e7d32" stroke-width="2" d="M545,-699C545,-699 381,-699 381,-699 375,-699 369,-693 369,-687 369,-687 369,-603 369,-603 369,-597 375,-591 381,-591 381,-591 545,-591 545,-591 551,-591 557,-597 557,-603 557,-603 557,-687 557,-687 557,-693 551,-699 545,-699"/>
<text text-anchor="middle" x="463" y="-659.5" font-family="Arial" font-size="10.00">U1: TPL5110</text>
<text text-anchor="middle" x="463" y="-648.5" font-family="Arial" font-size="10.00">Power&#45;Timer (SOT&#45;23&#45;6)</text>
<text text-anchor="middle" x="463" y="-625.5" font-family="Arial" font-size="10.00">VDD | GND | DRV | DONE | DELAY</text>
</g>
<!-- BAT1&#45;&gt;U1 -->
<g id="edge6" class="edge">
<title>BAT1&#45;&gt;U1</title>
<path fill="none" stroke="#e65100" stroke-width="2.8" d="M135.05,-790.88C194.41,-764.39 287.5,-722.86 359.18,-690.87"/>
<polygon fill="#e65100" stroke="#e65100" stroke-width="2.8" points="361,-693.9 368.71,-686.63 358.15,-687.5 361,-693.9"/>
<text text-anchor="middle" x="252" y="-753.8" font-family="Arial" font-size="9.00">VCC_BATT (3.6 V)</text>
<text text-anchor="middle" x="344.71" y="-684.03" font-family="Arial" font-size="9.00" fill="#e65100">VDD</text>
<text text-anchor="middle" x="159.05" y="-789.08" font-family="Arial" font-size="9.00" fill="#e65100">+</text>
</g>
<!-- Q1 -->
<g id="node9" class="node">
<title>Q1</title>
<path fill="#e3f2fd" stroke="#1565c0" stroke-width="2" d="M944,-428C944,-428 819,-428 819,-428 813,-428 807,-422 807,-416 807,-416 807,-354 807,-354 807,-348 813,-342 819,-342 819,-342 944,-342 944,-342 950,-342 956,-348 956,-354 956,-354 956,-416 956,-416 956,-422 950,-428 944,-428"/>
<text text-anchor="middle" x="881.5" y="-393.5" font-family="Arial" font-size="10.00">Q1: Si2301</text>
<text text-anchor="middle" x="881.5" y="-382.5" font-family="Arial" font-size="10.00">P&#45;Kanal MOSFET (SOT&#45;23)</text>
<text text-anchor="middle" x="881.5" y="-371.5" font-family="Arial" font-size="10.00">Source | Gate | Drain</text>
</g>
<!-- BAT1&#45;&gt;Q1 -->
<g id="edge7" class="edge">
<title>BAT1&#45;&gt;Q1</title>
<path fill="none" stroke="#e65100" stroke-width="2.8" d="M124.27,-762.27C213.18,-665.33 415.18,-467.39 636,-401 687.91,-385.39 748.73,-381.36 796.72,-381.24"/>
<polygon fill="#e65100" stroke="#e65100" stroke-width="2.8" points="796.75,-384.74 806.76,-381.28 796.77,-377.74 796.75,-384.74"/>
<text text-anchor="middle" x="785.04" y="-368.86" font-family="Arial" font-size="9.00" fill="#e65100">Source</text>
<text text-anchor="middle" x="146.56" y="-751.17" font-family="Arial" font-size="9.00" fill="#e65100">+</text>
</g>
<!-- U1&#45;&gt;gnd_timer -->
<g id="edge2" class="edge">
<title>U1&#45;&gt;gnd_timer</title>
<path fill="none" stroke="#444444" stroke-width="1.8" d="M557.28,-633.23C659.74,-621.85 829.15,-607.61 975,-617 1033.41,-620.76 1101.14,-630.85 1138.94,-637"/>
<polygon fill="#444444" stroke="#444444" stroke-width="1.8" points="1138.79,-640.52 1149.22,-638.7 1139.93,-633.61 1138.79,-640.52"/>
<text text-anchor="middle" x="579.98" y="-638.81" font-family="Arial" font-size="9.00" fill="#444444">GND</text>
</g>
<!-- R1 -->
<g id="node8" class="node">
<title>R1</title>
<path fill="#e8f5e9" stroke="#2e7d32" stroke-width="1.5" d="M930.5,-714.5C930.5,-714.5 832.5,-714.5 832.5,-714.5 826.5,-714.5 820.5,-708.5 820.5,-702.5 820.5,-702.5 820.5,-661.5 820.5,-661.5 820.5,-655.5 826.5,-649.5 832.5,-649.5 832.5,-649.5 930.5,-649.5 930.5,-649.5 936.5,-649.5 942.5,-655.5 942.5,-661.5 942.5,-661.5 942.5,-702.5 942.5,-702.5 942.5,-708.5 936.5,-714.5 930.5,-714.5"/>
<text text-anchor="middle" x="881.5" y="-690.5" font-family="Arial" font-size="10.00">R1: 100 kΩ</text>
<text text-anchor="middle" x="881.5" y="-679.5" font-family="Arial" font-size="10.00">(Intervall&#45;Widerstand)</text>
<text text-anchor="middle" x="881.5" y="-668.5" font-family="Arial" font-size="10.00">→ 15 min Periode</text>
</g>
<!-- U1&#45;&gt;R1 -->
<g id="edge9" class="edge">
<title>U1&#45;&gt;R1</title>
<path fill="none" stroke="#2e7d32" stroke-width="1.8" d="M557.21,-653.28C633.89,-660.09 740.9,-669.6 810.43,-675.78"/>
<polygon fill="#2e7d32" stroke="#2e7d32" stroke-width="1.8" points="810.14,-679.26 820.41,-676.66 810.76,-672.29 810.14,-679.26"/>
<text text-anchor="middle" x="672.5" y="-667.8" font-family="Arial" font-size="9.00">TPL_DELAY</text>
<text text-anchor="middle" x="799.65" y="-662.43" font-family="Arial" font-size="9.00" fill="#2e7d32">Pin 1</text>
<text text-anchor="middle" x="577.98" y="-663.11" font-family="Arial" font-size="9.00" fill="#2e7d32">DELAY</text>
</g>
<!-- U1&#45;&gt;Q1 -->
<g id="edge8" class="edge">
<title>U1&#45;&gt;Q1</title>
<path fill="none" stroke="#1565c0" stroke-width="2.2" d="M550.55,-590.97C624.99,-544.5 731.38,-478.09 803.04,-433.35"/>
<polygon fill="#1565c0" stroke="#1565c0" stroke-width="2.2" points="804.98,-436.27 811.61,-428.01 801.27,-430.33 804.98,-436.27"/>
<text text-anchor="middle" x="672.5" y="-542.8" font-family="Arial" font-size="9.00">TPL_DRV</text>
<text text-anchor="middle" x="672.5" y="-532.8" font-family="Arial" font-size="9.00">(Steuersignal)</text>
<text text-anchor="middle" x="787.79" y="-428.72" font-family="Arial" font-size="9.00" fill="#1565c0">Gate</text>
<text text-anchor="middle" x="574.37" y="-585.86" font-family="Arial" font-size="9.00" fill="#1565c0">DRV</text>
</g>
<!-- R1&#45;&gt;gnd_timer -->
<g id="edge3" class="edge">
<title>R1&#45;&gt;gnd_timer</title>
<path fill="none" stroke="#444444" stroke-width="1.5" d="M942.77,-673.57C999.88,-665.57 1083.81,-653.83 1131.55,-647.15"/>
<polygon fill="#444444" stroke="#444444" stroke-width="1.5" points="1132.32,-650.58 1141.74,-645.72 1131.35,-643.64 1132.32,-650.58"/>
<text text-anchor="middle" x="965.72" y="-678.4" font-family="Arial" font-size="9.00" fill="#444444">Pin 2</text>
</g>
<!-- Q1&#45;&gt;VCC_SW -->
<g id="edge10" class="edge">
<title>Q1&#45;&gt;VCC_SW</title>
<path fill="none" stroke="#cc7700" stroke-width="2.8" d="M806.72,-354.53C724.15,-320.43 592.32,-265.99 518.54,-235.53"/>
<polygon fill="#cc7700" stroke="#cc7700" stroke-width="2.8" points="519.55,-232.15 508.97,-231.57 516.88,-238.62 519.55,-232.15"/>
<text text-anchor="middle" x="672.5" y="-311.8" font-family="Arial" font-size="9.00">VCC_SWITCHED</text>
<text text-anchor="middle" x="790.48" y="-334.65" font-family="Arial" font-size="9.00" fill="#cc7700">Drain</text>
</g>
<!-- C1&#45;&gt;gnd_switch -->
<g id="edge4" class="edge">
<title>C1&#45;&gt;gnd_switch</title>
<path fill="none" stroke="#444444" stroke-width="1.5" d="M965.57,-244C1022.31,-244 1094.42,-244 1135.58,-244"/>
<polygon fill="#444444" stroke="#444444" stroke-width="1.5" points="1135.85,-247.5 1145.85,-244 1135.85,-240.5 1135.85,-247.5"/>
<text text-anchor="middle" x="987.32" y="-251.94" font-family="Arial" font-size="9.00" fill="#444444">&#45;</text>
</g>
<!-- M1&#45;&gt;gnd_mcu -->
<g id="edge5" class="edge">
<title>M1&#45;&gt;gnd_mcu</title>
<path fill="none" stroke="#444444" stroke-width="1.8" d="M975.31,-81C1030.3,-81 1096.61,-81 1135.47,-81"/>
<polygon fill="#444444" stroke="#444444" stroke-width="1.8" points="1135.67,-84.5 1145.67,-81 1135.67,-77.5 1135.67,-84.5"/>
<text text-anchor="middle" x="997.06" y="-88.94" font-family="Arial" font-size="9.00" fill="#444444">GND</text>
</g>
<!-- M1&#45;&gt;U1 -->
<g id="edge13" class="edge">
<title>M1&#45;&gt;U1</title>
<path fill="none" stroke="#4527a0" stroke-width="2" stroke-dasharray="5,2" d="M812.81,-146.14C801.11,-159.08 789.64,-173.01 780,-187 738.62,-247.09 747.63,-273.11 709,-335 651.78,-426.66 572.22,-522.88 519.48,-583.36"/>
<polygon fill="#4527a0" stroke="#4527a0" stroke-width="2" points="516.81,-581.09 512.86,-590.92 522.08,-585.7 516.81,-581.09"/>
<text text-anchor="middle" x="672.5" y="-445.8" font-family="Arial" font-size="9.00">MCU_DONE</text>
<text text-anchor="middle" x="672.5" y="-435.8" font-family="Arial" font-size="9.00">(Abschaltsignal)</text>
<text text-anchor="middle" x="534.82" y="-579.03" font-family="Arial" font-size="9.00" fill="#4527a0">DONE</text>
<text text-anchor="middle" x="790.74" y="-153.38" font-family="Arial" font-size="9.00" fill="#4527a0">GPIO 2</text>
</g>
</g>
</svg>
