<?xml version="1.0" encoding="UTF-8" standalone="no"?>
<!DOCTYPE svg PUBLIC "-//W3C//DTD SVG 1.1//EN"
 "http://www.w3.org/Graphics/SVG/1.1/DTD/svg11.dtd">
<!-- Generated by graphviz version 2.43.0 (0)
 -->
<!-- Title: WlanTimerCamera Pages: 1 -->
<svg width="2234pt" height="804pt"
 viewBox="0.00 0.00 2234.10 804.20" xmlns="http://www.w3.org/2000/svg" xmlns:xlink="http://www.w3.org/1999/xlink">
<g id="graph0" class="graph" transform="scale(1 1) rotate(0) translate(57.6 746.6)">
<title>WlanTimerCamera</title>
<polygon fill="white" stroke="transparent" points="-57.6,57.6 -57.6,-746.6 2176.5,-746.6 2176.5,57.6 -57.6,57.6"/>
<text text-anchor="middle" x="1059.45" y="-673.8" font-family="Arial" font-size="14.00">WLAN Timer Camera — Schaltplan</text>
<text text-anchor="middle" x="1059.45" y="-658.8" font-family="Arial" font-size="14.00">TPL5110 Power&#45;Timer · AO3400 N&#45;Kanal Low&#45;Side&#45;Switch · ESP32&#45;CAM</text>
<g id="clust1" class="cluster">
<title>cluster_source</title>
<polygon fill="#fff8e1" stroke="#e65100" stroke-width="2" points="8,-505 8,-643 419.35,-643 419.35,-505 8,-505"/>
<text text-anchor="middle" x="213.68" y="-630.2" font-family="Arial" font-size="11.00">Energiequelle</text>
</g>
<g id="clust2" class="cluster">
<title>cluster_timer</title>
<polygon fill="#fce4ec" stroke="#880e4f" stroke-width="2" points="617.99,-397 617.99,-527 1176.35,-527 1176.35,-397 617.99,-397"/>
<text text-anchor="middle" x="897.17" y="-514.2" font-family="Arial" font-size="11.00">Power&#45;Timer</text>
</g>
<g id="clust3" class="cluster">
<title>cluster_switch</title>
<polygon fill="#e3f2fd" stroke="#1565c0" stroke-width="2" points="1021.99,-267 1021.99,-389 1604.3,-389 1604.3,-267 1021.99,-267"/>
<text text-anchor="middle" x="1313.15" y="-376.2" font-family="Arial" font-size="11.00">Schaltstufe (N&#45;Kanal, Low&#45;Side)</text>
</g>
<g id="clust4" class="cluster">
<title>cluster_mcu</title>
<polygon fill="#e8f5e9" stroke="#2e7d32" stroke-width="2" points="1825.9,-8 1825.9,-289 2110.9,-289 2110.9,-8 1825.9,-8"/>
<text text-anchor="middle" x="1968.4" y="-276.2" font-family="Arial" font-size="11.00">Recheneinheit &amp; Kamera</text>
</g>
<!-- gnd_src -->
<g id="node1" class="node">
<title>gnd_src</title>
<polygon fill="#444444" stroke="black" points="375.99,-552.57 411.21,-584.71 340.78,-584.71 375.99,-552.57"/>
<text text-anchor="middle" x="375.99" y="-572.1" font-family="Arial" font-size="8.00" fill="white">GND</text>
</g>
<!-- gnd_timer -->
<g id="node2" class="node">
<title>gnd_timer</title>
<polygon fill="#444444" stroke="black" points="1132.99,-430.57 1168.2,-462.71 1097.78,-462.71 1132.99,-430.57"/>
<text text-anchor="middle" x="1132.99" y="-450.1" font-family="Arial" font-size="8.00" fill="white">GND</text>
</g>
<!-- gnd_src&#45;&gt;gnd_timer -->
<g id="edge13" class="edge">
<title>gnd_src&#45;&gt;gnd_timer</title>
<path fill="none" stroke="#444444" stroke-width="1.2" stroke-dasharray="5,2" d="M398.9,-573.27C464.76,-570.81 666.55,-561.25 830.99,-532 924.4,-515.39 1031.17,-483.96 1089.1,-465.84"/>
<polygon fill="#444444" stroke="#444444" stroke-width="1.2" points="1090.5,-469.06 1098.99,-462.72 1088.4,-462.39 1090.5,-469.06"/>
<text text-anchor="middle" x="728.49" y="-561.8" font-family="Arial" font-size="9.00">GND&#45;Netz</text>
</g>
<!-- gnd_mosfet -->
<g id="node3" class="node">
<title>gnd_mosfet</title>
<polygon fill="#444444" stroke="black" points="1560.95,-307.57 1596.16,-339.71 1525.73,-339.71 1560.95,-307.57"/>
<text text-anchor="middle" x="1560.95" y="-327.1" font-family="Arial" font-size="8.00" fill="white">GND</text>
</g>
<!-- gnd_timer&#45;&gt;gnd_mosfet -->
<g id="edge14" class="edge">
<title>gnd_timer&#45;&gt;gnd_mosfet</title>
<path fill="none" stroke="#444444" stroke-width="1.2" stroke-dasharray="5,2" d="M1151.22,-447.03C1213.1,-429.16 1425.35,-367.87 1517.11,-341.37"/>
<polygon fill="#444444" stroke="#444444" stroke-width="1.2" points="1518.27,-344.68 1526.91,-338.54 1516.33,-337.95 1518.27,-344.68"/>
</g>
<!-- VCC_BATT -->
<g id="node4" class="node">
<title>VCC_BATT</title>
<path fill="#fff3cd" stroke="#cc7700" stroke-width="2.8" d="M364.84,-483.59C364.84,-483.59 296.16,-456.41 296.16,-456.41 290.58,-454.21 290.58,-449.79 296.16,-447.59 296.16,-447.59 364.84,-420.41 364.84,-420.41 370.42,-418.21 381.57,-418.21 387.15,-420.41 387.15,-420.41 455.83,-447.59 455.83,-447.59 461.41,-449.79 461.41,-454.21 455.83,-456.41 455.83,-456.41 387.15,-483.59 387.15,-483.59 381.57,-485.79 370.42,-485.79 364.84,-483.59"/>
<text text-anchor="middle" x="375.99" y="-455" font-family="Arial" font-size="10.00">VCC_BATT</text>
<text text-anchor="middle" x="375.99" y="-444" font-family="Arial" font-size="10.00">(3.6 V, Dauerplus)</text>
</g>
<!-- U1 -->
<g id="node7" class="node">
<title>U1</title>
<path fill="#fce4ec" stroke="#880e4f" stroke-width="2" d="M818.99,-499C818.99,-499 637.99,-499 637.99,-499 631.99,-499 625.99,-493 625.99,-487 625.99,-487 625.99,-417 625.99,-417 625.99,-411 631.99,-405 637.99,-405 637.99,-405 818.99,-405 818.99,-405 824.99,-405 830.99,-411 830.99,-417 830.99,-417 830.99,-487 830.99,-487 830.99,-493 824.99,-499 818.99,-499"/>
<text text-anchor="middle" x="728.49" y="-460.5" font-family="Arial" font-size="10.00">U1 — TPL5110</text>
<text text-anchor="middle" x="728.49" y="-449.5" font-family="Arial" font-size="10.00">Power&#45;Timer IC</text>
<text text-anchor="middle" x="728.49" y="-438.5" font-family="Arial" font-size="10.00">VDD | GND | DRV (Pin4) | DONE (Pin5)</text>
</g>
<!-- VCC_BATT&#45;&gt;U1 -->
<g id="edge3" class="edge">
<title>VCC_BATT&#45;&gt;U1</title>
<path fill="none" stroke="#cc7700" stroke-width="2.5" d="M467.26,-452C512.51,-452 567.75,-452 615.67,-452"/>
<polygon fill="#cc7700" stroke="#cc7700" stroke-width="2.5" points="615.78,-455.5 625.78,-452 615.78,-448.5 615.78,-455.5"/>
<text text-anchor="middle" x="604.03" y="-439.66" font-family="Arial" font-size="9.00" fill="#cc7700">VDD</text>
</g>
<!-- M1 -->
<g id="node9" class="node">
<title>M1</title>
<path fill="#e8f5e9" stroke="#2e7d32" stroke-width="2" d="M2090.9,-261C2090.9,-261 1845.9,-261 1845.9,-261 1839.9,-261 1833.9,-255 1833.9,-249 1833.9,-249 1833.9,-165 1833.9,-165 1833.9,-159 1839.9,-153 1845.9,-153 1845.9,-153 2090.9,-153 2090.9,-153 2096.9,-153 2102.9,-159 2102.9,-165 2102.9,-165 2102.9,-249 2102.9,-249 2102.9,-255 2096.9,-261 2090.9,-261"/>
<text text-anchor="middle" x="1968.4" y="-215.5" font-family="Arial" font-size="10.00">M1 — ESP32&#45;CAM (AI&#45;Thinker)</text>
<text text-anchor="middle" x="1968.4" y="-204.5" font-family="Arial" font-size="10.00">OV2640 · Flash&#45;LED GPIO4</text>
<text text-anchor="middle" x="1968.4" y="-193.5" font-family="Arial" font-size="10.00">3.3V (Dauerpuls) | GND (geschaltet) | GPIO13 (DONE)</text>
</g>
<!-- VCC_BATT&#45;&gt;M1 -->
<g id="edge4" class="edge">
<title>VCC_BATT&#45;&gt;M1</title>
<path fill="none" stroke="#cc7700" stroke-width="2.5" d="M412.82,-430.36C508.02,-374.05 776.78,-222.69 1021.99,-156 1205.19,-106.18 1257.38,-122.57 1446.99,-113 1548.16,-107.9 1574.52,-99.45 1674.9,-113 1711.45,-117.93 1719.65,-124.19 1754.9,-135 1777.41,-141.9 1801.12,-149.55 1824.23,-157.22"/>
<polygon fill="#cc7700" stroke="#cc7700" stroke-width="2.5" points="1823.15,-160.55 1833.74,-160.39 1825.36,-153.91 1823.15,-160.55"/>
<text text-anchor="middle" x="1816.31" y="-141.69" font-family="Arial" font-size="9.00" fill="#cc7700">3.3V (Dauerpuls)</text>
</g>
<!-- C1 -->
<g id="node10" class="node">
<title>C1</title>
<path fill="#e8f5e9" stroke="#2e7d32" d="M2015.9,-88C2015.9,-88 1920.9,-88 1920.9,-88 1914.9,-88 1908.9,-82 1908.9,-76 1908.9,-76 1908.9,-28 1908.9,-28 1908.9,-22 1914.9,-16 1920.9,-16 1920.9,-16 2015.9,-16 2015.9,-16 2021.9,-16 2027.9,-22 2027.9,-28 2027.9,-28 2027.9,-76 2027.9,-76 2027.9,-82 2021.9,-88 2015.9,-88"/>
<text text-anchor="middle" x="1968.4" y="-66" font-family="Arial" font-size="10.00">C1</text>
<text text-anchor="middle" x="1968.4" y="-55" font-family="Arial" font-size="10.00">470 µF / 6.3 V</text>
<text text-anchor="middle" x="1968.4" y="-44" font-family="Arial" font-size="10.00">Elko (Low&#45;ESR)</text>
<text text-anchor="middle" x="1968.4" y="-33" font-family="Arial" font-size="10.00">(parallel zur Kamera)</text>
</g>
<!-- VCC_BATT&#45;&gt;C1 -->
<g id="edge5" class="edge">
<title>VCC_BATT&#45;&gt;C1</title>
<path fill="none" stroke="#cc7700" stroke-width="1.8" d="M396.25,-423.77C433.04,-372.07 518.57,-262.26 617.99,-205 1050.23,43.92 1689.6,-14.08 1898.59,-41.72"/>
<polygon fill="#cc7700" stroke="#cc7700" stroke-width="1.8" points="1898.42,-45.23 1908.8,-43.1 1899.35,-38.3 1898.42,-45.23"/>
<text text-anchor="middle" x="1888.59" y="-27.95" font-family="Arial" font-size="9.00" fill="#cc7700">+ (Elko)</text>
</g>
<!-- GND_SW -->
<g id="node5" class="node">
<title>GND_SW</title>
<path fill="#e3f2fd" stroke="#1565c0" stroke-width="2.8" d="M1549.5,-239.38C1549.5,-239.38 1458.48,-210.62 1458.48,-210.62 1452.75,-208.81 1452.75,-205.19 1458.48,-203.38 1458.48,-203.38 1549.5,-174.62 1549.5,-174.62 1555.23,-172.81 1566.67,-172.81 1572.39,-174.62 1572.39,-174.62 1663.42,-203.38 1663.42,-203.38 1669.14,-205.19 1669.14,-208.81 1663.42,-210.62 1663.42,-210.62 1572.39,-239.38 1572.39,-239.38 1566.67,-241.19 1555.23,-241.19 1549.5,-239.38"/>
<text text-anchor="middle" x="1560.95" y="-210" font-family="Arial" font-size="10.00">GND_SWITCHED</text>
<text text-anchor="middle" x="1560.95" y="-199" font-family="Arial" font-size="10.00">(Q1 Drain — geschaltet)</text>
</g>
<!-- GND_SW&#45;&gt;M1 -->
<g id="edge9" class="edge">
<title>GND_SW&#45;&gt;M1</title>
<path fill="none" stroke="#1565c0" stroke-width="2.5" d="M1674.89,-207C1721.03,-207 1774.96,-207 1823.85,-207"/>
<polygon fill="#1565c0" stroke="#1565c0" stroke-width="2.5" points="1823.88,-210.5 1833.88,-207 1823.88,-203.5 1823.88,-210.5"/>
<text text-anchor="middle" x="1812.12" y="-194.66" font-family="Arial" font-size="9.00" fill="#1565c0">GND</text>
</g>
<!-- GND_SW&#45;&gt;C1 -->
<g id="edge8" class="edge">
<title>GND_SW&#45;&gt;C1</title>
<path fill="none" stroke="#1565c0" stroke-width="1.8" d="M1613.3,-187.37C1685.79,-159.66 1818.26,-109.01 1899.02,-78.14"/>
<polygon fill="#1565c0" stroke="#1565c0" stroke-width="1.8" points="1900.51,-81.32 1908.6,-74.48 1898.01,-74.78 1900.51,-81.32"/>
<text text-anchor="middle" x="1884.66" y="-70.57" font-family="Arial" font-size="9.00" fill="#1565c0">&#45; (Elko)</text>
</g>
<!-- BAT1 -->
<g id="node6" class="node">
<title>BAT1</title>
<path fill="#fff8e1" stroke="#e65100" stroke-width="2" d="M126,-605.32C126,-610.38 101.35,-614.5 71,-614.5 40.65,-614.5 16,-610.38 16,-605.32 16,-605.32 16,-522.68 16,-522.68 16,-517.62 40.65,-513.5 71,-513.5 101.35,-513.5 126,-517.62 126,-522.68 126,-522.68 126,-605.32 126,-605.32"/>
<path fill="none" stroke="#e65100" stroke-width="2" d="M126,-605.32C126,-600.25 101.35,-596.14 71,-596.14 40.65,-596.14 16,-600.25 16,-605.32"/>
<text text-anchor="middle" x="71" y="-572.5" font-family="Arial" font-size="10.00">BAT1</text>
<text text-anchor="middle" x="71" y="-561.5" font-family="Arial" font-size="10.00">ER26500 Li&#45;SOCl₂</text>
<text text-anchor="middle" x="71" y="-550.5" font-family="Arial" font-size="10.00">3.6 V / 8500 mAh</text>
</g>
<!-- BAT1&#45;&gt;gnd_src -->
<g id="edge2" class="edge">
<title>BAT1&#45;&gt;gnd_src</title>
<path fill="none" stroke="#444444" stroke-width="2" d="M126.17,-565.79C189.26,-567.87 291.4,-571.24 342.99,-572.94"/>
<polygon fill="#444444" stroke="#444444" stroke-width="2" points="343.09,-576.45 353.2,-573.28 343.32,-569.45 343.09,-576.45"/>
<text text-anchor="middle" x="147.57" y="-574.44" font-family="Arial" font-size="9.00" fill="#444444">&#45; (Minuspol)</text>
</g>
<!-- BAT1&#45;&gt;VCC_BATT -->
<g id="edge1" class="edge">
<title>BAT1&#45;&gt;VCC_BATT</title>
<path fill="none" stroke="#e65100" stroke-width="2.5" d="M126.17,-543.98C180.44,-523.91 263.62,-493.17 318.65,-472.83"/>
<polygon fill="#e65100" stroke="#e65100" stroke-width="2.5" points="320.08,-476.03 328.25,-469.28 317.66,-469.46 320.08,-476.03"/>
<text text-anchor="middle" x="150.09" y="-543.75" font-family="Arial" font-size="9.00" fill="#e65100">+ (Pluspol)</text>
</g>
<!-- U1&#45;&gt;gnd_timer -->
<g id="edge11" class="edge">
<title>U1&#45;&gt;gnd_timer</title>
<path fill="none" stroke="#444444" stroke-width="2" d="M831.06,-452C919.19,-452 1041.45,-452 1099.23,-452"/>
<polygon fill="#444444" stroke="#444444" stroke-width="2" points="1099.25,-455.5 1109.25,-452 1099.25,-448.5 1099.25,-455.5"/>
<text text-anchor="middle" x="852.81" y="-459.94" font-family="Arial" font-size="9.00" fill="#444444">GND</text>
</g>
<!-- Q1 -->
<g id="node8" class="node">
<title>Q1</title>
<path fill="#e3f2fd" stroke="#1565c0" stroke-width="2" d="M1223.99,-361C1223.99,-361 1041.99,-361 1041.99,-361 1035.99,-361 1029.99,-355 1029.99,-349 1029.99,-349 1029.99,-287 1029.99,-287 1029.99,-281 1035.99,-275 1041.99,-275 1041.99,-275 1223.99,-275 1223.99,-275 1229.99,-275 1235.99,-281 1235.99,-287 1235.99,-287 1235.99,-349 1235.99,-349 1235.99,-355 1229.99,-361 1223.99,-361"/>
<text text-anchor="middle" x="1132.99" y="-326.5" font-family="Arial" font-size="10.00">Q1 — AO3400</text>
<text text-anchor="middle" x="1132.99" y="-315.5" font-family="Arial" font-size="10.00">N&#45;Kanal MOSFET</text>
<text text-anchor="middle" x="1132.99" y="-304.5" font-family="Arial" font-size="10.00">Gate (Pin1) | Source (Pin2) | Drain (Pin3)</text>
</g>
<!-- U1&#45;&gt;Q1 -->
<g id="edge6" class="edge">
<title>U1&#45;&gt;Q1</title>
<path fill="none" stroke="#1565c0" stroke-width="2.5" d="M831.06,-418.19C888.64,-399.02 960.78,-375 1019.99,-355.29"/>
<polygon fill="#1565c0" stroke="#1565c0" stroke-width="2.5" points="1021.37,-358.52 1029.76,-352.04 1019.16,-351.87 1021.37,-358.52"/>
<text text-anchor="middle" x="930.49" y="-391.8" font-family="Arial" font-size="9.00">TPL_DRV</text>
<text text-anchor="middle" x="1005.91" y="-347.08" font-family="Arial" font-size="9.00" fill="#1565c0">Gate (Pin1)</text>
<text text-anchor="middle" x="854.9" y="-418.74" font-family="Arial" font-size="9.00" fill="#1565c0">DRV (Pin4)</text>
</g>
<!-- Q1&#45;&gt;gnd_mosfet -->
<g id="edge12" class="edge">
<title>Q1&#45;&gt;gnd_mosfet</title>
<path fill="none" stroke="#444444" stroke-width="2" d="M1236.02,-320.63C1330.75,-323.08 1466.11,-326.58 1527.48,-328.16"/>
<polygon fill="#444444" stroke="#444444" stroke-width="2" points="1527.62,-331.67 1537.71,-328.43 1527.8,-324.67 1527.62,-331.67"/>
<text text-anchor="middle" x="1257.5" y="-329.14" font-family="Arial" font-size="9.00" fill="#444444">Source (Pin2)</text>
</g>
<!-- Q1&#45;&gt;GND_SW -->
<g id="edge7" class="edge">
<title>Q1&#45;&gt;GND_SW</title>
<path fill="none" stroke="#1565c0" stroke-width="2.5" d="M1236.02,-291.41C1313.78,-271.15 1418.93,-243.75 1488.05,-225.74"/>
<polygon fill="#1565c0" stroke="#1565c0" stroke-width="2.5" points="1489.18,-229.06 1497.98,-223.15 1487.42,-222.28 1489.18,-229.06"/>
<text text-anchor="middle" x="1259.62" y="-293.54" font-family="Arial" font-size="9.00" fill="#1565c0">Drain (Pin3)</text>
</g>
<!-- M1&#45;&gt;U1 -->
<g id="edge10" class="edge">
<title>M1&#45;&gt;U1</title>
<path fill="none" stroke="#2e7d32" stroke-width="2" stroke-dasharray="5,2" d="M1833.83,-169.18C1784.34,-156.97 1727.48,-145.03 1674.9,-139 1574.27,-127.46 1547.44,-125.99 1446.99,-139 1253.27,-164.1 1199.56,-169.59 1021.99,-251 937.11,-289.91 850.22,-353.19 793.45,-398.35"/>
<polygon fill="#2e7d32" stroke="#2e7d32" stroke-width="2" points="790.91,-395.9 785.29,-404.88 795.29,-401.36 790.91,-395.9"/>
<text text-anchor="middle" x="1341.49" y="-158.8" font-family="Arial" font-size="9.00">MCU_DONE</text>
<text text-anchor="middle" x="808.61" y="-397.01" font-family="Arial" font-size="9.00" fill="#2e7d32">DONE (Pin5)</text>
<text text-anchor="middle" x="1815.08" y="-152" font-family="Arial" font-size="9.00" fill="#2e7d32">GPIO13</text>
</g>
</g>
</svg>
