<?xml version="1.0" encoding="UTF-8" standalone="no"?>
<!DOCTYPE svg PUBLIC "-//W3C//DTD SVG 1.1//EN"
 "http://www.w3.org/Graphics/SVG/1.1/DTD/svg11.dtd">
<!-- Generated by graphviz version 2.43.0 (0)
 -->
<!-- Title: WlanTimerCamera Pages: 1 -->
<svg width="2223pt" height="769pt"
 viewBox="0.00 0.00 2223.40 769.45" xmlns="http://www.w3.org/2000/svg" xmlns:xlink="http://www.w3.org/1999/xlink">
<g id="graph0" class="graph" transform="scale(1 1) rotate(0) translate(57.6 711.85)">
<title>WlanTimerCamera</title>
<polygon fill="white" stroke="transparent" points="-57.6,57.6 -57.6,-711.85 2165.8,-711.85 2165.8,57.6 -57.6,57.6"/>
<text text-anchor="middle" x="1054.1" y="-639.05" font-family="Arial" font-size="14.00">WLAN Timer Camera — Schaltplan</text>
<text text-anchor="middle" x="1054.1" y="-624.05" font-family="Arial" font-size="14.00">(ESP32&#45;CAM + TPL5110 + Si2301 + R1 100 kΩ + ER26500)</text>
<g id="clust1" class="cluster">
<title>cluster_source</title>
<polygon fill="#fff8e1" stroke="#e65100" stroke-width="2" points="8,-478.25 8,-608.25 415.56,-608.25 415.56,-478.25 8,-478.25"/>
<text text-anchor="middle" x="211.78" y="-595.45" font-family="Arial" font-size="11.00">Energiequelle</text>
</g>
<g id="clust2" class="cluster">
<title>cluster_timer</title>
<polygon fill="#fce4ec" stroke="#880e4f" stroke-width="2" points="610.4,-372.25 610.4,-494.25 1063.26,-494.25 1063.26,-372.25 610.4,-372.25"/>
<text text-anchor="middle" x="836.83" y="-481.45" font-family="Arial" font-size="11.00">Power&#45;Timer</text>
</g>
<g id="clust3" class="cluster">
<title>cluster_switch</title>
<polygon fill="#e3f2fd" stroke="#1565c0" stroke-width="2" points="639.9,-108.25 639.9,-223.25 1096.4,-223.25 1096.4,-108.25 639.9,-108.25"/>
<text text-anchor="middle" x="868.15" y="-210.45" font-family="Arial" font-size="11.00">Schaltstufe</text>
</g>
<g id="clust4" class="cluster">
<title>cluster_mcu</title>
<polygon fill="#e8f5e9" stroke="#2e7d32" stroke-width="2" points="1681.49,-90.25 1681.49,-365.25 2100.2,-365.25 2100.2,-90.25 1681.49,-90.25"/>
<text text-anchor="middle" x="1890.85" y="-352.45" font-family="Arial" font-size="11.00">Recheneinheit &amp; Kamera</text>
</g>
<!-- gnd_src -->
<g id="node1" class="node">
<title>gnd_src</title>
<polygon fill="#444444" stroke="black" points="372.2,-523.83 407.41,-555.97 336.99,-555.97 372.2,-523.83"/>
<text text-anchor="middle" x="372.2" y="-543.35" font-family="Arial" font-size="8.00" fill="white">GND</text>
</g>
<!-- gnd_timer -->
<g id="node2" class="node">
<title>gnd_timer</title>
<polygon fill="#444444" stroke="black" points="1019.9,-401.83 1055.11,-433.97 984.69,-433.97 1019.9,-401.83"/>
<text text-anchor="middle" x="1019.9" y="-421.35" font-family="Arial" font-size="8.00" fill="white">GND</text>
</g>
<!-- gnd_mcu -->
<g id="node3" class="node">
<title>gnd_mcu</title>
<polygon fill="#444444" stroke="black" points="2056.85,-181.83 2092.06,-213.97 2021.64,-213.97 2056.85,-181.83"/>
<text text-anchor="middle" x="2056.85" y="-201.35" font-family="Arial" font-size="8.00" fill="white">GND</text>
</g>
<!-- VCC_BATT -->
<g id="node4" class="node">
<title>VCC_BATT</title>
<path fill="#fff3cd" stroke="#cc7700" stroke-width="2.8" d="M360.89,-455.24C360.89,-455.24 282.11,-427.27 282.11,-427.27 276.45,-425.26 276.45,-421.25 282.11,-419.24 282.11,-419.24 360.89,-391.27 360.89,-391.27 366.55,-389.26 377.85,-389.26 383.51,-391.27 383.51,-391.27 462.29,-419.24 462.29,-419.24 467.95,-421.25 467.95,-425.26 462.29,-427.27 462.29,-427.27 383.51,-455.24 383.51,-455.24 377.85,-457.25 366.55,-457.25 360.89,-455.24"/>
<text text-anchor="middle" x="372.2" y="-426.25" font-family="Arial" font-size="10.00">VCC_BATT</text>
<text text-anchor="middle" x="372.2" y="-415.25" font-family="Arial" font-size="10.00">(3.6 V, ungeschaltet)</text>
</g>
<!-- U1 -->
<g id="node7" class="node">
<title>U1</title>
<path fill="#fce4ec" stroke="#880e4f" stroke-width="2" d="M754.4,-466.25C754.4,-466.25 630.4,-466.25 630.4,-466.25 624.4,-466.25 618.4,-460.25 618.4,-454.25 618.4,-454.25 618.4,-392.25 618.4,-392.25 618.4,-386.25 624.4,-380.25 630.4,-380.25 630.4,-380.25 754.4,-380.25 754.4,-380.25 760.4,-380.25 766.4,-386.25 766.4,-392.25 766.4,-392.25 766.4,-454.25 766.4,-454.25 766.4,-460.25 760.4,-466.25 754.4,-466.25"/>
<text text-anchor="middle" x="692.4" y="-431.75" font-family="Arial" font-size="10.00">U1 — TPL5110</text>
<text text-anchor="middle" x="692.4" y="-420.75" font-family="Arial" font-size="10.00">Power&#45;Timer</text>
<text text-anchor="middle" x="692.4" y="-409.75" font-family="Arial" font-size="10.00">VDD | DRV | DONE | GND</text>
</g>
<!-- VCC_BATT&#45;&gt;U1 -->
<g id="edge2" class="edge">
<title>VCC_BATT&#45;&gt;U1</title>
<path fill="none" stroke="#e65100" stroke-width="2.5" d="M473.44,-423.25C516.78,-423.25 566.9,-423.25 608.14,-423.25"/>
<polygon fill="#e65100" stroke="#e65100" stroke-width="2.5" points="608.15,-426.75 618.15,-423.25 608.15,-419.75 608.15,-426.75"/>
<text text-anchor="middle" x="596.4" y="-410.91" font-family="Arial" font-size="9.00" fill="#e65100">VDD</text>
</g>
<!-- Q1 -->
<g id="node8" class="node">
<title>Q1</title>
<path fill="#e3f2fd" stroke="#1565c0" stroke-width="2" d="M1076.4,-194.75C1076.4,-194.75 963.4,-194.75 963.4,-194.75 957.4,-194.75 951.4,-188.75 951.4,-182.75 951.4,-182.75 951.4,-127.75 951.4,-127.75 951.4,-121.75 957.4,-115.75 963.4,-115.75 963.4,-115.75 1076.4,-115.75 1076.4,-115.75 1082.4,-115.75 1088.4,-121.75 1088.4,-127.75 1088.4,-127.75 1088.4,-182.75 1088.4,-182.75 1088.4,-188.75 1082.4,-194.75 1076.4,-194.75"/>
<text text-anchor="middle" x="1019.9" y="-163.75" font-family="Arial" font-size="10.00">Q1 — Si2301</text>
<text text-anchor="middle" x="1019.9" y="-152.75" font-family="Arial" font-size="10.00">P&#45;Kanal MOSFET</text>
<text text-anchor="middle" x="1019.9" y="-141.75" font-family="Arial" font-size="10.00">Source | Gate | Drain</text>
</g>
<!-- VCC_BATT&#45;&gt;Q1 -->
<g id="edge3" class="edge">
<title>VCC_BATT&#45;&gt;Q1</title>
<path fill="none" stroke="#e65100" stroke-width="2.5" d="M421.05,-404.52C498.29,-372.94 653.25,-303.99 766.4,-217.25 803.84,-188.55 795.18,-158.18 838.4,-139.25 870.26,-125.3 908.27,-126.39 941.17,-132.12"/>
<polygon fill="#e65100" stroke="#e65100" stroke-width="2.5" points="940.73,-135.6 951.21,-134.04 942.04,-128.73 940.73,-135.6"/>
<text text-anchor="middle" x="931.75" y="-117.8" font-family="Arial" font-size="9.00" fill="#e65100">Source</text>
</g>
<!-- R1 -->
<g id="node9" class="node">
<title>R1</title>
<path fill="#e3f2fd" stroke="#1565c0" d="M724.9,-184.25C724.9,-184.25 659.9,-184.25 659.9,-184.25 653.9,-184.25 647.9,-178.25 647.9,-172.25 647.9,-172.25 647.9,-138.25 647.9,-138.25 647.9,-132.25 653.9,-126.25 659.9,-126.25 659.9,-126.25 724.9,-126.25 724.9,-126.25 730.9,-126.25 736.9,-132.25 736.9,-138.25 736.9,-138.25 736.9,-172.25 736.9,-172.25 736.9,-178.25 730.9,-184.25 724.9,-184.25"/>
<text text-anchor="middle" x="692.4" y="-163.75" font-family="Arial" font-size="10.00">R1</text>
<text text-anchor="middle" x="692.4" y="-152.75" font-family="Arial" font-size="10.00">100 kΩ</text>
<text text-anchor="middle" x="692.4" y="-141.75" font-family="Arial" font-size="10.00">(Gate Pull&#45;up)</text>
</g>
<!-- VCC_BATT&#45;&gt;R1 -->
<g id="edge4" class="edge">
<title>VCC_BATT&#45;&gt;R1</title>
<path fill="none" stroke="#e65100" stroke-width="1.5" d="M398.15,-396.17C430.53,-361.69 489.53,-301.07 545.4,-255.25 575.11,-230.89 610.64,-206.47 639.21,-187.86"/>
<polygon fill="#e65100" stroke="#e65100" stroke-width="1.5" points="641.34,-190.64 647.83,-182.27 637.54,-184.77 641.34,-190.64"/>
<text text-anchor="middle" x="624.06" y="-183.37" font-family="Arial" font-size="9.00" fill="#e65100">Pin 1</text>
</g>
<!-- VCC_SWITCHED -->
<g id="node5" class="node">
<title>VCC_SWITCHED</title>
<path fill="#fff3cd" stroke="#cc7700" stroke-width="2.8" d="M1367.75,-186.95C1367.75,-186.95 1296.55,-159.56 1296.55,-159.56 1290.95,-157.41 1290.95,-153.1 1296.55,-150.95 1296.55,-150.95 1367.75,-123.56 1367.75,-123.56 1373.35,-121.41 1384.55,-121.41 1390.15,-123.56 1390.15,-123.56 1461.34,-150.95 1461.34,-150.95 1466.94,-153.1 1466.94,-157.41 1461.34,-159.56 1461.34,-159.56 1390.15,-186.95 1390.15,-186.95 1384.55,-189.1 1373.35,-189.1 1367.75,-186.95"/>
<text text-anchor="middle" x="1378.95" y="-158.25" font-family="Arial" font-size="10.00">VCC_SWITCHED</text>
<text text-anchor="middle" x="1378.95" y="-147.25" font-family="Arial" font-size="10.00">(3.6 V, geschaltet)</text>
</g>
<!-- M1 -->
<g id="node10" class="node">
<title>M1</title>
<path fill="#e8f5e9" stroke="#2e7d32" stroke-width="2" d="M1864.49,-336.75C1864.49,-336.75 1701.49,-336.75 1701.49,-336.75 1695.49,-336.75 1689.49,-330.75 1689.49,-324.75 1689.49,-324.75 1689.49,-233.75 1689.49,-233.75 1689.49,-227.75 1695.49,-221.75 1701.49,-221.75 1701.49,-221.75 1864.49,-221.75 1864.49,-221.75 1870.49,-221.75 1876.49,-227.75 1876.49,-233.75 1876.49,-233.75 1876.49,-324.75 1876.49,-324.75 1876.49,-330.75 1870.49,-336.75 1864.49,-336.75"/>
<text text-anchor="middle" x="1782.99" y="-298.75" font-family="Arial" font-size="10.00">M1 — ESP32&#45;CAM (AI&#45;Thinker)</text>
<text text-anchor="middle" x="1782.99" y="-287.75" font-family="Arial" font-size="10.00">OV2640 Kamera</text>
<text text-anchor="middle" x="1782.99" y="-276.75" font-family="Arial" font-size="10.00">Flash&#45;LED: GPIO 4</text>
<text text-anchor="middle" x="1782.99" y="-265.75" font-family="Arial" font-size="10.00">Versorgung: 3.3 V | GND</text>
<text text-anchor="middle" x="1782.99" y="-254.75" font-family="Arial" font-size="10.00">DONE&#45;Signal: GPIO 13</text>
</g>
<!-- VCC_SWITCHED&#45;&gt;M1 -->
<g id="edge9" class="edge">
<title>VCC_SWITCHED&#45;&gt;M1</title>
<path fill="none" stroke="#cc7700" stroke-width="2.5" d="M1431.68,-171.21C1494.02,-190.44 1600.24,-223.2 1679.4,-247.61"/>
<polygon fill="#cc7700" stroke="#cc7700" stroke-width="2.5" points="1678.82,-251.1 1689.41,-250.7 1680.88,-244.41 1678.82,-251.1"/>
<text text-anchor="middle" x="1580.99" y="-231.05" font-family="Arial" font-size="9.00">VCC_SWITCHED</text>
<text text-anchor="middle" x="1671.61" y="-232.4" font-family="Arial" font-size="9.00" fill="#cc7700">3.3V</text>
</g>
<!-- C1 -->
<g id="node11" class="node">
<title>C1</title>
<path fill="#e8f5e9" stroke="#2e7d32" d="M1820.49,-156.25C1820.49,-156.25 1745.49,-156.25 1745.49,-156.25 1739.49,-156.25 1733.49,-150.25 1733.49,-144.25 1733.49,-144.25 1733.49,-110.25 1733.49,-110.25 1733.49,-104.25 1739.49,-98.25 1745.49,-98.25 1745.49,-98.25 1820.49,-98.25 1820.49,-98.25 1826.49,-98.25 1832.49,-104.25 1832.49,-110.25 1832.49,-110.25 1832.49,-144.25 1832.49,-144.25 1832.49,-150.25 1826.49,-156.25 1820.49,-156.25"/>
<text text-anchor="middle" x="1782.99" y="-135.75" font-family="Arial" font-size="10.00">C1</text>
<text text-anchor="middle" x="1782.99" y="-124.75" font-family="Arial" font-size="10.00">470 µF / 6.3 V</text>
<text text-anchor="middle" x="1782.99" y="-113.75" font-family="Arial" font-size="10.00">(Low&#45;ESR Elko)</text>
</g>
<!-- VCC_SWITCHED&#45;&gt;C1 -->
<g id="edge8" class="edge">
<title>VCC_SWITCHED&#45;&gt;C1</title>
<path fill="none" stroke="#cc7700" stroke-width="2" d="M1458.42,-149.79C1536.02,-144.39 1653.01,-136.24 1723.02,-131.36"/>
<polygon fill="#cc7700" stroke="#cc7700" stroke-width="2" points="1723.68,-134.82 1733.41,-130.64 1723.19,-127.84 1723.68,-134.82"/>
<text text-anchor="middle" x="1711.01" y="-119.83" font-family="Arial" font-size="9.00" fill="#cc7700">+</text>
</g>
<!-- BAT1 -->
<g id="node6" class="node">
<title>BAT1</title>
<path fill="#fff8e1" stroke="#e65100" stroke-width="2" d="M126,-571.71C126,-576.42 101.35,-580.25 71,-580.25 40.65,-580.25 16,-576.42 16,-571.71 16,-571.71 16,-494.8 16,-494.8 16,-490.09 40.65,-486.25 71,-486.25 101.35,-486.25 126,-490.09 126,-494.8 126,-494.8 126,-571.71 126,-571.71"/>
<path fill="none" stroke="#e65100" stroke-width="2" d="M126,-571.71C126,-566.99 101.35,-563.16 71,-563.16 40.65,-563.16 16,-566.99 16,-571.71"/>
<text text-anchor="middle" x="71" y="-541.75" font-family="Arial" font-size="10.00">BAT1</text>
<text text-anchor="middle" x="71" y="-530.75" font-family="Arial" font-size="10.00">ER26500 Li&#45;SOCl₂</text>
<text text-anchor="middle" x="71" y="-519.75" font-family="Arial" font-size="10.00">3.6 V / 8500 mAh</text>
</g>
<!-- BAT1&#45;&gt;gnd_src -->
<g id="edge11" class="edge">
<title>BAT1&#45;&gt;gnd_src</title>
<path fill="none" stroke="#444444" stroke-width="1.5" d="M126.18,-535.43C188.44,-537.92 288.54,-541.94 339.37,-543.98"/>
<polygon fill="#444444" stroke="#444444" stroke-width="1.5" points="339.31,-547.48 349.44,-544.38 339.59,-540.48 339.31,-547.48"/>
<text text-anchor="middle" x="147.51" y="-544.23" font-family="Arial" font-size="9.00" fill="#444444">&#45;</text>
</g>
<!-- BAT1&#45;&gt;VCC_BATT -->
<g id="edge1" class="edge">
<title>BAT1&#45;&gt;VCC_BATT</title>
<path fill="none" stroke="#e65100" stroke-width="2.5" d="M126.18,-513.33C178.61,-494.06 257.86,-464.92 311.94,-445.04"/>
<polygon fill="#e65100" stroke="#e65100" stroke-width="2.5" points="313.22,-448.3 321.4,-441.56 310.8,-441.73 313.22,-448.3"/>
<text text-anchor="middle" x="150.1" y="-513.15" font-family="Arial" font-size="9.00" fill="#e65100">+</text>
</g>
<!-- U1&#45;&gt;gnd_timer -->
<g id="edge12" class="edge">
<title>U1&#45;&gt;gnd_timer</title>
<path fill="none" stroke="#444444" stroke-width="1.5" d="M766.45,-423.25C835.22,-423.25 935.07,-423.25 986.14,-423.25"/>
<polygon fill="#444444" stroke="#444444" stroke-width="1.5" points="986.26,-426.75 996.26,-423.25 986.26,-419.75 986.26,-426.75"/>
<text text-anchor="middle" x="788.2" y="-431.2" font-family="Arial" font-size="9.00" fill="#444444">GND</text>
</g>
<!-- U1&#45;&gt;Q1 -->
<g id="edge5" class="edge">
<title>U1&#45;&gt;Q1</title>
<path fill="none" stroke="#1565c0" stroke-width="2" d="M745.7,-380.2C805.12,-331.27 901.74,-251.72 962.72,-201.51"/>
<polygon fill="#1565c0" stroke="#1565c0" stroke-width="2" points="965.22,-203.99 970.71,-194.93 960.77,-198.58 965.22,-203.99"/>
<text text-anchor="middle" x="858.9" y="-300.05" font-family="Arial" font-size="9.00">TPL_DRV</text>
<text text-anchor="middle" x="947.47" y="-198.72" font-family="Arial" font-size="9.00" fill="#1565c0">Gate</text>
<text text-anchor="middle" x="768.94" y="-372" font-family="Arial" font-size="9.00" fill="#1565c0">DRV</text>
</g>
<!-- Q1&#45;&gt;VCC_SWITCHED -->
<g id="edge7" class="edge">
<title>Q1&#45;&gt;VCC_SWITCHED</title>
<path fill="none" stroke="#cc7700" stroke-width="2.5" d="M1088.48,-155.25C1141.13,-155.25 1215.11,-155.25 1275.1,-155.25"/>
<polygon fill="#cc7700" stroke="#cc7700" stroke-width="2.5" points="1275.37,-158.75 1285.37,-155.25 1275.37,-151.75 1275.37,-158.75"/>
<text text-anchor="middle" x="1110.23" y="-163.2" font-family="Arial" font-size="9.00" fill="#cc7700">Drain</text>
</g>
<!-- R1&#45;&gt;Q1 -->
<g id="edge6" class="edge">
<title>R1&#45;&gt;Q1</title>
<path fill="none" stroke="#1565c0" stroke-width="1.5" stroke-dasharray="5,2" d="M736.96,-155.25C789.09,-155.25 877.32,-155.25 941.22,-155.25"/>
<polygon fill="#1565c0" stroke="#1565c0" stroke-width="1.5" points="941.26,-158.75 951.26,-155.25 941.26,-151.75 941.26,-158.75"/>
<text text-anchor="middle" x="858.9" y="-158.05" font-family="Arial" font-size="9.00">Pull&#45;up</text>
<text text-anchor="middle" x="929.51" y="-142.91" font-family="Arial" font-size="9.00" fill="#1565c0">Gate</text>
<text text-anchor="middle" x="758.71" y="-163.2" font-family="Arial" font-size="9.00" fill="#1565c0">Pin 2</text>
</g>
<!-- M1&#45;&gt;gnd_mcu -->
<g id="edge14" class="edge">
<title>M1&#45;&gt;gnd_mcu</title>
<path fill="none" stroke="#444444" stroke-width="1.5" d="M1876.79,-253.31C1923.19,-240.34 1977.06,-225.28 2013.5,-215.09"/>
<polygon fill="#444444" stroke="#444444" stroke-width="1.5" points="2014.61,-218.42 2023.3,-212.35 2012.73,-211.68 2014.61,-218.42"/>
<text text-anchor="middle" x="1900.47" y="-255.02" font-family="Arial" font-size="9.00" fill="#444444">GND</text>
</g>
<!-- M1&#45;&gt;U1 -->
<g id="edge10" class="edge">
<title>M1&#45;&gt;U1</title>
<path fill="none" stroke="#2e7d32" stroke-width="2" stroke-dasharray="5,2" d="M1714.6,-221.53C1655.28,-174.78 1564.27,-112.53 1472.49,-86.25 1201.54,-8.7 1073.26,63.53 838.4,-92.25 825.97,-100.5 751.92,-279.33 714.71,-370.62"/>
<polygon fill="#2e7d32" stroke="#2e7d32" stroke-width="2" points="711.43,-369.39 710.9,-379.98 717.92,-372.03 711.43,-369.39"/>
<text text-anchor="middle" x="1186.9" y="-15.05" font-family="Arial" font-size="9.00">MCU_DONE</text>
<text text-anchor="middle" x="728.5" y="-361.45" font-family="Arial" font-size="9.00" fill="#2e7d32">DONE</text>
<text text-anchor="middle" x="1703.58" y="-198.02" font-family="Arial" font-size="9.00" fill="#2e7d32">GPIO 13</text>
</g>
<!-- C1&#45;&gt;gnd_mcu -->
<g id="edge13" class="edge">
<title>C1&#45;&gt;gnd_mcu</title>
<path fill="none" stroke="#444444" stroke-width="1.5" d="M1832.59,-140.84C1889.84,-156.84 1982.91,-182.86 2028.68,-195.66"/>
<polygon fill="#444444" stroke="#444444" stroke-width="1.5" points="2027.9,-199.08 2038.47,-198.4 2029.79,-192.33 2027.9,-199.08"/>
<text text-anchor="middle" x="1850.81" y="-154.27" font-family="Arial" font-size="9.00" fill="#444444">&#45;</text>
</g>
</g>
</svg>
