<?xml version="1.0" encoding="UTF-8" standalone="no"?>
<!DOCTYPE svg PUBLIC "-//W3C//DTD SVG 1.1//EN"
 "http://www.w3.org/Graphics/SVG/1.1/DTD/svg11.dtd">
<!-- Generated by graphviz version 2.43.0 (0)
 -->
<!-- Title: WlanTimerCamera Pages: 1 -->
<svg width="828pt" height="218pt"
 viewBox="0.00 0.00 828.00 217.51" xmlns="http://www.w3.org/2000/svg" xmlns:xlink="http://www.w3.org/1999/xlink">
<g id="graph0" class="graph" transform="scale(0.34 0.34) rotate(0) translate(21.6 612.51)">
<title>WlanTimerCamera</title>
<polygon fill="white" stroke="transparent" points="-21.6,21.6 -21.6,-612.51 2392.31,-612.51 2392.31,21.6 -21.6,21.6"/>
<text text-anchor="middle" x="1185.36" y="-578.11" font-family="Arial" font-size="11.00">WLAN Timer Camera — Schaltplan</text>
<text text-anchor="middle" x="1185.36" y="-566.11" font-family="Arial" font-size="11.00">TPL5110 Power&#45;Timer · AO3400 N&#45;Kanal Low&#45;Side&#45;Switch · ESP32&#45;CAM</text>
<g id="clust1" class="cluster">
<title>cluster_psu</title>
<polygon fill="#fff8e1" stroke="#e65100" stroke-width="2" points="8,-64.91 8,-214.91 545.5,-214.91 545.5,-64.91 8,-64.91"/>
<text text-anchor="middle" x="276.75" y="-202.11" font-family="Arial" font-size="11.00">Stromversorgung</text>
</g>
<g id="clust2" class="cluster">
<title>cluster_vorschalt</title>
<polygon fill="#f3e5f5" stroke="#6a1b9a" stroke-width="2" points="460,-222.91 460,-550.91 1454.71,-550.91 1454.71,-222.91 460,-222.91"/>
<text text-anchor="middle" x="957.36" y="-538.11" font-family="Arial" font-size="11.00">Vorschaltplatine (Streifenrasterplatine)</text>
<text text-anchor="middle" x="957.36" y="-526.11" font-family="Arial" font-size="11.00">mit TPL5110 Power&#45;Timer</text>
</g>
<g id="clust3" class="cluster">
<title>cluster_mosfet</title>
<polygon fill="#e3f2fd" stroke="#1565c0" stroke-width="2" points="1380.86,-86.91 1380.86,-214.91 1811.71,-214.91 1811.71,-86.91 1380.86,-86.91"/>
<text text-anchor="middle" x="1596.28" y="-202.11" font-family="Arial" font-size="11.00">AO3400 Breakoutplatine</text>
<text text-anchor="middle" x="1596.28" y="-190.11" font-family="Arial" font-size="11.00">(N&#45;Kanal MOSFET, Low&#45;Side)</text>
</g>
<g id="clust4" class="cluster">
<title>cluster_mcu</title>
<polygon fill="#e8f5e9" stroke="#2e7d32" stroke-width="2" points="1890.71,-75.91 1890.71,-287.91 2362.71,-287.91 2362.71,-75.91 1890.71,-75.91"/>
<text text-anchor="middle" x="2126.71" y="-275.11" font-family="Arial" font-size="11.00">Recheneinheit &amp; Kamera</text>
</g>
<!-- gnd_vorschalt -->
<g id="node1" class="node">
<title>gnd_vorschalt</title>
<polygon fill="#444444" stroke="black" points="1411.36,-398.48 1446.57,-430.62 1376.14,-430.62 1411.36,-398.48"/>
<text text-anchor="middle" x="1411.36" y="-418.01" font-family="Arial" font-size="8.00" fill="white">GND</text>
</g>
<!-- psu_3V3 -->
<g id="node2" class="node">
<title>psu_3V3</title>
<polygon fill="#eceff1" stroke="#546e7a" stroke-width="1.6" points="537.5,-171.41 492.5,-171.41 492.5,-148.41 537.5,-148.41 537.5,-171.41"/>
<text text-anchor="middle" x="515" y="-158.01" font-family="Courier New" font-size="8.00">3,3 V</text>
</g>
<!-- tpl_VDD -->
<g id="node6" class="node">
<title>tpl_VDD</title>
<polygon fill="#eceff1" stroke="#546e7a" stroke-width="1.6" points="760,-317.41 715,-317.41 715,-294.41 760,-294.41 760,-317.41"/>
<text text-anchor="middle" x="737.5" y="-304.01" font-family="Courier New" font-size="8.00">VDD</text>
</g>
<!-- psu_3V3&#45;&gt;tpl_VDD -->
<g id="edge5" class="edge">
<title>psu_3V3&#45;&gt;tpl_VDD</title>
<path fill="none" stroke="#cc7700" stroke-width="2.5" d="M533.67,-171.61C572.47,-197.3 665.27,-258.75 710.64,-288.79"/>
<polygon fill="#cc7700" stroke="#cc7700" stroke-width="2.5" points="708.78,-291.75 719.05,-294.36 712.64,-285.92 708.78,-291.75"/>
<text text-anchor="middle" x="708.6" y="-275.4" font-family="Arial" font-size="8.00" fill="#cc7700">VDD</text>
<text text-anchor="middle" x="544.12" y="-186.77" font-family="Arial" font-size="8.00" fill="#cc7700">3,3 V</text>
</g>
<!-- cam_3V3 -->
<g id="node18" class="node">
<title>cam_3V3</title>
<polygon fill="#eceff1" stroke="#546e7a" stroke-width="1.6" points="1952.71,-229.41 1907.71,-229.41 1907.71,-206.41 1952.71,-206.41 1952.71,-229.41"/>
<text text-anchor="middle" x="1930.21" y="-216.01" font-family="Courier New" font-size="8.00">3,3 V</text>
</g>
<!-- psu_3V3&#45;&gt;cam_3V3 -->
<g id="edge6" class="edge">
<title>psu_3V3&#45;&gt;cam_3V3</title>
<path fill="none" stroke="#cc7700" stroke-width="2.5" d="M537.59,-156.81C617.54,-145.28 904.36,-103.5 1140,-63.91 1245.14,-46.25 1270.57,-36.77 1376,-20.91 1428.1,-13.07 1441.12,-10.03 1493.71,-6.91 1590.58,-1.17 1618.95,9.57 1711.71,-18.91 1761.26,-34.12 1772.23,-45.33 1811.71,-78.91 1834.36,-98.17 1887.2,-164.22 1913.61,-197.87"/>
<polygon fill="#cc7700" stroke="#cc7700" stroke-width="2.5" points="1911.1,-200.34 1920.02,-206.06 1916.61,-196.02 1911.1,-200.34"/>
<text text-anchor="middle" x="1915.5" y="-184.67" font-family="Arial" font-size="8.00" fill="#cc7700">3,3 V</text>
<text text-anchor="middle" x="556.74" y="-160.68" font-family="Arial" font-size="8.00" fill="#cc7700">3,3 V</text>
</g>
<!-- psu_GND -->
<g id="node3" class="node">
<title>psu_GND</title>
<polygon fill="#eceff1" stroke="#546e7a" stroke-width="1.6" points="537.5,-100.41 492.5,-100.41 492.5,-77.41 537.5,-77.41 537.5,-100.41"/>
<text text-anchor="middle" x="515" y="-87.01" font-family="Courier New" font-size="8.00">GND</text>
</g>
<!-- tpl_GND -->
<g id="node7" class="node">
<title>tpl_GND</title>
<polygon fill="#eceff1" stroke="#546e7a" stroke-width="1.6" points="1256.5,-476.41 1211.5,-476.41 1211.5,-453.41 1256.5,-453.41 1256.5,-476.41"/>
<text text-anchor="middle" x="1234" y="-463.01" font-family="Courier New" font-size="8.00">GND</text>
</g>
<!-- psu_GND&#45;&gt;tpl_GND -->
<g id="edge7" class="edge">
<title>psu_GND&#45;&gt;tpl_GND</title>
<path fill="none" stroke="#444444" stroke-width="2" d="M537.5,-86.63C585.68,-81.64 705.98,-69.9 807,-65.91 972.24,-59.39 1035.03,-104.13 1140,-231.91 1190.03,-292.81 1152.48,-332.05 1187,-402.91 1194.46,-418.23 1205.86,-433.62 1215.44,-445.24"/>
<polygon fill="#444444" stroke="#444444" stroke-width="2" points="1212.87,-447.62 1222.01,-452.98 1218.21,-443.09 1212.87,-447.62"/>
<text text-anchor="middle" x="1216.72" y="-431.79" font-family="Arial" font-size="8.00" fill="#444444">GND</text>
<text text-anchor="middle" x="556.39" y="-91.3" font-family="Arial" font-size="8.00" fill="#444444">GND</text>
</g>
<!-- q1_p2 -->
<g id="node15" class="node">
<title>q1_p2</title>
<polygon fill="#eceff1" stroke="#546e7a" stroke-width="1.6" points="1433.86,-118.91 1388.86,-118.91 1388.86,-94.91 1433.86,-94.91 1433.86,-118.91"/>
<text text-anchor="middle" x="1411.36" y="-109.51" font-family="Courier New" font-size="8.00">Pin 2</text>
<text text-anchor="middle" x="1411.36" y="-100.51" font-family="Courier New" font-size="8.00">(Source)</text>
</g>
<!-- psu_GND&#45;&gt;q1_p2 -->
<g id="edge15" class="edge">
<title>psu_GND&#45;&gt;q1_p2</title>
<path fill="none" stroke="#444444" stroke-width="2" d="M537.57,-82.36C556.27,-76.98 584.17,-69.65 609,-65.91 655.66,-58.88 667.85,-61.76 715,-59.91 777.19,-57.47 792.77,-57.56 855,-56.91 919,-56.24 935.12,-53.04 999,-56.91 1141.12,-65.52 1309.35,-90.7 1378.38,-101.68"/>
<polygon fill="#444444" stroke="#444444" stroke-width="2" points="1378.16,-105.19 1388.59,-103.32 1379.27,-98.28 1378.16,-105.19"/>
<text text-anchor="middle" x="1372.03" y="-90.21" font-family="Arial" font-size="8.00" fill="#444444">Source</text>
<text text-anchor="middle" x="557.31" y="-83.64" font-family="Arial" font-size="8.00" fill="#444444">GND</text>
</g>
<!-- PSU1 -->
<g id="node4" class="node">
<title>PSU1</title>
<path fill="#ffccbc" stroke="#e65100" stroke-width="2" d="M118,-165.09C118,-169.41 95.14,-172.91 67,-172.91 38.86,-172.91 16,-169.41 16,-165.09 16,-165.09 16,-94.73 16,-94.73 16,-90.41 38.86,-86.91 67,-86.91 95.14,-86.91 118,-90.41 118,-94.73 118,-94.73 118,-165.09 118,-165.09"/>
<path fill="none" stroke="#e65100" stroke-width="2" d="M118,-165.09C118,-160.78 95.14,-157.27 67,-157.27 38.86,-157.27 16,-160.78 16,-165.09"/>
<text text-anchor="middle" x="67" y="-137.71" font-family="Arial" font-size="9.00">PSU1</text>
<text text-anchor="middle" x="67" y="-127.71" font-family="Arial" font-size="9.00">12 V Netzteil</text>
<text text-anchor="middle" x="67" y="-117.71" font-family="Arial" font-size="9.00">(Konstantspannung)</text>
</g>
<!-- PSU1&#45;&gt;psu_GND -->
<g id="edge3" class="edge">
<title>PSU1&#45;&gt;psu_GND</title>
<path fill="none" stroke="#444444" stroke-width="1.8" d="M118.24,-115.02C149.74,-106.45 191.37,-96.49 229,-91.91 320.45,-80.78 429.62,-84.25 482.37,-86.97"/>
<polygon fill="#444444" stroke="#444444" stroke-width="1.8" points="482.27,-90.47 492.44,-87.52 482.65,-83.48 482.27,-90.47"/>
<text text-anchor="middle" x="137.94" y="-116.6" font-family="Arial" font-size="8.00" fill="#444444">&#45; (GND)</text>
</g>
<!-- U2 -->
<g id="node5" class="node">
<title>U2</title>
<path fill="#fce4ec" stroke="#880e4f" stroke-width="2" d="M361,-186.41C361,-186.41 241,-186.41 241,-186.41 235,-186.41 229,-180.41 229,-174.41 229,-174.41 229,-119.41 229,-119.41 229,-113.41 235,-107.41 241,-107.41 241,-107.41 361,-107.41 361,-107.41 367,-107.41 373,-113.41 373,-119.41 373,-119.41 373,-174.41 373,-174.41 373,-180.41 367,-186.41 361,-186.41"/>
<text text-anchor="middle" x="301" y="-154.71" font-family="Arial" font-size="9.00">U2: QUARKZMAN</text>
<text text-anchor="middle" x="301" y="-144.71" font-family="Arial" font-size="9.00">Step&#45;Down</text>
<text text-anchor="middle" x="301" y="-134.71" font-family="Arial" font-size="9.00">12 V → 3,3 V / 3 A</text>
</g>
<!-- PSU1&#45;&gt;U2 -->
<g id="edge1" class="edge">
<title>PSU1&#45;&gt;U2</title>
<path fill="none" stroke="#e65100" stroke-width="2.5" d="M118.05,-133.58C147.39,-135.73 185.15,-138.49 218.66,-140.95"/>
<polygon fill="#e65100" stroke="#e65100" stroke-width="2.5" points="218.68,-144.46 228.91,-141.7 219.19,-137.48 218.68,-144.46"/>
<text text-anchor="middle" x="173.5" y="-139.51" font-family="Arial" font-size="8.00">12 V</text>
<text text-anchor="middle" x="211.45" y="-130.05" font-family="Arial" font-size="8.00" fill="#e65100">VIN</text>
<text text-anchor="middle" x="135.51" y="-141.43" font-family="Arial" font-size="8.00" fill="#e65100">+ (12 V)</text>
</g>
<!-- U2&#45;&gt;psu_3V3 -->
<g id="edge2" class="edge">
<title>U2&#45;&gt;psu_3V3</title>
<path fill="none" stroke="#cc7700" stroke-width="2.5" d="M373.18,-151.27C410.09,-153.54 453.33,-156.19 482.06,-157.95"/>
<polygon fill="#cc7700" stroke="#cc7700" stroke-width="2.5" points="482.12,-161.46 492.32,-158.58 482.55,-154.47 482.12,-161.46"/>
<text text-anchor="middle" x="474.74" y="-147.13" font-family="Arial" font-size="8.00" fill="#cc7700">3,3 V</text>
<text text-anchor="middle" x="390.76" y="-158.92" font-family="Arial" font-size="8.00" fill="#cc7700">VOUT</text>
</g>
<!-- U2&#45;&gt;psu_GND -->
<g id="edge4" class="edge">
<title>U2&#45;&gt;psu_GND</title>
<path fill="none" stroke="#444444" stroke-width="1.8" d="M373.18,-127.44C410.25,-117.29 453.71,-105.4 482.44,-97.54"/>
<polygon fill="#444444" stroke="#444444" stroke-width="1.8" points="483.59,-100.86 492.32,-94.84 481.75,-94.11 483.59,-100.86"/>
<text text-anchor="middle" x="392.9" y="-128.9" font-family="Arial" font-size="8.00" fill="#444444">GND</text>
</g>
<!-- C2 -->
<g id="node10" class="node">
<title>C2</title>
<path fill="#e1bee7" stroke="#6a1b9a" stroke-width="1.6" d="M1128,-342.41C1128,-342.41 1058,-342.41 1058,-342.41 1052,-342.41 1046,-336.41 1046,-330.41 1046,-330.41 1046,-289.41 1046,-289.41 1046,-283.41 1052,-277.41 1058,-277.41 1058,-277.41 1128,-277.41 1128,-277.41 1134,-277.41 1140,-283.41 1140,-289.41 1140,-289.41 1140,-330.41 1140,-330.41 1140,-336.41 1134,-342.41 1128,-342.41"/>
<text text-anchor="middle" x="1093" y="-317.71" font-family="Arial" font-size="9.00">C2</text>
<text text-anchor="middle" x="1093" y="-307.71" font-family="Arial" font-size="9.00">47–100 µF</text>
<text text-anchor="middle" x="1093" y="-297.71" font-family="Arial" font-size="9.00">VDD&#45;Puffer</text>
</g>
<!-- tpl_VDD&#45;&gt;C2 -->
<g id="edge9" class="edge">
<title>tpl_VDD&#45;&gt;C2</title>
<path fill="none" stroke="#cc7700" stroke-width="1.8" d="M760.08,-306.15C813.95,-306.76 955.72,-308.37 1035.46,-309.27"/>
<polygon fill="#cc7700" stroke="#cc7700" stroke-width="1.8" points="1035.77,-312.77 1045.81,-309.39 1035.85,-305.77 1035.77,-312.77"/>
<text text-anchor="middle" x="1027.78" y="-298.83" font-family="Arial" font-size="8.00" fill="#cc7700">+</text>
</g>
<!-- U1 -->
<g id="node13" class="node">
<title>U1</title>
<path fill="#ce93d8" stroke="#6a1b9a" stroke-width="2" d="M987,-440.41C987,-440.41 867,-440.41 867,-440.41 861,-440.41 855,-434.41 855,-428.41 855,-428.41 855,-351.41 855,-351.41 855,-345.41 861,-339.41 867,-339.41 867,-339.41 987,-339.41 987,-339.41 993,-339.41 999,-345.41 999,-351.41 999,-351.41 999,-428.41 999,-428.41 999,-434.41 993,-440.41 987,-440.41"/>
<text text-anchor="middle" x="927" y="-402.71" font-family="Arial" font-size="9.00">U1 — TPL5110</text>
<text text-anchor="middle" x="927" y="-392.71" font-family="Arial" font-size="9.00">Power&#45;Timer IC</text>
<text text-anchor="middle" x="927" y="-382.71" font-family="Arial" font-size="9.00">DRV aktiv GND</text>
<text text-anchor="middle" x="927" y="-372.71" font-family="Arial" font-size="9.00">im Schlaf → MOSFET AUS</text>
</g>
<!-- tpl_VDD&#45;&gt;U1 -->
<g id="edge8" class="edge">
<title>tpl_VDD&#45;&gt;U1</title>
<path fill="none" stroke="#cc7700" stroke-width="2" d="M760.01,-315.55C781.02,-324.96 814.32,-339.88 845.59,-353.89"/>
<polygon fill="#cc7700" stroke="#cc7700" stroke-width="2" points="844.22,-357.11 854.78,-358 847.09,-350.72 844.22,-357.11"/>
<text text-anchor="middle" x="841.69" y="-340.98" font-family="Arial" font-size="8.00" fill="#cc7700">VDD</text>
</g>
<!-- tpl_GND&#45;&gt;gnd_vorschalt -->
<g id="edge10" class="edge">
<title>tpl_GND&#45;&gt;gnd_vorschalt</title>
<path fill="none" stroke="#444444" stroke-width="2" d="M1256.5,-459.39C1284.39,-452.24 1333.62,-439.6 1368.89,-430.55"/>
<polygon fill="#444444" stroke="#444444" stroke-width="2" points="1370.08,-433.86 1378.89,-427.98 1368.34,-427.08 1370.08,-433.86"/>
</g>
<!-- tpl_DRV -->
<g id="node8" class="node">
<title>tpl_DRV</title>
<polygon fill="#eceff1" stroke="#546e7a" stroke-width="1.6" points="1256.5,-254.91 1211.5,-254.91 1211.5,-230.91 1256.5,-230.91 1256.5,-254.91"/>
<text text-anchor="middle" x="1234" y="-245.51" font-family="Courier New" font-size="8.00">DRV</text>
<text text-anchor="middle" x="1234" y="-236.51" font-family="Courier New" font-size="8.00">(Pin 4)</text>
</g>
<!-- q1_p1 -->
<g id="node14" class="node">
<title>q1_p1</title>
<polygon fill="#eceff1" stroke="#546e7a" stroke-width="1.6" points="1433.86,-174.91 1388.86,-174.91 1388.86,-150.91 1433.86,-150.91 1433.86,-174.91"/>
<text text-anchor="middle" x="1411.36" y="-165.51" font-family="Courier New" font-size="8.00">Pin 1</text>
<text text-anchor="middle" x="1411.36" y="-156.51" font-family="Courier New" font-size="8.00">(Gate)</text>
</g>
<!-- tpl_DRV&#45;&gt;q1_p1 -->
<g id="edge20" class="edge">
<title>tpl_DRV&#45;&gt;q1_p1</title>
<path fill="none" stroke="#1565c0" stroke-width="2.5" d="M1256.5,-233.1C1287.27,-219.07 1344.01,-193.18 1379.33,-177.07"/>
<polygon fill="#1565c0" stroke="#1565c0" stroke-width="2.5" points="1381.03,-180.13 1388.68,-172.8 1378.13,-173.77 1381.03,-180.13"/>
<text text-anchor="middle" x="1368.68" y="-170.73" font-family="Arial" font-size="8.00" fill="#1565c0">Gate</text>
<text text-anchor="middle" x="1276.5" y="-231.37" font-family="Arial" font-size="8.00" fill="#1565c0">DRV out</text>
</g>
<!-- tpl_DONE -->
<g id="node9" class="node">
<title>tpl_DONE</title>
<polygon fill="#eceff1" stroke="#546e7a" stroke-width="1.6" points="760,-459.91 715,-459.91 715,-435.91 760,-435.91 760,-459.91"/>
<text text-anchor="middle" x="737.5" y="-450.51" font-family="Courier New" font-size="8.00">DONE</text>
<text text-anchor="middle" x="737.5" y="-441.51" font-family="Courier New" font-size="8.00">(Pin 5)</text>
</g>
<!-- tpl_DONE&#45;&gt;U1 -->
<g id="edge18" class="edge">
<title>tpl_DONE&#45;&gt;U1</title>
<path fill="none" stroke="#6a1b9a" stroke-width="1.8" d="M760.01,-441.26C780.93,-434.78 814.03,-424.55 845.19,-414.91"/>
<polygon fill="#6a1b9a" stroke="#6a1b9a" stroke-width="1.8" points="846.26,-418.24 854.78,-411.94 844.19,-411.55 846.26,-418.24"/>
<text text-anchor="middle" x="834.97" y="-407.32" font-family="Arial" font-size="8.00" fill="#6a1b9a">DONE (Pin 5)</text>
</g>
<!-- C2&#45;&gt;gnd_vorschalt -->
<g id="edge12" class="edge">
<title>C2&#45;&gt;gnd_vorschalt</title>
<path fill="none" stroke="#444444" stroke-width="1.5" d="M1140.2,-299.57C1179.06,-293.03 1235.43,-288.7 1281,-305.91 1330.53,-324.62 1373.36,-371.89 1395.11,-399.33"/>
<polygon fill="#444444" stroke="#444444" stroke-width="1.5" points="1392.53,-401.71 1401.41,-407.48 1398.06,-397.42 1392.53,-401.71"/>
<text text-anchor="middle" x="1159.4" y="-303.26" font-family="Arial" font-size="8.00" fill="#444444">&#45;</text>
</g>
<!-- R1 -->
<g id="node11" class="node">
<title>R1</title>
<path fill="#e1bee7" stroke="#6a1b9a" stroke-width="1.6" d="M1269,-386.41C1269,-386.41 1199,-386.41 1199,-386.41 1193,-386.41 1187,-380.41 1187,-374.41 1187,-374.41 1187,-333.41 1187,-333.41 1187,-327.41 1193,-321.41 1199,-321.41 1199,-321.41 1269,-321.41 1269,-321.41 1275,-321.41 1281,-327.41 1281,-333.41 1281,-333.41 1281,-374.41 1281,-374.41 1281,-380.41 1275,-386.41 1269,-386.41"/>
<text text-anchor="middle" x="1234" y="-361.71" font-family="Arial" font-size="9.00">R1 &#160;47 kΩ</text>
<text text-anchor="middle" x="1234" y="-351.71" font-family="Arial" font-size="9.00">DELAY → GND</text>
<text text-anchor="middle" x="1234" y="-341.71" font-family="Arial" font-size="9.00">(6,5 min)</text>
</g>
<!-- R1&#45;&gt;gnd_vorschalt -->
<g id="edge13" class="edge">
<title>R1&#45;&gt;gnd_vorschalt</title>
<path fill="none" stroke="#444444" stroke-width="1.5" d="M1281.07,-371.25C1314.18,-383.71 1357.6,-400.06 1384.74,-410.27"/>
<polygon fill="#444444" stroke="#444444" stroke-width="1.5" points="1383.7,-413.62 1394.29,-413.86 1386.16,-407.06 1383.7,-413.62"/>
<text text-anchor="middle" x="1295.06" y="-383.65" font-family="Arial" font-size="8.00" fill="#444444">Pin 2</text>
</g>
<!-- R2 -->
<g id="node12" class="node">
<title>R2</title>
<path fill="#e1bee7" stroke="#6a1b9a" stroke-width="1.6" d="M550,-501.91C550,-501.91 480,-501.91 480,-501.91 474,-501.91 468,-495.91 468,-489.91 468,-489.91 468,-455.91 468,-455.91 468,-449.91 474,-443.91 480,-443.91 480,-443.91 550,-443.91 550,-443.91 556,-443.91 562,-449.91 562,-455.91 562,-455.91 562,-489.91 562,-489.91 562,-495.91 556,-501.91 550,-501.91"/>
<text text-anchor="middle" x="515" y="-475.71" font-family="Arial" font-size="9.00">R2 &#160;10 kΩ</text>
<text text-anchor="middle" x="515" y="-465.71" font-family="Arial" font-size="9.00">DONE Pull&#45;down</text>
</g>
<!-- R2&#45;&gt;gnd_vorschalt -->
<g id="edge14" class="edge">
<title>R2&#45;&gt;gnd_vorschalt</title>
<path fill="none" stroke="#444444" stroke-width="1.5" d="M562.08,-485.23C606.43,-495.99 675.56,-509.91 736.5,-509.91 736.5,-509.91 736.5,-509.91 1235,-509.91 1297.56,-509.91 1360.19,-464.01 1390.89,-437.77"/>
<polygon fill="#444444" stroke="#444444" stroke-width="1.5" points="1393.47,-440.17 1398.68,-430.95 1388.85,-434.91 1393.47,-440.17"/>
<text text-anchor="middle" x="577.78" y="-495.72" font-family="Arial" font-size="8.00" fill="#444444">Pin 2</text>
</g>
<!-- R2&#45;&gt;tpl_DONE -->
<g id="edge17" class="edge">
<title>R2&#45;&gt;tpl_DONE</title>
<path fill="none" stroke="#6a1b9a" stroke-width="1.5" d="M562.22,-467.67C604.87,-462.83 667.06,-455.78 704.48,-451.54"/>
<polygon fill="#6a1b9a" stroke="#6a1b9a" stroke-width="1.5" points="705.25,-454.98 714.79,-450.37 704.46,-448.02 705.25,-454.98"/>
<text text-anchor="middle" x="638.5" y="-463.51" font-family="Arial" font-size="8.00">10 kΩ Pull&#45;down</text>
<text text-anchor="middle" x="581.19" y="-472.13" font-family="Arial" font-size="8.00" fill="#6a1b9a">Pin 1</text>
</g>
<!-- U1&#45;&gt;gnd_vorschalt -->
<g id="edge11" class="edge">
<title>U1&#45;&gt;gnd_vorschalt</title>
<path fill="none" stroke="#444444" stroke-width="1.8" d="M999.17,-394.34C1105.58,-400.95 1301.81,-413.16 1378.48,-417.93"/>
<polygon fill="#444444" stroke="#444444" stroke-width="1.8" points="1378.7,-421.45 1388.9,-418.58 1379.14,-414.46 1378.7,-421.45"/>
<text text-anchor="middle" x="1016.74" y="-402" font-family="Arial" font-size="8.00" fill="#444444">GND</text>
</g>
<!-- U1&#45;&gt;tpl_DRV -->
<g id="edge19" class="edge">
<title>U1&#45;&gt;tpl_DRV</title>
<path fill="none" stroke="#1565c0" stroke-width="2.5" d="M961.78,-339.17C982.67,-312.12 1011.98,-280.98 1046,-263.91 1095.91,-238.87 1162.54,-237.91 1201.31,-240.03"/>
<polygon fill="#1565c0" stroke="#1565c0" stroke-width="2.5" points="1201.26,-243.53 1211.47,-240.69 1201.72,-236.55 1201.26,-243.53"/>
<text text-anchor="middle" x="1093" y="-266.51" font-family="Arial" font-size="8.00">TPL_DRV</text>
<text text-anchor="middle" x="979.66" y="-328.32" font-family="Arial" font-size="8.00" fill="#1565c0">DRV (Pin 4)</text>
</g>
<!-- U1&#45;&gt;R1 -->
<g id="edge16" class="edge">
<title>U1&#45;&gt;R1</title>
<path fill="none" stroke="#6a1b9a" stroke-width="1.8" d="M999.12,-381.51C1053.3,-375.12 1126.86,-366.44 1176.92,-360.53"/>
<polygon fill="#6a1b9a" stroke="#6a1b9a" stroke-width="1.8" points="1177.4,-364 1186.92,-359.35 1176.58,-357.05 1177.4,-364"/>
<text text-anchor="middle" x="1093" y="-377.51" font-family="Arial" font-size="8.00">TPL_DELAY (intern)</text>
<text text-anchor="middle" x="1167.93" y="-351.18" font-family="Arial" font-size="8.00" fill="#6a1b9a">Pin 1</text>
<text text-anchor="middle" x="1018.12" y="-385.88" font-family="Arial" font-size="8.00" fill="#6a1b9a">DELAY</text>
</g>
<!-- Q1 -->
<g id="node17" class="node">
<title>Q1</title>
<path fill="#bbdefb" stroke="#1565c0" stroke-width="2" d="M1651.71,-173.91C1651.71,-173.91 1553.71,-173.91 1553.71,-173.91 1547.71,-173.91 1541.71,-167.91 1541.71,-161.91 1541.71,-161.91 1541.71,-113.91 1541.71,-113.91 1541.71,-107.91 1547.71,-101.91 1553.71,-101.91 1553.71,-101.91 1651.71,-101.91 1651.71,-101.91 1657.71,-101.91 1663.71,-107.91 1663.71,-113.91 1663.71,-113.91 1663.71,-161.91 1663.71,-161.91 1663.71,-167.91 1657.71,-173.91 1651.71,-173.91"/>
<text text-anchor="middle" x="1602.71" y="-145.71" font-family="Arial" font-size="9.00">Q1 — AO3400</text>
<text text-anchor="middle" x="1602.71" y="-135.71" font-family="Arial" font-size="9.00">N&#45;Kanal MOSFET</text>
<text text-anchor="middle" x="1602.71" y="-125.71" font-family="Arial" font-size="9.00">(SOT&#45;23)</text>
</g>
<!-- q1_p1&#45;&gt;Q1 -->
<g id="edge21" class="edge">
<title>q1_p1&#45;&gt;Q1</title>
<path fill="none" stroke="#1565c0" stroke-width="2" d="M1434.08,-160.04C1457.77,-156.91 1496.94,-151.74 1531.45,-147.19"/>
<polygon fill="#1565c0" stroke="#1565c0" stroke-width="2" points="1532.07,-150.64 1541.52,-145.86 1531.15,-143.7 1532.07,-150.64"/>
<text text-anchor="middle" x="1522.44" y="-137.95" font-family="Arial" font-size="8.00" fill="#1565c0">Gate</text>
</g>
<!-- q1_p2&#45;&gt;Q1 -->
<g id="edge22" class="edge">
<title>q1_p2&#45;&gt;Q1</title>
<path fill="none" stroke="#444444" stroke-width="2" d="M1434.08,-110.47C1457.77,-114.35 1496.94,-120.76 1531.45,-126.41"/>
<polygon fill="#444444" stroke="#444444" stroke-width="2" points="1531.09,-129.89 1541.52,-128.06 1532.22,-122.99 1531.09,-129.89"/>
<text text-anchor="middle" x="1525" y="-114.89" font-family="Arial" font-size="8.00" fill="#444444">Source</text>
</g>
<!-- q1_p3 -->
<g id="node16" class="node">
<title>q1_p3</title>
<polygon fill="#eceff1" stroke="#546e7a" stroke-width="1.6" points="1803.71,-149.91 1758.71,-149.91 1758.71,-125.91 1803.71,-125.91 1803.71,-149.91"/>
<text text-anchor="middle" x="1781.21" y="-140.51" font-family="Courier New" font-size="8.00">Pin 3</text>
<text text-anchor="middle" x="1781.21" y="-131.51" font-family="Courier New" font-size="8.00">(Drain)</text>
</g>
<!-- cam_GND -->
<g id="node19" class="node">
<title>cam_GND</title>
<polygon fill="#eceff1" stroke="#546e7a" stroke-width="1.6" points="1961.71,-149.91 1898.71,-149.91 1898.71,-125.91 1961.71,-125.91 1961.71,-149.91"/>
<text text-anchor="middle" x="1930.21" y="-140.51" font-family="Courier New" font-size="8.00">GND</text>
<text text-anchor="middle" x="1930.21" y="-131.51" font-family="Courier New" font-size="8.00">(geschaltet)</text>
</g>
<!-- q1_p3&#45;&gt;cam_GND -->
<g id="edge24" class="edge">
<title>q1_p3&#45;&gt;cam_GND</title>
<path fill="none" stroke="#444444" stroke-width="2.5" d="M1803.9,-137.91C1826.07,-137.91 1861.02,-137.91 1888.39,-137.91"/>
<polygon fill="#444444" stroke="#444444" stroke-width="2.5" points="1888.46,-141.41 1898.46,-137.91 1888.46,-134.41 1888.46,-141.41"/>
<text text-anchor="middle" x="1880.34" y="-127.56" font-family="Arial" font-size="8.00" fill="#444444">GND</text>
<text text-anchor="middle" x="1822.03" y="-144.46" font-family="Arial" font-size="8.00" fill="#444444">Drain out</text>
</g>
<!-- Q1&#45;&gt;q1_p3 -->
<g id="edge23" class="edge">
<title>Q1&#45;&gt;q1_p3</title>
<path fill="none" stroke="#444444" stroke-width="2" d="M1663.96,-137.91C1692.36,-137.91 1725.09,-137.91 1748.56,-137.91"/>
<polygon fill="#444444" stroke="#444444" stroke-width="2" points="1748.65,-141.41 1758.65,-137.91 1748.65,-134.41 1748.65,-141.41"/>
<text text-anchor="middle" x="1682.08" y="-144.46" font-family="Arial" font-size="8.00" fill="#444444">Drain</text>
</g>
<!-- M1 -->
<g id="node21" class="node">
<title>M1</title>
<path fill="#a5d6a7" stroke="#2e7d32" stroke-width="2" d="M2202.71,-162.41C2202.71,-162.41 2068.71,-162.41 2068.71,-162.41 2062.71,-162.41 2056.71,-156.41 2056.71,-150.41 2056.71,-150.41 2056.71,-95.41 2056.71,-95.41 2056.71,-89.41 2062.71,-83.41 2068.71,-83.41 2068.71,-83.41 2202.71,-83.41 2202.71,-83.41 2208.71,-83.41 2214.71,-89.41 2214.71,-95.41 2214.71,-95.41 2214.71,-150.41 2214.71,-150.41 2214.71,-156.41 2208.71,-162.41 2202.71,-162.41"/>
<text text-anchor="middle" x="2135.71" y="-130.71" font-family="Arial" font-size="9.00">M1 — ESP32&#45;CAM</text>
<text text-anchor="middle" x="2135.71" y="-120.71" font-family="Arial" font-size="9.00">(AI&#45;Thinker / OV2640)</text>
<text text-anchor="middle" x="2135.71" y="-110.71" font-family="Arial" font-size="9.00">Blitz&#45;LED GPIO 4</text>
</g>
<!-- cam_3V3&#45;&gt;M1 -->
<g id="edge25" class="edge">
<title>cam_3V3&#45;&gt;M1</title>
<path fill="none" stroke="#cc7700" stroke-width="2" d="M1952.99,-207.74C1975.67,-197.15 2012.68,-179.88 2047.4,-163.67"/>
<polygon fill="#cc7700" stroke="#cc7700" stroke-width="2" points="2049.06,-166.76 2056.64,-159.35 2046.1,-160.41 2049.06,-166.76"/>
<text text-anchor="middle" x="2036.64" y="-157.46" font-family="Arial" font-size="8.00" fill="#cc7700">3,3 V</text>
</g>
<!-- C1 -->
<g id="node22" class="node">
<title>C1</title>
<path fill="#c8e6c9" stroke="#2e7d32" stroke-width="1.6" d="M2170.71,-259.41C2170.71,-259.41 2100.71,-259.41 2100.71,-259.41 2094.71,-259.41 2088.71,-253.41 2088.71,-247.41 2088.71,-247.41 2088.71,-206.41 2088.71,-206.41 2088.71,-200.41 2094.71,-194.41 2100.71,-194.41 2100.71,-194.41 2170.71,-194.41 2170.71,-194.41 2176.71,-194.41 2182.71,-200.41 2182.71,-206.41 2182.71,-206.41 2182.71,-247.41 2182.71,-247.41 2182.71,-253.41 2176.71,-259.41 2170.71,-259.41"/>
<text text-anchor="middle" x="2135.71" y="-234.71" font-family="Arial" font-size="9.00">C1</text>
<text text-anchor="middle" x="2135.71" y="-224.71" font-family="Arial" font-size="9.00">470 µF / 6,3 V</text>
<text text-anchor="middle" x="2135.71" y="-214.71" font-family="Arial" font-size="9.00">Elko (Low&#45;ESR)</text>
</g>
<!-- cam_3V3&#45;&gt;C1 -->
<g id="edge26" class="edge">
<title>cam_3V3&#45;&gt;C1</title>
<path fill="none" stroke="#cc7700" stroke-width="1.6" d="M1952.99,-218.87C1982.73,-220.19 2037.1,-222.59 2078.65,-224.43"/>
<polygon fill="#cc7700" stroke="#cc7700" stroke-width="1.6" points="2078.5,-227.93 2088.64,-224.87 2078.81,-220.93 2078.5,-227.93"/>
<text text-anchor="middle" x="2070.91" y="-213.73" font-family="Arial" font-size="8.00" fill="#cc7700">+</text>
</g>
<!-- cam_GND&#45;&gt;M1 -->
<g id="edge27" class="edge">
<title>cam_GND&#45;&gt;M1</title>
<path fill="none" stroke="#444444" stroke-width="2" d="M1962.12,-135.63C1984.59,-133.97 2016.23,-131.64 2046.28,-129.43"/>
<polygon fill="#444444" stroke="#444444" stroke-width="2" points="2046.68,-132.91 2056.4,-128.68 2046.17,-125.93 2046.68,-132.91"/>
<text text-anchor="middle" x="2037.7" y="-119.69" font-family="Arial" font-size="8.00" fill="#444444">GND</text>
</g>
<!-- cam_GND&#45;&gt;C1 -->
<g id="edge28" class="edge">
<title>cam_GND&#45;&gt;C1</title>
<path fill="none" stroke="#444444" stroke-width="1.6" d="M1958.66,-149.91C1989.49,-163.4 2040.34,-185.64 2079.49,-202.76"/>
<polygon fill="#444444" stroke="#444444" stroke-width="1.6" points="2078.09,-205.97 2088.66,-206.77 2080.9,-199.56 2078.09,-205.97"/>
<text text-anchor="middle" x="2075.44" y="-189.86" font-family="Arial" font-size="8.00" fill="#444444">&#45;</text>
</g>
<!-- cam_DONE -->
<g id="node20" class="node">
<title>cam_DONE</title>
<polygon fill="#eceff1" stroke="#546e7a" stroke-width="1.6" points="2354.71,-134.91 2309.71,-134.91 2309.71,-110.91 2354.71,-110.91 2354.71,-134.91"/>
<text text-anchor="middle" x="2332.21" y="-125.51" font-family="Courier New" font-size="8.00">GPIO 13</text>
<text text-anchor="middle" x="2332.21" y="-116.51" font-family="Courier New" font-size="8.00">(DONE)</text>
</g>
<!-- cam_DONE&#45;&gt;tpl_DONE -->
<g id="edge30" class="edge">
<title>cam_DONE&#45;&gt;tpl_DONE</title>
<path fill="none" stroke="#2e7d32" stroke-width="2" stroke-dasharray="5,2" d="M2312.37,-110.79C2290.09,-97.25 2251.38,-76.13 2214.71,-67.91 2146.19,-52.55 2126.93,-67.77 2056.71,-67.91 1711.72,-68.58 1469.29,-55.66 1376,-78.91 1311.72,-94.93 911.58,-282.42 855,-323.91 813.48,-354.35 774.49,-400.82 753.84,-427.38"/>
<polygon fill="#2e7d32" stroke="#2e7d32" stroke-width="2" points="750.86,-425.51 747.56,-435.58 756.42,-429.77 750.86,-425.51"/>
<text text-anchor="middle" x="1602.71" y="-67.51" font-family="Arial" font-size="8.00">MCU_DONE</text>
<text text-anchor="middle" x="765.29" y="-424.43" font-family="Arial" font-size="8.00" fill="#2e7d32">DONE</text>
</g>
<!-- M1&#45;&gt;cam_DONE -->
<g id="edge29" class="edge">
<title>M1&#45;&gt;cam_DONE</title>
<path fill="none" stroke="#2e7d32" stroke-width="2" d="M2214.98,-122.91C2244.51,-122.91 2276.46,-122.91 2299.38,-122.91"/>
<polygon fill="#2e7d32" stroke="#2e7d32" stroke-width="2" points="2299.54,-126.41 2309.54,-122.91 2299.54,-119.41 2299.54,-126.41"/>
<text text-anchor="middle" x="2233.11" y="-129.46" font-family="Arial" font-size="8.00" fill="#2e7d32">GPIO 13</text>
</g>
</g>
</svg>
