<?xml version="1.0" encoding="UTF-8" standalone="no"?>
<!DOCTYPE svg PUBLIC "-//W3C//DTD SVG 1.1//EN"
 "http://www.w3.org/Graphics/SVG/1.1/DTD/svg11.dtd">
<!-- Generated by graphviz version 2.43.0 (0)
 -->
<!-- Title: WlanTimerCamera Pages: 1 -->
<svg width="2198pt" height="1173pt"
 viewBox="0.00 0.00 2198.10 1172.94" xmlns="http://www.w3.org/2000/svg" xmlns:xlink="http://www.w3.org/1999/xlink">
<g id="graph0" class="graph" transform="scale(1 1) rotate(0) translate(57.6 1115.34)">
<title>WlanTimerCamera</title>
<polygon fill="white" stroke="transparent" points="-57.6,57.6 -57.6,-1115.34 2140.5,-1115.34 2140.5,57.6 -57.6,57.6"/>
<text text-anchor="middle" x="1041.45" y="-1042.54" font-family="Arial" font-size="14.00">WLAN Timer Camera — Schaltplan</text>
<text text-anchor="middle" x="1041.45" y="-1027.54" font-family="Arial" font-size="14.00">TPL5110 Power&#45;Timer · AO3400 N&#45;Kanal Low&#45;Side&#45;Switch · ESP32&#45;CAM</text>
<g id="clust1" class="cluster">
<title>cluster_source</title>
<polygon fill="#fff8e1" stroke="#e65100" stroke-width="2" points="8,-813.74 8,-951.74 419.35,-951.74 419.35,-813.74 8,-813.74"/>
<text text-anchor="middle" x="213.68" y="-938.94" font-family="Arial" font-size="11.00">Energiequelle</text>
</g>
<g id="clust2" class="cluster">
<title>cluster_pre</title>
<polygon fill="#fce4ec" stroke="#880e4f" stroke-width="2" points="617.99,-550.74 617.99,-1011.74 1568.3,-1011.74 1568.3,-550.74 617.99,-550.74"/>
<text text-anchor="middle" x="1093.15" y="-998.94" font-family="Arial" font-size="11.00">Vorschaltplatine</text>
<text text-anchor="middle" x="1093.15" y="-986.94" font-family="Arial" font-size="11.00">(Streifenrasterplatine)</text>
</g>
<g id="clust3" class="cluster">
<title>cluster_switch</title>
<polygon fill="#e3f2fd" stroke="#1565c0" stroke-width="2" points="985.99,-268.74 985.99,-390.74 1568.3,-390.74 1568.3,-268.74 985.99,-268.74"/>
<text text-anchor="middle" x="1277.15" y="-377.94" font-family="Arial" font-size="11.00">Schaltstufe (N&#45;Kanal, Low&#45;Side)</text>
</g>
<g id="clust4" class="cluster">
<title>cluster_mcu</title>
<polygon fill="#e8f5e9" stroke="#2e7d32" stroke-width="2" points="1789.9,-238.74 1789.9,-519.74 2074.9,-519.74 2074.9,-238.74 1789.9,-238.74"/>
<text text-anchor="middle" x="1932.4" y="-506.94" font-family="Arial" font-size="11.00">Recheneinheit &amp; Kamera</text>
</g>
<!-- gnd_src -->
<g id="node1" class="node">
<title>gnd_src</title>
<polygon fill="#444444" stroke="black" points="375.99,-861.31 411.21,-893.46 340.78,-893.46 375.99,-861.31"/>
<text text-anchor="middle" x="375.99" y="-880.84" font-family="Arial" font-size="8.00" fill="white">GND</text>
</g>
<!-- gnd_pre -->
<g id="node2" class="node">
<title>gnd_pre</title>
<polygon fill="#444444" stroke="black" points="1524.95,-708.31 1560.16,-740.46 1489.73,-740.46 1524.95,-708.31"/>
<text text-anchor="middle" x="1524.95" y="-727.84" font-family="Arial" font-size="8.00" fill="white">GND</text>
</g>
<!-- gnd_src&#45;&gt;gnd_pre -->
<g id="edge19" class="edge">
<title>gnd_src&#45;&gt;gnd_pre</title>
<path fill="none" stroke="#444444" stroke-width="1.2" stroke-dasharray="5,2" d="M402.16,-885.14C485.77,-891.67 757.86,-901.34 914.99,-769.74 979.65,-715.59 916.08,-640.93 985.99,-593.74 1160.17,-476.19 1428.1,-657.71 1503.55,-713.98"/>
<polygon fill="#444444" stroke="#444444" stroke-width="1.2" points="1501.69,-716.96 1511.78,-720.19 1505.91,-711.37 1501.69,-716.96"/>
<text text-anchor="middle" x="888.99" y="-808.54" font-family="Arial" font-size="9.00">GND&#45;Netz</text>
</g>
<!-- gnd_mosfet -->
<g id="node3" class="node">
<title>gnd_mosfet</title>
<polygon fill="#444444" stroke="black" points="1524.95,-294.31 1560.16,-326.46 1489.73,-326.46 1524.95,-294.31"/>
<text text-anchor="middle" x="1524.95" y="-313.84" font-family="Arial" font-size="8.00" fill="white">GND</text>
</g>
<!-- gnd_pre&#45;&gt;gnd_mosfet -->
<g id="edge20" class="edge">
<title>gnd_pre&#45;&gt;gnd_mosfet</title>
<path fill="none" stroke="#444444" stroke-width="1.2" stroke-dasharray="5,2" d="M1510.66,-721.11C1449.87,-683.28 1219.6,-528.41 1305.49,-402.24 1347.12,-341.09 1439.28,-323.17 1489.92,-317.92"/>
<polygon fill="#444444" stroke="#444444" stroke-width="1.2" points="1490.43,-321.39 1500.06,-316.98 1489.78,-314.42 1490.43,-321.39"/>
</g>
<!-- VCC_BATT -->
<g id="node4" class="node">
<title>VCC_BATT</title>
<path fill="#fff3cd" stroke="#cc7700" stroke-width="2.8" d="M364.84,-792.33C364.84,-792.33 296.16,-765.16 296.16,-765.16 290.58,-762.95 290.58,-758.54 296.16,-756.33 296.16,-756.33 364.84,-729.16 364.84,-729.16 370.42,-726.95 381.57,-726.95 387.15,-729.16 387.15,-729.16 455.83,-756.33 455.83,-756.33 461.41,-758.54 461.41,-762.95 455.83,-765.16 455.83,-765.16 387.15,-792.33 387.15,-792.33 381.57,-794.54 370.42,-794.54 364.84,-792.33"/>
<text text-anchor="middle" x="375.99" y="-763.74" font-family="Arial" font-size="10.00">VCC_BATT</text>
<text text-anchor="middle" x="375.99" y="-752.74" font-family="Arial" font-size="10.00">(3.6 V, Dauerplus)</text>
</g>
<!-- C2 -->
<g id="node7" class="node">
<title>C2</title>
<path fill="#fce4ec" stroke="#880e4f" d="M1131.99,-971.74C1131.99,-971.74 1061.99,-971.74 1061.99,-971.74 1055.99,-971.74 1049.99,-965.74 1049.99,-959.74 1049.99,-959.74 1049.99,-911.74 1049.99,-911.74 1049.99,-905.74 1055.99,-899.74 1061.99,-899.74 1061.99,-899.74 1131.99,-899.74 1131.99,-899.74 1137.99,-899.74 1143.99,-905.74 1143.99,-911.74 1143.99,-911.74 1143.99,-959.74 1143.99,-959.74 1143.99,-965.74 1137.99,-971.74 1131.99,-971.74"/>
<text text-anchor="middle" x="1096.99" y="-949.74" font-family="Arial" font-size="10.00">C2</text>
<text text-anchor="middle" x="1096.99" y="-938.74" font-family="Arial" font-size="10.00">4700 µF</text>
<text text-anchor="middle" x="1096.99" y="-927.74" font-family="Arial" font-size="10.00">Puffer</text>
<text text-anchor="middle" x="1096.99" y="-916.74" font-family="Arial" font-size="10.00">(VCC ‖ GND)</text>
</g>
<!-- VCC_BATT&#45;&gt;C2 -->
<g id="edge3" class="edge">
<title>VCC_BATT&#45;&gt;C2</title>
<path fill="none" stroke="#cc7700" stroke-width="2" d="M441.47,-770.85C543.16,-787.49 746.54,-823.54 914.99,-870.74 957.6,-882.68 1004.61,-899.68 1040.03,-913.3"/>
<polygon fill="#cc7700" stroke="#cc7700" stroke-width="2" points="1039.12,-916.7 1049.71,-917.05 1041.64,-910.17 1039.12,-916.7"/>
<text text-anchor="middle" x="1033.08" y="-897.54" font-family="Arial" font-size="9.00" fill="#cc7700">+</text>
</g>
<!-- U1 -->
<g id="node8" class="node">
<title>U1</title>
<path fill="#fce4ec" stroke="#880e4f" stroke-width="2" d="M771.99,-712.24C771.99,-712.24 637.99,-712.24 637.99,-712.24 631.99,-712.24 625.99,-706.24 625.99,-700.24 625.99,-700.24 625.99,-623.24 625.99,-623.24 625.99,-617.24 631.99,-611.24 637.99,-611.24 637.99,-611.24 771.99,-611.24 771.99,-611.24 777.99,-611.24 783.99,-617.24 783.99,-623.24 783.99,-623.24 783.99,-700.24 783.99,-700.24 783.99,-706.24 777.99,-712.24 771.99,-712.24"/>
<text text-anchor="middle" x="704.99" y="-675.74" font-family="Arial" font-size="10.00">U1 — TPL5110</text>
<text text-anchor="middle" x="704.99" y="-664.74" font-family="Arial" font-size="10.00">Power&#45;Timer IC</text>
<text text-anchor="middle" x="704.99" y="-653.74" font-family="Arial" font-size="10.00">VDD | GND | DRV (Pin4)</text>
<text text-anchor="middle" x="704.99" y="-642.74" font-family="Arial" font-size="10.00">DELAY | DONE (Pin5)</text>
</g>
<!-- VCC_BATT&#45;&gt;U1 -->
<g id="edge4" class="edge">
<title>VCC_BATT&#45;&gt;U1</title>
<path fill="none" stroke="#cc7700" stroke-width="2.5" d="M428.09,-745.27C478.28,-730.08 555.87,-706.59 616,-688.38"/>
<polygon fill="#cc7700" stroke="#cc7700" stroke-width="2.5" points="617.32,-691.64 625.87,-685.39 615.29,-684.94 617.32,-691.64"/>
<text text-anchor="middle" x="602.12" y="-679.79" font-family="Arial" font-size="9.00" fill="#cc7700">VDD</text>
</g>
<!-- M1 -->
<g id="node12" class="node">
<title>M1</title>
<path fill="#e8f5e9" stroke="#2e7d32" stroke-width="2" d="M2054.9,-491.74C2054.9,-491.74 1809.9,-491.74 1809.9,-491.74 1803.9,-491.74 1797.9,-485.74 1797.9,-479.74 1797.9,-479.74 1797.9,-395.74 1797.9,-395.74 1797.9,-389.74 1803.9,-383.74 1809.9,-383.74 1809.9,-383.74 2054.9,-383.74 2054.9,-383.74 2060.9,-383.74 2066.9,-389.74 2066.9,-395.74 2066.9,-395.74 2066.9,-479.74 2066.9,-479.74 2066.9,-485.74 2060.9,-491.74 2054.9,-491.74"/>
<text text-anchor="middle" x="1932.4" y="-446.24" font-family="Arial" font-size="10.00">M1 — ESP32&#45;CAM (AI&#45;Thinker)</text>
<text text-anchor="middle" x="1932.4" y="-435.24" font-family="Arial" font-size="10.00">OV2640 · Flash&#45;LED GPIO4</text>
<text text-anchor="middle" x="1932.4" y="-424.24" font-family="Arial" font-size="10.00">3.3V (Dauerpuls) | GND (geschaltet) | GPIO13 (DONE)</text>
</g>
<!-- VCC_BATT&#45;&gt;M1 -->
<g id="edge5" class="edge">
<title>VCC_BATT&#45;&gt;M1</title>
<path fill="none" stroke="#cc7700" stroke-width="2.5" d="M394.39,-731.77C457.83,-629.3 688.69,-283.35 985.99,-156.74 1253.02,-43.03 1380.32,-36.95 1638.9,-168.74 1732.85,-216.63 1710.18,-282.73 1789.9,-351.74 1800.5,-360.91 1812.19,-369.71 1824.18,-377.95"/>
<polygon fill="#cc7700" stroke="#cc7700" stroke-width="2.5" points="1822.26,-380.87 1832.51,-383.55 1826.17,-375.07 1822.26,-380.87"/>
<text text-anchor="middle" x="1820.12" y="-360.8" font-family="Arial" font-size="9.00" fill="#cc7700">3.3V (Dauerpuls)</text>
</g>
<!-- C1 -->
<g id="node13" class="node">
<title>C1</title>
<path fill="#e8f5e9" stroke="#2e7d32" d="M1979.9,-318.74C1979.9,-318.74 1884.9,-318.74 1884.9,-318.74 1878.9,-318.74 1872.9,-312.74 1872.9,-306.74 1872.9,-306.74 1872.9,-258.74 1872.9,-258.74 1872.9,-252.74 1878.9,-246.74 1884.9,-246.74 1884.9,-246.74 1979.9,-246.74 1979.9,-246.74 1985.9,-246.74 1991.9,-252.74 1991.9,-258.74 1991.9,-258.74 1991.9,-306.74 1991.9,-306.74 1991.9,-312.74 1985.9,-318.74 1979.9,-318.74"/>
<text text-anchor="middle" x="1932.4" y="-296.74" font-family="Arial" font-size="10.00">C1</text>
<text text-anchor="middle" x="1932.4" y="-285.74" font-family="Arial" font-size="10.00">470 µF / 6.3 V</text>
<text text-anchor="middle" x="1932.4" y="-274.74" font-family="Arial" font-size="10.00">Elko (Low&#45;ESR)</text>
<text text-anchor="middle" x="1932.4" y="-263.74" font-family="Arial" font-size="10.00">(parallel zur Kamera)</text>
</g>
<!-- VCC_BATT&#45;&gt;C1 -->
<g id="edge6" class="edge">
<title>VCC_BATT&#45;&gt;C1</title>
<path fill="none" stroke="#cc7700" stroke-width="1.8" d="M385.19,-728.28C408.25,-642.64 481.12,-407.39 617.99,-264.74 746.58,-130.73 806.94,-116.1 985.99,-66.74 1265.74,10.37 1365.15,31.53 1638.9,-64.74 1741.62,-100.86 1838.28,-186.78 1890.71,-239.33"/>
<polygon fill="#cc7700" stroke="#cc7700" stroke-width="1.8" points="1888.29,-241.86 1897.81,-246.51 1893.27,-236.94 1888.29,-241.86"/>
<text text-anchor="middle" x="1889.73" y="-221.71" font-family="Arial" font-size="9.00" fill="#cc7700">+ (Elko)</text>
</g>
<!-- GND_SW -->
<g id="node5" class="node">
<title>GND_SW</title>
<path fill="#e3f2fd" stroke="#1565c0" stroke-width="2.8" d="M1513.5,-470.13C1513.5,-470.13 1422.48,-441.36 1422.48,-441.36 1416.75,-439.55 1416.75,-435.93 1422.48,-434.13 1422.48,-434.13 1513.5,-405.36 1513.5,-405.36 1519.23,-403.55 1530.67,-403.55 1536.39,-405.36 1536.39,-405.36 1627.42,-434.13 1627.42,-434.13 1633.14,-435.93 1633.14,-439.55 1627.42,-441.36 1627.42,-441.36 1536.39,-470.13 1536.39,-470.13 1530.67,-471.93 1519.23,-471.93 1513.5,-470.13"/>
<text text-anchor="middle" x="1524.95" y="-440.74" font-family="Arial" font-size="10.00">GND_SWITCHED</text>
<text text-anchor="middle" x="1524.95" y="-429.74" font-family="Arial" font-size="10.00">(Q1 Drain — geschaltet)</text>
</g>
<!-- GND_SW&#45;&gt;M1 -->
<g id="edge16" class="edge">
<title>GND_SW&#45;&gt;M1</title>
<path fill="none" stroke="#1565c0" stroke-width="2.5" d="M1638.89,-437.74C1685.03,-437.74 1738.96,-437.74 1787.85,-437.74"/>
<polygon fill="#1565c0" stroke="#1565c0" stroke-width="2.5" points="1787.88,-441.24 1797.88,-437.74 1787.88,-434.24 1787.88,-441.24"/>
<text text-anchor="middle" x="1776.12" y="-425.4" font-family="Arial" font-size="9.00" fill="#1565c0">GND</text>
</g>
<!-- GND_SW&#45;&gt;C1 -->
<g id="edge15" class="edge">
<title>GND_SW&#45;&gt;C1</title>
<path fill="none" stroke="#1565c0" stroke-width="1.8" d="M1580.09,-418.99C1598.77,-412.41 1619.8,-404.88 1638.9,-397.74 1716.13,-368.9 1804.09,-334.04 1863.21,-310.32"/>
<polygon fill="#1565c0" stroke="#1565c0" stroke-width="1.8" points="1864.83,-313.44 1872.8,-306.46 1862.22,-306.94 1864.83,-313.44"/>
<text text-anchor="middle" x="1848.84" y="-302.96" font-family="Arial" font-size="9.00" fill="#1565c0">&#45; (Elko)</text>
</g>
<!-- BAT1 -->
<g id="node6" class="node">
<title>BAT1</title>
<path fill="#fff8e1" stroke="#e65100" stroke-width="2" d="M126,-914.06C126,-919.13 101.35,-923.24 71,-923.24 40.65,-923.24 16,-919.13 16,-914.06 16,-914.06 16,-831.42 16,-831.42 16,-826.36 40.65,-822.24 71,-822.24 101.35,-822.24 126,-826.36 126,-831.42 126,-831.42 126,-914.06 126,-914.06"/>
<path fill="none" stroke="#e65100" stroke-width="2" d="M126,-914.06C126,-908.99 101.35,-904.88 71,-904.88 40.65,-904.88 16,-908.99 16,-914.06"/>
<text text-anchor="middle" x="71" y="-881.24" font-family="Arial" font-size="10.00">BAT1</text>
<text text-anchor="middle" x="71" y="-870.24" font-family="Arial" font-size="10.00">ER26500 Li&#45;SOCl₂</text>
<text text-anchor="middle" x="71" y="-859.24" font-family="Arial" font-size="10.00">3.6 V / 8500 mAh</text>
</g>
<!-- BAT1&#45;&gt;gnd_src -->
<g id="edge2" class="edge">
<title>BAT1&#45;&gt;gnd_src</title>
<path fill="none" stroke="#444444" stroke-width="2" d="M126.17,-874.53C189.26,-876.61 291.4,-879.98 342.99,-881.69"/>
<polygon fill="#444444" stroke="#444444" stroke-width="2" points="343.09,-885.19 353.2,-882.02 343.32,-878.2 343.09,-885.19"/>
<text text-anchor="middle" x="147.57" y="-883.19" font-family="Arial" font-size="9.00" fill="#444444">&#45; (Minuspol)</text>
</g>
<!-- BAT1&#45;&gt;VCC_BATT -->
<g id="edge1" class="edge">
<title>BAT1&#45;&gt;VCC_BATT</title>
<path fill="none" stroke="#e65100" stroke-width="2.5" d="M126.17,-852.72C180.44,-832.66 263.62,-801.91 318.65,-781.57"/>
<polygon fill="#e65100" stroke="#e65100" stroke-width="2.5" points="320.08,-784.77 328.25,-778.02 317.66,-778.21 320.08,-784.77"/>
<text text-anchor="middle" x="150.09" y="-852.49" font-family="Arial" font-size="9.00" fill="#e65100">+ (Pluspol)</text>
</g>
<!-- C2&#45;&gt;gnd_pre -->
<g id="edge7" class="edge">
<title>C2&#45;&gt;gnd_pre</title>
<path fill="none" stroke="#444444" stroke-width="1.5" d="M1144.39,-913.3C1231.47,-871.19 1417.34,-781.3 1491.96,-745.21"/>
<polygon fill="#444444" stroke="#444444" stroke-width="1.5" points="1493.84,-748.19 1501.32,-740.68 1490.79,-741.89 1493.84,-748.19"/>
<text text-anchor="middle" x="1168.38" y="-910.77" font-family="Arial" font-size="9.00" fill="#444444">&#45;</text>
</g>
<!-- U1&#45;&gt;gnd_pre -->
<g id="edge12" class="edge">
<title>U1&#45;&gt;gnd_pre</title>
<path fill="none" stroke="#444444" stroke-width="2" d="M784.35,-634.83C882.2,-604.91 1054.44,-564.43 1199.99,-593.74 1319.36,-617.78 1449.56,-687.03 1501.11,-716.36"/>
<polygon fill="#444444" stroke="#444444" stroke-width="2" points="1499.66,-719.57 1510.07,-721.51 1503.14,-713.5 1499.66,-719.57"/>
<text text-anchor="middle" x="808.08" y="-636.25" font-family="Arial" font-size="9.00" fill="#444444">GND</text>
</g>
<!-- R1 -->
<g id="node9" class="node">
<title>R1</title>
<path fill="#fce4ec" stroke="#880e4f" d="M1134.49,-697.74C1134.49,-697.74 1059.49,-697.74 1059.49,-697.74 1053.49,-697.74 1047.49,-691.74 1047.49,-685.74 1047.49,-685.74 1047.49,-637.74 1047.49,-637.74 1047.49,-631.74 1053.49,-625.74 1059.49,-625.74 1059.49,-625.74 1134.49,-625.74 1134.49,-625.74 1140.49,-625.74 1146.49,-631.74 1146.49,-637.74 1146.49,-637.74 1146.49,-685.74 1146.49,-685.74 1146.49,-691.74 1140.49,-697.74 1134.49,-697.74"/>
<text text-anchor="middle" x="1096.99" y="-675.74" font-family="Arial" font-size="10.00">R1</text>
<text text-anchor="middle" x="1096.99" y="-664.74" font-family="Arial" font-size="10.00">47 kΩ</text>
<text text-anchor="middle" x="1096.99" y="-653.74" font-family="Arial" font-size="10.00">DELAY → GND</text>
<text text-anchor="middle" x="1096.99" y="-642.74" font-family="Arial" font-size="10.00">(Zeitkonstante)</text>
</g>
<!-- U1&#45;&gt;R1 -->
<g id="edge8" class="edge">
<title>U1&#45;&gt;R1</title>
<path fill="none" stroke="#880e4f" stroke-width="1.8" d="M784.44,-661.74C859.13,-661.74 969.84,-661.74 1037.21,-661.74"/>
<polygon fill="#880e4f" stroke="#880e4f" stroke-width="1.8" points="1037.23,-665.24 1047.23,-661.74 1037.23,-658.24 1037.23,-665.24"/>
<text text-anchor="middle" x="888.99" y="-664.54" font-family="Arial" font-size="9.00">TPL_DELAY</text>
<text text-anchor="middle" x="1025.48" y="-649.4" font-family="Arial" font-size="9.00" fill="#880e4f">Pin1</text>
<text text-anchor="middle" x="806.19" y="-669.69" font-family="Arial" font-size="9.00" fill="#880e4f">DELAY</text>
</g>
<!-- R2 -->
<g id="node10" class="node">
<title>R2</title>
<path fill="#fce4ec" stroke="#880e4f" d="M1132.99,-834.74C1132.99,-834.74 1060.99,-834.74 1060.99,-834.74 1054.99,-834.74 1048.99,-828.74 1048.99,-822.74 1048.99,-822.74 1048.99,-774.74 1048.99,-774.74 1048.99,-768.74 1054.99,-762.74 1060.99,-762.74 1060.99,-762.74 1132.99,-762.74 1132.99,-762.74 1138.99,-762.74 1144.99,-768.74 1144.99,-774.74 1144.99,-774.74 1144.99,-822.74 1144.99,-822.74 1144.99,-828.74 1138.99,-834.74 1132.99,-834.74"/>
<text text-anchor="middle" x="1096.99" y="-812.74" font-family="Arial" font-size="10.00">R2</text>
<text text-anchor="middle" x="1096.99" y="-801.74" font-family="Arial" font-size="10.00">10 kΩ</text>
<text text-anchor="middle" x="1096.99" y="-790.74" font-family="Arial" font-size="10.00">DONE → GND</text>
<text text-anchor="middle" x="1096.99" y="-779.74" font-family="Arial" font-size="10.00">(Pull&#45;down)</text>
</g>
<!-- U1&#45;&gt;R2 -->
<g id="edge10" class="edge">
<title>U1&#45;&gt;R2</title>
<path fill="none" stroke="#880e4f" stroke-width="1.8" d="M784.44,-689.3C859.92,-715.81 972.19,-755.25 1039.33,-778.84"/>
<polygon fill="#880e4f" stroke="#880e4f" stroke-width="1.8" points="1038.31,-782.19 1048.9,-782.2 1040.63,-775.58 1038.31,-782.19"/>
<text text-anchor="middle" x="888.99" y="-746.54" font-family="Arial" font-size="9.00">DONE</text>
<text text-anchor="middle" x="888.99" y="-736.54" font-family="Arial" font-size="9.00">Pull&#45;down</text>
<text text-anchor="middle" x="1031.74" y="-763.22" font-family="Arial" font-size="9.00" fill="#880e4f">Pin1</text>
<text text-anchor="middle" x="801.6" y="-703.88" font-family="Arial" font-size="9.00" fill="#880e4f">DONE</text>
</g>
<!-- Q1 -->
<g id="node11" class="node">
<title>Q1</title>
<path fill="#e3f2fd" stroke="#1565c0" stroke-width="2" d="M1187.99,-362.74C1187.99,-362.74 1005.99,-362.74 1005.99,-362.74 999.99,-362.74 993.99,-356.74 993.99,-350.74 993.99,-350.74 993.99,-288.74 993.99,-288.74 993.99,-282.74 999.99,-276.74 1005.99,-276.74 1005.99,-276.74 1187.99,-276.74 1187.99,-276.74 1193.99,-276.74 1199.99,-282.74 1199.99,-288.74 1199.99,-288.74 1199.99,-350.74 1199.99,-350.74 1199.99,-356.74 1193.99,-362.74 1187.99,-362.74"/>
<text text-anchor="middle" x="1096.99" y="-328.24" font-family="Arial" font-size="10.00">Q1 — AO3400</text>
<text text-anchor="middle" x="1096.99" y="-317.24" font-family="Arial" font-size="10.00">N&#45;Kanal MOSFET</text>
<text text-anchor="middle" x="1096.99" y="-306.24" font-family="Arial" font-size="10.00">Gate (Pin1) | Source (Pin2) | Drain (Pin3)</text>
</g>
<!-- U1&#45;&gt;Q1 -->
<g id="edge13" class="edge">
<title>U1&#45;&gt;Q1</title>
<path fill="none" stroke="#1565c0" stroke-width="2.5" d="M761.57,-611.16C817.73,-560.28 907.22,-479.81 985.99,-411.74 1002.02,-397.89 1019.54,-383.09 1035.79,-369.49"/>
<polygon fill="#1565c0" stroke="#1565c0" stroke-width="2.5" points="1038.23,-372.02 1043.66,-362.92 1033.74,-366.65 1038.23,-372.02"/>
<text text-anchor="middle" x="888.99" y="-516.54" font-family="Arial" font-size="9.00">TPL_DRV</text>
<text text-anchor="middle" x="1020.46" y="-366.88" font-family="Arial" font-size="9.00" fill="#1565c0">Gate (Pin1)</text>
<text text-anchor="middle" x="784.5" y="-601.89" font-family="Arial" font-size="9.00" fill="#1565c0">DRV (Pin4)</text>
</g>
<!-- R1&#45;&gt;gnd_pre -->
<g id="edge9" class="edge">
<title>R1&#45;&gt;gnd_pre</title>
<path fill="none" stroke="#444444" stroke-width="1.5" d="M1146.85,-669.54C1235.81,-683.74 1421.71,-713.42 1494.15,-724.99"/>
<polygon fill="#444444" stroke="#444444" stroke-width="1.5" points="1493.95,-728.5 1504.38,-726.62 1495.06,-721.59 1493.95,-728.5"/>
<text text-anchor="middle" x="1166.73" y="-680.79" font-family="Arial" font-size="9.00" fill="#444444">Pin2</text>
</g>
<!-- R2&#45;&gt;gnd_pre -->
<g id="edge11" class="edge">
<title>R2&#45;&gt;gnd_pre</title>
<path fill="none" stroke="#444444" stroke-width="1.5" d="M1145.2,-791.09C1230.44,-777.29 1408.36,-748.47 1486.17,-735.86"/>
<polygon fill="#444444" stroke="#444444" stroke-width="1.5" points="1487.15,-739.25 1496.46,-734.2 1486.03,-732.34 1487.15,-739.25"/>
<text text-anchor="middle" x="1168.3" y="-795.43" font-family="Arial" font-size="9.00" fill="#444444">Pin2</text>
</g>
<!-- Q1&#45;&gt;gnd_mosfet -->
<g id="edge18" class="edge">
<title>Q1&#45;&gt;gnd_mosfet</title>
<path fill="none" stroke="#444444" stroke-width="2" d="M1200.02,-318.78C1294.28,-317.9 1428.78,-316.64 1490.57,-316.06"/>
<polygon fill="#444444" stroke="#444444" stroke-width="2" points="1490.92,-319.55 1500.89,-315.96 1490.86,-312.55 1490.92,-319.55"/>
<text text-anchor="middle" x="1221.86" y="-326.52" font-family="Arial" font-size="9.00" fill="#444444">Source (Pin2)</text>
</g>
<!-- Q1&#45;&gt;GND_SW -->
<g id="edge14" class="edge">
<title>Q1&#45;&gt;GND_SW</title>
<path fill="none" stroke="#1565c0" stroke-width="2.5" d="M1200.02,-348.01C1278.37,-369.71 1384.52,-399.12 1453.6,-418.26"/>
<polygon fill="#1565c0" stroke="#1565c0" stroke-width="2.5" points="1452.95,-421.71 1463.52,-421 1454.82,-414.96 1452.95,-421.71"/>
<text text-anchor="middle" x="1218.27" y="-361.39" font-family="Arial" font-size="9.00" fill="#1565c0">Drain (Pin3)</text>
</g>
<!-- M1&#45;&gt;U1 -->
<g id="edge17" class="edge">
<title>M1&#45;&gt;U1</title>
<path fill="none" stroke="#2e7d32" stroke-width="2" stroke-dasharray="5,2" d="M1841.29,-383.61C1824.16,-373.14 1806.43,-362.18 1789.9,-351.74 1722.05,-308.9 1715.41,-276.95 1638.9,-252.74 1362.24,-165.2 1240.33,-113.04 985.99,-252.74 846.9,-329.14 762.9,-507.72 726.8,-601.61"/>
<polygon fill="#2e7d32" stroke="#2e7d32" stroke-width="2" points="723.52,-600.39 723.25,-610.98 730.07,-602.87 723.52,-600.39"/>
<text text-anchor="middle" x="1305.49" y="-172.54" font-family="Arial" font-size="9.00">MCU_DONE</text>
<text text-anchor="middle" x="740.44" y="-592.03" font-family="Arial" font-size="9.00" fill="#2e7d32">DONE (Pin5)</text>
<text text-anchor="middle" x="1828.03" y="-361.4" font-family="Arial" font-size="9.00" fill="#2e7d32">GPIO13</text>
</g>
</g>
</svg>
