<?xml version="1.0" encoding="UTF-8" standalone="no"?>
<!DOCTYPE svg PUBLIC "-//W3C//DTD SVG 1.1//EN"
 "http://www.w3.org/Graphics/SVG/1.1/DTD/svg11.dtd">
<!-- Generated by graphviz version 2.43.0 (0)
 -->
<!-- Title: WlanTimerCamera Pages: 1 -->
<svg width="2187pt" height="804pt"
 viewBox="0.00 0.00 2187.10 804.20" xmlns="http://www.w3.org/2000/svg" xmlns:xlink="http://www.w3.org/1999/xlink">
<g id="graph0" class="graph" transform="scale(1 1) rotate(0) translate(57.6 746.6)">
<title>WlanTimerCamera</title>
<polygon fill="white" stroke="transparent" points="-57.6,57.6 -57.6,-746.6 2129.5,-746.6 2129.5,57.6 -57.6,57.6"/>
<text text-anchor="middle" x="1035.95" y="-673.8" font-family="Arial" font-size="14.00">WLAN Timer Camera — Schaltplan</text>
<text text-anchor="middle" x="1035.95" y="-658.8" font-family="Arial" font-size="14.00">TPL5110 Power&#45;Timer · AO3400 N&#45;Kanal Low&#45;Side&#45;Switch · ESP32&#45;CAM</text>
<g id="clust1" class="cluster">
<title>cluster_source</title>
<polygon fill="#fff8e1" stroke="#e65100" stroke-width="2" points="8,-505 8,-643 419.35,-643 419.35,-505 8,-505"/>
<text text-anchor="middle" x="213.68" y="-630.2" font-family="Arial" font-size="11.00">Energiequelle</text>
</g>
<g id="clust2" class="cluster">
<title>cluster_timer</title>
<polygon fill="#fce4ec" stroke="#880e4f" stroke-width="2" points="617.99,-397 617.99,-527 1129.35,-527 1129.35,-397 617.99,-397"/>
<text text-anchor="middle" x="873.67" y="-514.2" font-family="Arial" font-size="11.00">Power&#45;Timer</text>
</g>
<g id="clust3" class="cluster">
<title>cluster_switch</title>
<polygon fill="#e3f2fd" stroke="#1565c0" stroke-width="2" points="974.99,-267 974.99,-389 1557.3,-389 1557.3,-267 974.99,-267"/>
<text text-anchor="middle" x="1266.15" y="-376.2" font-family="Arial" font-size="11.00">Schaltstufe (N&#45;Kanal, Low&#45;Side)</text>
</g>
<g id="clust4" class="cluster">
<title>cluster_mcu</title>
<polygon fill="#e8f5e9" stroke="#2e7d32" stroke-width="2" points="1778.9,-8 1778.9,-289 2063.9,-289 2063.9,-8 1778.9,-8"/>
<text text-anchor="middle" x="1921.4" y="-276.2" font-family="Arial" font-size="11.00">Recheneinheit &amp; Kamera</text>
</g>
<!-- gnd_src -->
<g id="node1" class="node">
<title>gnd_src</title>
<polygon fill="#444444" stroke="black" points="375.99,-552.57 411.21,-584.71 340.78,-584.71 375.99,-552.57"/>
<text text-anchor="middle" x="375.99" y="-572.1" font-family="Arial" font-size="8.00" fill="white">GND</text>
</g>
<!-- gnd_timer -->
<g id="node2" class="node">
<title>gnd_timer</title>
<polygon fill="#444444" stroke="black" points="1085.99,-430.57 1121.2,-462.71 1050.78,-462.71 1085.99,-430.57"/>
<text text-anchor="middle" x="1085.99" y="-450.1" font-family="Arial" font-size="8.00" fill="white">GND</text>
</g>
<!-- gnd_src&#45;&gt;gnd_timer -->
<g id="edge13" class="edge">
<title>gnd_src&#45;&gt;gnd_timer</title>
<path fill="none" stroke="#444444" stroke-width="1.2" stroke-dasharray="5,2" d="M398.78,-572.96C459.96,-569.77 638.31,-558.71 783.99,-532 877.25,-514.9 983.98,-483.69 1041.96,-465.73"/>
<polygon fill="#444444" stroke="#444444" stroke-width="1.2" points="1043.02,-469.06 1051.53,-462.75 1040.94,-462.38 1043.02,-469.06"/>
<text text-anchor="middle" x="704.99" y="-556.8" font-family="Arial" font-size="9.00">GND&#45;Netz</text>
</g>
<!-- gnd_mosfet -->
<g id="node3" class="node">
<title>gnd_mosfet</title>
<polygon fill="#444444" stroke="black" points="1513.95,-307.57 1549.16,-339.71 1478.73,-339.71 1513.95,-307.57"/>
<text text-anchor="middle" x="1513.95" y="-327.1" font-family="Arial" font-size="8.00" fill="white">GND</text>
</g>
<!-- gnd_timer&#45;&gt;gnd_mosfet -->
<g id="edge14" class="edge">
<title>gnd_timer&#45;&gt;gnd_mosfet</title>
<path fill="none" stroke="#444444" stroke-width="1.2" stroke-dasharray="5,2" d="M1104.22,-447.03C1166.1,-429.16 1378.35,-367.87 1470.11,-341.37"/>
<polygon fill="#444444" stroke="#444444" stroke-width="1.2" points="1471.27,-344.68 1479.91,-338.54 1469.33,-337.95 1471.27,-344.68"/>
</g>
<!-- VCC_BATT -->
<g id="node4" class="node">
<title>VCC_BATT</title>
<path fill="#fff3cd" stroke="#cc7700" stroke-width="2.8" d="M364.84,-483.59C364.84,-483.59 296.16,-456.41 296.16,-456.41 290.58,-454.21 290.58,-449.79 296.16,-447.59 296.16,-447.59 364.84,-420.41 364.84,-420.41 370.42,-418.21 381.57,-418.21 387.15,-420.41 387.15,-420.41 455.83,-447.59 455.83,-447.59 461.41,-449.79 461.41,-454.21 455.83,-456.41 455.83,-456.41 387.15,-483.59 387.15,-483.59 381.57,-485.79 370.42,-485.79 364.84,-483.59"/>
<text text-anchor="middle" x="375.99" y="-455" font-family="Arial" font-size="10.00">VCC_BATT</text>
<text text-anchor="middle" x="375.99" y="-444" font-family="Arial" font-size="10.00">(3.6 V, Dauerplus)</text>
</g>
<!-- U1 -->
<g id="node7" class="node">
<title>U1</title>
<path fill="#fce4ec" stroke="#880e4f" stroke-width="2" d="M771.99,-499C771.99,-499 637.99,-499 637.99,-499 631.99,-499 625.99,-493 625.99,-487 625.99,-487 625.99,-417 625.99,-417 625.99,-411 631.99,-405 637.99,-405 637.99,-405 771.99,-405 771.99,-405 777.99,-405 783.99,-411 783.99,-417 783.99,-417 783.99,-487 783.99,-487 783.99,-493 777.99,-499 771.99,-499"/>
<text text-anchor="middle" x="704.99" y="-460.5" font-family="Arial" font-size="10.00">U1 — TPL5110</text>
<text text-anchor="middle" x="704.99" y="-449.5" font-family="Arial" font-size="10.00">Power&#45;Timer IC</text>
<text text-anchor="middle" x="704.99" y="-438.5" font-family="Arial" font-size="10.00">VDD | GND | DRV | DONE</text>
</g>
<!-- VCC_BATT&#45;&gt;U1 -->
<g id="edge3" class="edge">
<title>VCC_BATT&#45;&gt;U1</title>
<path fill="none" stroke="#cc7700" stroke-width="2.5" d="M467.21,-452C513.44,-452 569.51,-452 615.48,-452"/>
<polygon fill="#cc7700" stroke="#cc7700" stroke-width="2.5" points="615.73,-455.5 625.73,-452 615.73,-448.5 615.73,-455.5"/>
<text text-anchor="middle" x="603.98" y="-439.66" font-family="Arial" font-size="9.00" fill="#cc7700">VDD</text>
</g>
<!-- M1 -->
<g id="node9" class="node">
<title>M1</title>
<path fill="#e8f5e9" stroke="#2e7d32" stroke-width="2" d="M2043.9,-261C2043.9,-261 1798.9,-261 1798.9,-261 1792.9,-261 1786.9,-255 1786.9,-249 1786.9,-249 1786.9,-165 1786.9,-165 1786.9,-159 1792.9,-153 1798.9,-153 1798.9,-153 2043.9,-153 2043.9,-153 2049.9,-153 2055.9,-159 2055.9,-165 2055.9,-165 2055.9,-249 2055.9,-249 2055.9,-255 2049.9,-261 2043.9,-261"/>
<text text-anchor="middle" x="1921.4" y="-215.5" font-family="Arial" font-size="10.00">M1 — ESP32&#45;CAM (AI&#45;Thinker)</text>
<text text-anchor="middle" x="1921.4" y="-204.5" font-family="Arial" font-size="10.00">OV2640 · Flash&#45;LED GPIO4</text>
<text text-anchor="middle" x="1921.4" y="-193.5" font-family="Arial" font-size="10.00">3.3V (Dauerpuls) | GND (geschaltet) | GPIO13 (DONE)</text>
</g>
<!-- VCC_BATT&#45;&gt;M1 -->
<g id="edge4" class="edge">
<title>VCC_BATT&#45;&gt;M1</title>
<path fill="none" stroke="#cc7700" stroke-width="2.5" d="M410.55,-429.67C498.65,-372.32 745.57,-219.78 974.99,-154 1254.48,-73.86 1339.76,-74.1 1627.9,-113 1677.6,-119.71 1730.25,-134.17 1776.98,-149.78"/>
<polygon fill="#cc7700" stroke="#cc7700" stroke-width="2.5" points="1775.95,-153.13 1786.55,-153.02 1778.2,-146.5 1775.95,-153.13"/>
<text text-anchor="middle" x="1769.2" y="-134.24" font-family="Arial" font-size="9.00" fill="#cc7700">3.3V (Dauerpuls)</text>
</g>
<!-- C1 -->
<g id="node10" class="node">
<title>C1</title>
<path fill="#e8f5e9" stroke="#2e7d32" d="M1968.9,-88C1968.9,-88 1873.9,-88 1873.9,-88 1867.9,-88 1861.9,-82 1861.9,-76 1861.9,-76 1861.9,-28 1861.9,-28 1861.9,-22 1867.9,-16 1873.9,-16 1873.9,-16 1968.9,-16 1968.9,-16 1974.9,-16 1980.9,-22 1980.9,-28 1980.9,-28 1980.9,-76 1980.9,-76 1980.9,-82 1974.9,-88 1968.9,-88"/>
<text text-anchor="middle" x="1921.4" y="-66" font-family="Arial" font-size="10.00">C1</text>
<text text-anchor="middle" x="1921.4" y="-55" font-family="Arial" font-size="10.00">470 µF / 6.3 V</text>
<text text-anchor="middle" x="1921.4" y="-44" font-family="Arial" font-size="10.00">Elko (Low&#45;ESR)</text>
<text text-anchor="middle" x="1921.4" y="-33" font-family="Arial" font-size="10.00">(parallel zur Kamera)</text>
</g>
<!-- VCC_BATT&#45;&gt;C1 -->
<g id="edge5" class="edge">
<title>VCC_BATT&#45;&gt;C1</title>
<path fill="none" stroke="#cc7700" stroke-width="1.8" d="M397.44,-424.26C435.53,-374.42 522.21,-269.31 617.99,-209 1024.77,47.12 1646.1,-12.36 1851.7,-41.14"/>
<polygon fill="#cc7700" stroke="#cc7700" stroke-width="1.8" points="1851.36,-44.63 1861.75,-42.57 1852.34,-37.7 1851.36,-44.63"/>
<text text-anchor="middle" x="1841.64" y="-27.26" font-family="Arial" font-size="9.00" fill="#cc7700">+ (Elko)</text>
</g>
<!-- GND_SW -->
<g id="node5" class="node">
<title>GND_SW</title>
<path fill="#e3f2fd" stroke="#1565c0" stroke-width="2.8" d="M1502.5,-239.38C1502.5,-239.38 1411.48,-210.62 1411.48,-210.62 1405.75,-208.81 1405.75,-205.19 1411.48,-203.38 1411.48,-203.38 1502.5,-174.62 1502.5,-174.62 1508.23,-172.81 1519.67,-172.81 1525.39,-174.62 1525.39,-174.62 1616.42,-203.38 1616.42,-203.38 1622.14,-205.19 1622.14,-208.81 1616.42,-210.62 1616.42,-210.62 1525.39,-239.38 1525.39,-239.38 1519.67,-241.19 1508.23,-241.19 1502.5,-239.38"/>
<text text-anchor="middle" x="1513.95" y="-210" font-family="Arial" font-size="10.00">GND_SWITCHED</text>
<text text-anchor="middle" x="1513.95" y="-199" font-family="Arial" font-size="10.00">(Q1 Drain — geschaltet)</text>
</g>
<!-- GND_SW&#45;&gt;M1 -->
<g id="edge9" class="edge">
<title>GND_SW&#45;&gt;M1</title>
<path fill="none" stroke="#1565c0" stroke-width="2.5" d="M1627.89,-207C1674.03,-207 1727.96,-207 1776.85,-207"/>
<polygon fill="#1565c0" stroke="#1565c0" stroke-width="2.5" points="1776.88,-210.5 1786.88,-207 1776.88,-203.5 1776.88,-210.5"/>
<text text-anchor="middle" x="1765.12" y="-194.66" font-family="Arial" font-size="9.00" fill="#1565c0">GND</text>
</g>
<!-- GND_SW&#45;&gt;C1 -->
<g id="edge8" class="edge">
<title>GND_SW&#45;&gt;C1</title>
<path fill="none" stroke="#1565c0" stroke-width="1.8" d="M1566.3,-187.37C1638.79,-159.66 1771.26,-109.01 1852.02,-78.14"/>
<polygon fill="#1565c0" stroke="#1565c0" stroke-width="1.8" points="1853.51,-81.32 1861.6,-74.48 1851.01,-74.78 1853.51,-81.32"/>
<text text-anchor="middle" x="1837.66" y="-70.57" font-family="Arial" font-size="9.00" fill="#1565c0">&#45; (Elko)</text>
</g>
<!-- BAT1 -->
<g id="node6" class="node">
<title>BAT1</title>
<path fill="#fff8e1" stroke="#e65100" stroke-width="2" d="M126,-605.32C126,-610.38 101.35,-614.5 71,-614.5 40.65,-614.5 16,-610.38 16,-605.32 16,-605.32 16,-522.68 16,-522.68 16,-517.62 40.65,-513.5 71,-513.5 101.35,-513.5 126,-517.62 126,-522.68 126,-522.68 126,-605.32 126,-605.32"/>
<path fill="none" stroke="#e65100" stroke-width="2" d="M126,-605.32C126,-600.25 101.35,-596.14 71,-596.14 40.65,-596.14 16,-600.25 16,-605.32"/>
<text text-anchor="middle" x="71" y="-572.5" font-family="Arial" font-size="10.00">BAT1</text>
<text text-anchor="middle" x="71" y="-561.5" font-family="Arial" font-size="10.00">ER26500 Li&#45;SOCl₂</text>
<text text-anchor="middle" x="71" y="-550.5" font-family="Arial" font-size="10.00">3.6 V / 8500 mAh</text>
</g>
<!-- BAT1&#45;&gt;gnd_src -->
<g id="edge2" class="edge">
<title>BAT1&#45;&gt;gnd_src</title>
<path fill="none" stroke="#444444" stroke-width="2" d="M126.17,-565.79C189.26,-567.87 291.4,-571.24 342.99,-572.94"/>
<polygon fill="#444444" stroke="#444444" stroke-width="2" points="343.09,-576.45 353.2,-573.28 343.32,-569.45 343.09,-576.45"/>
<text text-anchor="middle" x="147.57" y="-574.44" font-family="Arial" font-size="9.00" fill="#444444">&#45; (Minuspol)</text>
</g>
<!-- BAT1&#45;&gt;VCC_BATT -->
<g id="edge1" class="edge">
<title>BAT1&#45;&gt;VCC_BATT</title>
<path fill="none" stroke="#e65100" stroke-width="2.5" d="M126.17,-543.98C180.44,-523.91 263.62,-493.17 318.65,-472.83"/>
<polygon fill="#e65100" stroke="#e65100" stroke-width="2.5" points="320.08,-476.03 328.25,-469.28 317.66,-469.46 320.08,-476.03"/>
<text text-anchor="middle" x="150.09" y="-543.75" font-family="Arial" font-size="9.00" fill="#e65100">+ (Pluspol)</text>
</g>
<!-- U1&#45;&gt;gnd_timer -->
<g id="edge11" class="edge">
<title>U1&#45;&gt;gnd_timer</title>
<path fill="none" stroke="#444444" stroke-width="2" d="M784.06,-452C866.47,-452 992.5,-452 1051.87,-452"/>
<polygon fill="#444444" stroke="#444444" stroke-width="2" points="1052.16,-455.5 1062.16,-452 1052.16,-448.5 1052.16,-455.5"/>
<text text-anchor="middle" x="805.81" y="-459.94" font-family="Arial" font-size="9.00" fill="#444444">GND</text>
</g>
<!-- Q1 -->
<g id="node8" class="node">
<title>Q1</title>
<path fill="#e3f2fd" stroke="#1565c0" stroke-width="2" d="M1176.99,-361C1176.99,-361 994.99,-361 994.99,-361 988.99,-361 982.99,-355 982.99,-349 982.99,-349 982.99,-287 982.99,-287 982.99,-281 988.99,-275 994.99,-275 994.99,-275 1176.99,-275 1176.99,-275 1182.99,-275 1188.99,-281 1188.99,-287 1188.99,-287 1188.99,-349 1188.99,-349 1188.99,-355 1182.99,-361 1176.99,-361"/>
<text text-anchor="middle" x="1085.99" y="-326.5" font-family="Arial" font-size="10.00">Q1 — AO3400</text>
<text text-anchor="middle" x="1085.99" y="-315.5" font-family="Arial" font-size="10.00">N&#45;Kanal MOSFET</text>
<text text-anchor="middle" x="1085.99" y="-304.5" font-family="Arial" font-size="10.00">Gate (Pin1) | Source (Pin2) | Drain (Pin3)</text>
</g>
<!-- U1&#45;&gt;Q1 -->
<g id="edge6" class="edge">
<title>U1&#45;&gt;Q1</title>
<path fill="none" stroke="#1565c0" stroke-width="2.5" d="M784.06,-424.4C838.67,-405.09 912.43,-379.01 973.26,-357.5"/>
<polygon fill="#1565c0" stroke="#1565c0" stroke-width="2.5" points="974.64,-360.73 982.9,-354.09 972.31,-354.13 974.64,-360.73"/>
<text text-anchor="middle" x="883.49" y="-395.8" font-family="Arial" font-size="9.00">TPL_DRV</text>
<text text-anchor="middle" x="959.01" y="-349.58" font-family="Arial" font-size="9.00" fill="#1565c0">Gate (Pin1)</text>
<text text-anchor="middle" x="807.95" y="-424.51" font-family="Arial" font-size="9.00" fill="#1565c0">DRV (Pin5)</text>
</g>
<!-- Q1&#45;&gt;gnd_mosfet -->
<g id="edge12" class="edge">
<title>Q1&#45;&gt;gnd_mosfet</title>
<path fill="none" stroke="#444444" stroke-width="2" d="M1189.02,-320.63C1283.75,-323.08 1419.11,-326.58 1480.48,-328.16"/>
<polygon fill="#444444" stroke="#444444" stroke-width="2" points="1480.62,-331.67 1490.71,-328.43 1480.8,-324.67 1480.62,-331.67"/>
<text text-anchor="middle" x="1210.5" y="-329.14" font-family="Arial" font-size="9.00" fill="#444444">Source (Pin2)</text>
</g>
<!-- Q1&#45;&gt;GND_SW -->
<g id="edge7" class="edge">
<title>Q1&#45;&gt;GND_SW</title>
<path fill="none" stroke="#1565c0" stroke-width="2.5" d="M1189.02,-291.41C1266.78,-271.15 1371.93,-243.75 1441.05,-225.74"/>
<polygon fill="#1565c0" stroke="#1565c0" stroke-width="2.5" points="1442.18,-229.06 1450.98,-223.15 1440.42,-222.28 1442.18,-229.06"/>
<text text-anchor="middle" x="1212.62" y="-293.54" font-family="Arial" font-size="9.00" fill="#1565c0">Drain (Pin3)</text>
</g>
<!-- M1&#45;&gt;U1 -->
<g id="edge10" class="edge">
<title>M1&#45;&gt;U1</title>
<path fill="none" stroke="#2e7d32" stroke-width="2" stroke-dasharray="5,2" d="M1786.83,-169.18C1737.34,-156.97 1680.48,-145.03 1627.9,-139 1527.27,-127.46 1500.44,-125.99 1399.99,-139 1206.27,-164.1 1150.91,-166.09 974.99,-251 895.59,-289.33 816.12,-352.52 764.37,-397.82"/>
<polygon fill="#2e7d32" stroke="#2e7d32" stroke-width="2" points="761.81,-395.41 756.63,-404.65 766.44,-400.66 761.81,-395.41"/>
<text text-anchor="middle" x="1294.49" y="-158.8" font-family="Arial" font-size="9.00">MCU_DONE</text>
<text text-anchor="middle" x="779.65" y="-395.67" font-family="Arial" font-size="9.00" fill="#2e7d32">DONE (Pin4)</text>
<text text-anchor="middle" x="1768.08" y="-152" font-family="Arial" font-size="9.00" fill="#2e7d32">GPIO13</text>
</g>
</g>
</svg>
