<?xml version="1.0" encoding="UTF-8" standalone="no"?>
<!DOCTYPE svg PUBLIC "-//W3C//DTD SVG 1.1//EN"
 "http://www.w3.org/Graphics/SVG/1.1/DTD/svg11.dtd">
<!-- Generated by graphviz version 2.43.0 (0)
 -->
<!-- Title: WlanTimerCamera Pages: 1 -->
<svg width="1556pt" height="869pt"
 viewBox="0.00 0.00 1556.40 869.20" xmlns="http://www.w3.org/2000/svg" xmlns:xlink="http://www.w3.org/1999/xlink">
<g id="graph0" class="graph" transform="scale(1 1) rotate(0) translate(57.6 811.6)">
<title>WlanTimerCamera</title>
<polygon fill="white" stroke="transparent" points="-57.6,57.6 -57.6,-811.6 1498.8,-811.6 1498.8,57.6 -57.6,57.6"/>
<text text-anchor="middle" x="720.6" y="-738.8" font-family="Arial" font-size="14.00">WLAN Timer Camera — Schaltplan</text>
<text text-anchor="middle" x="720.6" y="-723.8" font-family="Arial" font-size="14.00">(ESP32&#45;CAM + TPL5110 + Si2301 + ER26500)</text>
<g id="clust1" class="cluster">
<title>cluster_source</title>
<polygon fill="#fff8e1" stroke="#e65100" stroke-width="2" points="8,-578 8,-708 415.56,-708 415.56,-578 8,-578"/>
<text text-anchor="middle" x="211.78" y="-695.2" font-family="Arial" font-size="11.00">Energiequelle</text>
</g>
<g id="clust2" class="cluster">
<title>cluster_timer</title>
<polygon fill="#fce4ec" stroke="#880e4f" stroke-width="2" points="629.95,-472 629.95,-594 1159.35,-594 1159.35,-472 629.95,-472"/>
<text text-anchor="middle" x="894.65" y="-581.2" font-family="Arial" font-size="11.00">Power&#45;Timer</text>
</g>
<g id="clust3" class="cluster">
<title>cluster_switch</title>
<polygon fill="#e3f2fd" stroke="#1565c0" stroke-width="2" points="1039.49,-189 1039.49,-428 1433.2,-428 1433.2,-189 1039.49,-189"/>
<text text-anchor="middle" x="1236.35" y="-415.2" font-family="Arial" font-size="11.00">Schaltstufe</text>
</g>
<g id="clust4" class="cluster">
<title>cluster_mcu</title>
<polygon fill="#e8f5e9" stroke="#2e7d32" stroke-width="2" points="1014.49,-8 1014.49,-160 1433.2,-160 1433.2,-8 1014.49,-8"/>
<text text-anchor="middle" x="1223.85" y="-147.2" font-family="Arial" font-size="11.00">Recheneinheit &amp; Kamera</text>
</g>
<!-- gnd_src -->
<g id="node1" class="node">
<title>gnd_src</title>
<polygon fill="#444444" stroke="black" points="372.2,-623.57 407.41,-655.71 336.99,-655.71 372.2,-623.57"/>
<text text-anchor="middle" x="372.2" y="-643.1" font-family="Arial" font-size="8.00" fill="white">GND</text>
</g>
<!-- gnd_timer -->
<g id="node2" class="node">
<title>gnd_timer</title>
<polygon fill="#444444" stroke="black" points="1115.99,-509.57 1151.2,-541.71 1080.78,-541.71 1115.99,-509.57"/>
<text text-anchor="middle" x="1115.99" y="-529.1" font-family="Arial" font-size="8.00" fill="white">GND</text>
</g>
<!-- gnd_switch -->
<g id="node3" class="node">
<title>gnd_switch</title>
<polygon fill="#444444" stroke="black" points="1389.85,-204.57 1425.06,-236.71 1354.64,-236.71 1389.85,-204.57"/>
<text text-anchor="middle" x="1389.85" y="-224.1" font-family="Arial" font-size="8.00" fill="white">GND</text>
</g>
<!-- gnd_mcu -->
<g id="node4" class="node">
<title>gnd_mcu</title>
<polygon fill="#444444" stroke="black" points="1389.85,-52.57 1425.06,-84.71 1354.64,-84.71 1389.85,-52.57"/>
<text text-anchor="middle" x="1389.85" y="-72.1" font-family="Arial" font-size="8.00" fill="white">GND</text>
</g>
<!-- VCC_BATT -->
<g id="node5" class="node">
<title>VCC_BATT</title>
<path fill="#fff3cd" stroke="#cc7700" stroke-width="2.8" d="M360.89,-554.99C360.89,-554.99 282.11,-527.01 282.11,-527.01 276.45,-525.01 276.45,-520.99 282.11,-518.99 282.11,-518.99 360.89,-491.01 360.89,-491.01 366.55,-489.01 377.85,-489.01 383.51,-491.01 383.51,-491.01 462.29,-518.99 462.29,-518.99 467.95,-520.99 467.95,-525.01 462.29,-527.01 462.29,-527.01 383.51,-554.99 383.51,-554.99 377.85,-556.99 366.55,-556.99 360.89,-554.99"/>
<text text-anchor="middle" x="372.2" y="-526" font-family="Arial" font-size="10.00">VCC_BATT</text>
<text text-anchor="middle" x="372.2" y="-515" font-family="Arial" font-size="10.00">(3.6 V, ungeschaltet)</text>
</g>
<!-- U1 -->
<g id="node8" class="node">
<title>U1</title>
<path fill="#fce4ec" stroke="#880e4f" stroke-width="2" d="M773.95,-566C773.95,-566 649.95,-566 649.95,-566 643.95,-566 637.95,-560 637.95,-554 637.95,-554 637.95,-492 637.95,-492 637.95,-486 643.95,-480 649.95,-480 649.95,-480 773.95,-480 773.95,-480 779.95,-480 785.95,-486 785.95,-492 785.95,-492 785.95,-554 785.95,-554 785.95,-560 779.95,-566 773.95,-566"/>
<text text-anchor="middle" x="711.95" y="-531.5" font-family="Arial" font-size="10.00">U1 — TPL5110</text>
<text text-anchor="middle" x="711.95" y="-520.5" font-family="Arial" font-size="10.00">Power&#45;Timer</text>
<text text-anchor="middle" x="711.95" y="-509.5" font-family="Arial" font-size="10.00">VDD | DRV | DONE | GND</text>
</g>
<!-- VCC_BATT&#45;&gt;U1 -->
<g id="edge2" class="edge">
<title>VCC_BATT&#45;&gt;U1</title>
<path fill="none" stroke="#e65100" stroke-width="2.5" d="M473.62,-523C522.71,-523 581.1,-523 627.67,-523"/>
<polygon fill="#e65100" stroke="#e65100" stroke-width="2.5" points="627.73,-526.5 637.73,-523 627.73,-519.5 627.73,-526.5"/>
<text text-anchor="middle" x="615.98" y="-510.66" font-family="Arial" font-size="9.00" fill="#e65100">VDD</text>
</g>
<!-- Q1 -->
<g id="node9" class="node">
<title>Q1</title>
<path fill="#e3f2fd" stroke="#1565c0" stroke-width="2" d="M1172.49,-399.5C1172.49,-399.5 1059.49,-399.5 1059.49,-399.5 1053.49,-399.5 1047.49,-393.5 1047.49,-387.5 1047.49,-387.5 1047.49,-332.5 1047.49,-332.5 1047.49,-326.5 1053.49,-320.5 1059.49,-320.5 1059.49,-320.5 1172.49,-320.5 1172.49,-320.5 1178.49,-320.5 1184.49,-326.5 1184.49,-332.5 1184.49,-332.5 1184.49,-387.5 1184.49,-387.5 1184.49,-393.5 1178.49,-399.5 1172.49,-399.5"/>
<text text-anchor="middle" x="1115.99" y="-368.5" font-family="Arial" font-size="10.00">Q1 — Si2301</text>
<text text-anchor="middle" x="1115.99" y="-357.5" font-family="Arial" font-size="10.00">P&#45;Kanal MOSFET</text>
<text text-anchor="middle" x="1115.99" y="-346.5" font-family="Arial" font-size="10.00">Source | Gate | Drain</text>
</g>
<!-- VCC_BATT&#45;&gt;Q1 -->
<g id="edge3" class="edge">
<title>VCC_BATT&#45;&gt;Q1</title>
<path fill="none" stroke="#e65100" stroke-width="2.5" d="M420.53,-504.02C508.71,-469.68 704.86,-398.12 877.49,-369 930.37,-360.08 990.77,-357.9 1037.43,-357.91"/>
<polygon fill="#e65100" stroke="#e65100" stroke-width="2.5" points="1037.45,-361.41 1047.47,-357.95 1037.48,-354.41 1037.45,-361.41"/>
<text text-anchor="middle" x="1025.75" y="-345.52" font-family="Arial" font-size="9.00" fill="#e65100">Source</text>
</g>
<!-- VCC_SWITCHED -->
<g id="node6" class="node">
<title>VCC_SWITCHED</title>
<path fill="#fff3cd" stroke="#cc7700" stroke-width="2.8" d="M700.75,-221.69C700.75,-221.69 629.55,-194.31 629.55,-194.31 623.95,-192.15 623.95,-187.85 629.55,-185.69 629.55,-185.69 700.75,-158.31 700.75,-158.31 706.35,-156.15 717.55,-156.15 723.15,-158.31 723.15,-158.31 794.34,-185.69 794.34,-185.69 799.94,-187.85 799.94,-192.15 794.34,-194.31 794.34,-194.31 723.15,-221.69 723.15,-221.69 717.55,-223.85 706.35,-223.85 700.75,-221.69"/>
<text text-anchor="middle" x="711.95" y="-193" font-family="Arial" font-size="10.00">VCC_SWITCHED</text>
<text text-anchor="middle" x="711.95" y="-182" font-family="Arial" font-size="10.00">(3.6 V, geschaltet)</text>
</g>
<!-- C1 -->
<g id="node10" class="node">
<title>C1</title>
<path fill="#e3f2fd" stroke="#1565c0" d="M1153.49,-255C1153.49,-255 1078.49,-255 1078.49,-255 1072.49,-255 1066.49,-249 1066.49,-243 1066.49,-243 1066.49,-209 1066.49,-209 1066.49,-203 1072.49,-197 1078.49,-197 1078.49,-197 1153.49,-197 1153.49,-197 1159.49,-197 1165.49,-203 1165.49,-209 1165.49,-209 1165.49,-243 1165.49,-243 1165.49,-249 1159.49,-255 1153.49,-255"/>
<text text-anchor="middle" x="1115.99" y="-234.5" font-family="Arial" font-size="10.00">C1</text>
<text text-anchor="middle" x="1115.99" y="-223.5" font-family="Arial" font-size="10.00">470 µF / 6.3 V</text>
<text text-anchor="middle" x="1115.99" y="-212.5" font-family="Arial" font-size="10.00">(Low&#45;ESR Elko)</text>
</g>
<!-- VCC_SWITCHED&#45;&gt;C1 -->
<g id="edge6" class="edge">
<title>VCC_SWITCHED&#45;&gt;C1</title>
<path fill="none" stroke="#cc7700" stroke-width="2" d="M788.1,-196.73C865.76,-203.68 985.36,-214.39 1056.33,-220.75"/>
<polygon fill="#cc7700" stroke="#cc7700" stroke-width="2" points="1056.16,-224.25 1066.43,-221.65 1056.79,-217.27 1056.16,-224.25"/>
<text text-anchor="middle" x="1045.67" y="-207.41" font-family="Arial" font-size="9.00" fill="#cc7700">+</text>
</g>
<!-- M1 -->
<g id="node11" class="node">
<title>M1</title>
<path fill="#e8f5e9" stroke="#2e7d32" stroke-width="2" d="M1197.49,-131.5C1197.49,-131.5 1034.49,-131.5 1034.49,-131.5 1028.49,-131.5 1022.49,-125.5 1022.49,-119.5 1022.49,-119.5 1022.49,-28.5 1022.49,-28.5 1022.49,-22.5 1028.49,-16.5 1034.49,-16.5 1034.49,-16.5 1197.49,-16.5 1197.49,-16.5 1203.49,-16.5 1209.49,-22.5 1209.49,-28.5 1209.49,-28.5 1209.49,-119.5 1209.49,-119.5 1209.49,-125.5 1203.49,-131.5 1197.49,-131.5"/>
<text text-anchor="middle" x="1115.99" y="-93.5" font-family="Arial" font-size="10.00">M1 — ESP32&#45;CAM (AI&#45;Thinker)</text>
<text text-anchor="middle" x="1115.99" y="-82.5" font-family="Arial" font-size="10.00">OV2640 Kamera</text>
<text text-anchor="middle" x="1115.99" y="-71.5" font-family="Arial" font-size="10.00">Flash&#45;LED: GPIO 4</text>
<text text-anchor="middle" x="1115.99" y="-60.5" font-family="Arial" font-size="10.00">Versorgung: 3.3 V | GND</text>
<text text-anchor="middle" x="1115.99" y="-49.5" font-family="Arial" font-size="10.00">DONE&#45;Signal: GPIO 13</text>
</g>
<!-- VCC_SWITCHED&#45;&gt;M1 -->
<g id="edge7" class="edge">
<title>VCC_SWITCHED&#45;&gt;M1</title>
<path fill="none" stroke="#cc7700" stroke-width="2.5" d="M765.92,-174.72C828.39,-156.69 933.66,-126.32 1012.3,-103.63"/>
<polygon fill="#cc7700" stroke="#cc7700" stroke-width="2.5" points="1013.6,-106.9 1022.24,-100.76 1011.66,-100.17 1013.6,-106.9"/>
<text text-anchor="middle" x="913.99" y="-144.8" font-family="Arial" font-size="9.00">VCC_SWITCHED</text>
<text text-anchor="middle" x="998.53" y="-94.85" font-family="Arial" font-size="9.00" fill="#cc7700">3.3V</text>
</g>
<!-- BAT1 -->
<g id="node7" class="node">
<title>BAT1</title>
<path fill="#fff8e1" stroke="#e65100" stroke-width="2" d="M126,-671.45C126,-676.17 101.35,-680 71,-680 40.65,-680 16,-676.17 16,-671.45 16,-671.45 16,-594.55 16,-594.55 16,-589.83 40.65,-586 71,-586 101.35,-586 126,-589.83 126,-594.55 126,-594.55 126,-671.45 126,-671.45"/>
<path fill="none" stroke="#e65100" stroke-width="2" d="M126,-671.45C126,-666.74 101.35,-662.91 71,-662.91 40.65,-662.91 16,-666.74 16,-671.45"/>
<text text-anchor="middle" x="71" y="-641.5" font-family="Arial" font-size="10.00">BAT1</text>
<text text-anchor="middle" x="71" y="-630.5" font-family="Arial" font-size="10.00">ER26500 Li&#45;SOCl₂</text>
<text text-anchor="middle" x="71" y="-619.5" font-family="Arial" font-size="10.00">3.6 V / 8500 mAh</text>
</g>
<!-- BAT1&#45;&gt;gnd_src -->
<g id="edge9" class="edge">
<title>BAT1&#45;&gt;gnd_src</title>
<path fill="none" stroke="#444444" stroke-width="1.5" d="M126.18,-635.17C188.44,-637.67 288.54,-641.68 339.37,-643.72"/>
<polygon fill="#444444" stroke="#444444" stroke-width="1.5" points="339.31,-647.22 349.44,-644.13 339.59,-640.23 339.31,-647.22"/>
<text text-anchor="middle" x="147.51" y="-643.98" font-family="Arial" font-size="9.00" fill="#444444">&#45;</text>
</g>
<!-- BAT1&#45;&gt;VCC_BATT -->
<g id="edge1" class="edge">
<title>BAT1&#45;&gt;VCC_BATT</title>
<path fill="none" stroke="#e65100" stroke-width="2.5" d="M126.18,-613.08C178.61,-593.81 257.86,-564.67 311.94,-544.79"/>
<polygon fill="#e65100" stroke="#e65100" stroke-width="2.5" points="313.22,-548.05 321.4,-541.31 310.8,-541.48 313.22,-548.05"/>
<text text-anchor="middle" x="150.1" y="-612.89" font-family="Arial" font-size="9.00" fill="#e65100">+</text>
</g>
<!-- U1&#45;&gt;gnd_timer -->
<g id="edge10" class="edge">
<title>U1&#45;&gt;gnd_timer</title>
<path fill="none" stroke="#444444" stroke-width="1.5" d="M786.22,-524.46C874.43,-526.21 1018.68,-529.08 1082.67,-530.36"/>
<polygon fill="#444444" stroke="#444444" stroke-width="1.5" points="1082.88,-533.86 1092.95,-530.56 1083.02,-526.86 1082.88,-533.86"/>
<text text-anchor="middle" x="807.77" y="-532.83" font-family="Arial" font-size="9.00" fill="#444444">GND</text>
</g>
<!-- U1&#45;&gt;Q1 -->
<g id="edge4" class="edge">
<title>U1&#45;&gt;Q1</title>
<path fill="none" stroke="#1565c0" stroke-width="2" d="M786.08,-502.77C833.66,-488.76 896.63,-468.62 950.49,-446 979.86,-433.67 1011.06,-418.04 1038.32,-403.5"/>
<polygon fill="#1565c0" stroke="#1565c0" stroke-width="2" points="1040.25,-406.44 1047.4,-398.62 1036.93,-400.27 1040.25,-406.44"/>
<text text-anchor="middle" x="913.99" y="-474.8" font-family="Arial" font-size="9.00">TPL_DRV</text>
<text text-anchor="middle" x="1023.44" y="-397.78" font-family="Arial" font-size="9.00" fill="#1565c0">Gate</text>
<text text-anchor="middle" x="809.83" y="-504.08" font-family="Arial" font-size="9.00" fill="#1565c0">DRV</text>
</g>
<!-- Q1&#45;&gt;VCC_SWITCHED -->
<g id="edge5" class="edge">
<title>Q1&#45;&gt;VCC_SWITCHED</title>
<path fill="none" stroke="#cc7700" stroke-width="2.5" d="M1047.35,-331.4C968.27,-297.96 839,-243.3 766.53,-212.66"/>
<polygon fill="#cc7700" stroke="#cc7700" stroke-width="2.5" points="767.7,-209.35 757.12,-208.68 764.97,-215.8 767.7,-209.35"/>
<text text-anchor="middle" x="1031.27" y="-311.39" font-family="Arial" font-size="9.00" fill="#cc7700">Drain</text>
</g>
<!-- C1&#45;&gt;gnd_switch -->
<g id="edge11" class="edge">
<title>C1&#45;&gt;gnd_switch</title>
<path fill="none" stroke="#444444" stroke-width="1.5" d="M1165.59,-226C1220.69,-226 1308.96,-226 1356.32,-226"/>
<polygon fill="#444444" stroke="#444444" stroke-width="1.5" points="1356.33,-229.5 1366.33,-226 1356.33,-222.5 1356.33,-229.5"/>
<text text-anchor="middle" x="1187.35" y="-233.94" font-family="Arial" font-size="9.00" fill="#444444">&#45;</text>
</g>
<!-- M1&#45;&gt;gnd_mcu -->
<g id="edge12" class="edge">
<title>M1&#45;&gt;gnd_mcu</title>
<path fill="none" stroke="#444444" stroke-width="1.5" d="M1209.79,-74C1260.39,-74 1319.89,-74 1355.96,-74"/>
<polygon fill="#444444" stroke="#444444" stroke-width="1.5" points="1356.37,-77.5 1366.37,-74 1356.37,-70.5 1356.37,-77.5"/>
<text text-anchor="middle" x="1231.54" y="-81.94" font-family="Arial" font-size="9.00" fill="#444444">GND</text>
</g>
<!-- M1&#45;&gt;U1 -->
<g id="edge8" class="edge">
<title>M1&#45;&gt;U1</title>
<path fill="none" stroke="#2e7d32" stroke-width="2" stroke-dasharray="5,2" d="M1054.93,-131.58C1041.42,-144.97 1027.29,-159.32 1014.49,-173 917.95,-276.21 811.44,-403.16 754.43,-472.27"/>
<polygon fill="#2e7d32" stroke="#2e7d32" stroke-width="2" points="751.72,-470.06 748.06,-480 757.12,-474.51 751.72,-470.06"/>
<text text-anchor="middle" x="913.99" y="-326.8" font-family="Arial" font-size="9.00">MCU_DONE</text>
<text text-anchor="middle" x="769.72" y="-467.46" font-family="Arial" font-size="9.00" fill="#2e7d32">DONE</text>
<text text-anchor="middle" x="1032.35" y="-137.52" font-family="Arial" font-size="9.00" fill="#2e7d32">GPIO 13</text>
</g>
</g>
</svg>
