<?xml version="1.0" encoding="UTF-8" standalone="no"?>
<!DOCTYPE svg PUBLIC "-//W3C//DTD SVG 1.1//EN"
 "http://www.w3.org/Graphics/SVG/1.1/DTD/svg11.dtd">
<!-- Generated by graphviz version 2.43.0 (0)
 -->
<!-- Title: WlanTimerCamera Pages: 1 -->
<svg width="2187pt" height="875pt"
 viewBox="0.00 0.00 2187.10 875.48" xmlns="http://www.w3.org/2000/svg" xmlns:xlink="http://www.w3.org/1999/xlink">
<g id="graph0" class="graph" transform="scale(1 1) rotate(0) translate(57.6 817.88)">
<title>WlanTimerCamera</title>
<polygon fill="white" stroke="transparent" points="-57.6,57.6 -57.6,-817.88 2129.5,-817.88 2129.5,57.6 -57.6,57.6"/>
<text text-anchor="middle" x="1035.95" y="-745.08" font-family="Arial" font-size="14.00">WLAN Timer Camera — Schaltplan</text>
<text text-anchor="middle" x="1035.95" y="-730.08" font-family="Arial" font-size="14.00">TPL5110 Power&#45;Timer · AO3400 N&#45;Kanal Low&#45;Side&#45;Switch · ESP32&#45;CAM</text>
<g id="clust1" class="cluster">
<title>cluster_source</title>
<polygon fill="#fff8e1" stroke="#e65100" stroke-width="2" points="8,-576.28 8,-714.28 419.35,-714.28 419.35,-576.28 8,-576.28"/>
<text text-anchor="middle" x="213.68" y="-701.48" font-family="Arial" font-size="11.00">Energiequelle</text>
</g>
<g id="clust2" class="cluster">
<title>cluster_timer</title>
<polygon fill="#fce4ec" stroke="#880e4f" stroke-width="2" points="617.99,-468.28 617.99,-598.28 1129.35,-598.28 1129.35,-468.28 617.99,-468.28"/>
<text text-anchor="middle" x="873.67" y="-585.48" font-family="Arial" font-size="11.00">Power&#45;Timer</text>
</g>
<g id="clust3" class="cluster">
<title>cluster_switch</title>
<polygon fill="#e3f2fd" stroke="#1565c0" stroke-width="2" points="974.99,-201.28 974.99,-460.28 1557.3,-460.28 1557.3,-201.28 974.99,-201.28"/>
<text text-anchor="middle" x="1266.15" y="-447.48" font-family="Arial" font-size="11.00">Schaltstufe (N&#45;Kanal, Low&#45;Side)</text>
</g>
<g id="clust4" class="cluster">
<title>cluster_mcu</title>
<polygon fill="#e8f5e9" stroke="#2e7d32" stroke-width="2" points="1778.9,-95.28 1778.9,-239.28 2063.9,-239.28 2063.9,-95.28 1778.9,-95.28"/>
<text text-anchor="middle" x="1921.4" y="-226.48" font-family="Arial" font-size="11.00">Recheneinheit &amp; Kamera</text>
</g>
<!-- gnd_src -->
<g id="node1" class="node">
<title>gnd_src</title>
<polygon fill="#444444" stroke="black" points="375.99,-623.85 411.21,-655.99 340.78,-655.99 375.99,-623.85"/>
<text text-anchor="middle" x="375.99" y="-643.38" font-family="Arial" font-size="8.00" fill="white">GND</text>
</g>
<!-- gnd_timer -->
<g id="node2" class="node">
<title>gnd_timer</title>
<polygon fill="#444444" stroke="black" points="1085.99,-501.85 1121.2,-533.99 1050.78,-533.99 1085.99,-501.85"/>
<text text-anchor="middle" x="1085.99" y="-521.38" font-family="Arial" font-size="8.00" fill="white">GND</text>
</g>
<!-- gnd_src&#45;&gt;gnd_timer -->
<g id="edge13" class="edge">
<title>gnd_src&#45;&gt;gnd_timer</title>
<path fill="none" stroke="#444444" stroke-width="1.2" stroke-dasharray="5,2" d="M398.78,-644.23C459.96,-641.05 638.31,-629.98 783.99,-603.28 877.25,-586.18 983.98,-554.97 1041.96,-537"/>
<polygon fill="#444444" stroke="#444444" stroke-width="1.2" points="1043.02,-540.34 1051.53,-534.02 1040.94,-533.65 1043.02,-540.34"/>
<text text-anchor="middle" x="704.99" y="-628.08" font-family="Arial" font-size="9.00">GND&#45;Netz</text>
</g>
<!-- gnd_mosfet -->
<g id="node3" class="node">
<title>gnd_mosfet</title>
<polygon fill="#444444" stroke="black" points="1513.95,-367.85 1549.16,-399.99 1478.73,-399.99 1513.95,-367.85"/>
<text text-anchor="middle" x="1513.95" y="-387.38" font-family="Arial" font-size="8.00" fill="white">GND</text>
</g>
<!-- gnd_timer&#45;&gt;gnd_mosfet -->
<g id="edge14" class="edge">
<title>gnd_timer&#45;&gt;gnd_mosfet</title>
<path fill="none" stroke="#444444" stroke-width="1.2" stroke-dasharray="5,2" d="M1103.95,-517.94C1165.24,-498.66 1376.45,-432.21 1468.96,-403.11"/>
<polygon fill="#444444" stroke="#444444" stroke-width="1.2" points="1470.1,-406.42 1478.59,-400.08 1468,-399.75 1470.1,-406.42"/>
</g>
<!-- VCC_BATT -->
<g id="node4" class="node">
<title>VCC_BATT</title>
<path fill="#fff3cd" stroke="#cc7700" stroke-width="2.8" d="M364.84,-554.86C364.84,-554.86 296.16,-527.69 296.16,-527.69 290.58,-525.48 290.58,-521.07 296.16,-518.86 296.16,-518.86 364.84,-491.69 364.84,-491.69 370.42,-489.48 381.57,-489.48 387.15,-491.69 387.15,-491.69 455.83,-518.86 455.83,-518.86 461.41,-521.07 461.41,-525.48 455.83,-527.69 455.83,-527.69 387.15,-554.86 387.15,-554.86 381.57,-557.07 370.42,-557.07 364.84,-554.86"/>
<text text-anchor="middle" x="375.99" y="-526.28" font-family="Arial" font-size="10.00">VCC_BATT</text>
<text text-anchor="middle" x="375.99" y="-515.28" font-family="Arial" font-size="10.00">(3.6 V, Dauerplus)</text>
</g>
<!-- U1 -->
<g id="node7" class="node">
<title>U1</title>
<path fill="#fce4ec" stroke="#880e4f" stroke-width="2" d="M771.99,-570.28C771.99,-570.28 637.99,-570.28 637.99,-570.28 631.99,-570.28 625.99,-564.28 625.99,-558.28 625.99,-558.28 625.99,-488.28 625.99,-488.28 625.99,-482.28 631.99,-476.28 637.99,-476.28 637.99,-476.28 771.99,-476.28 771.99,-476.28 777.99,-476.28 783.99,-482.28 783.99,-488.28 783.99,-488.28 783.99,-558.28 783.99,-558.28 783.99,-564.28 777.99,-570.28 771.99,-570.28"/>
<text text-anchor="middle" x="704.99" y="-531.78" font-family="Arial" font-size="10.00">U1 — TPL5110</text>
<text text-anchor="middle" x="704.99" y="-520.78" font-family="Arial" font-size="10.00">Power&#45;Timer IC</text>
<text text-anchor="middle" x="704.99" y="-509.78" font-family="Arial" font-size="10.00">VDD | GND | DRV | DONE</text>
</g>
<!-- VCC_BATT&#45;&gt;U1 -->
<g id="edge3" class="edge">
<title>VCC_BATT&#45;&gt;U1</title>
<path fill="none" stroke="#cc7700" stroke-width="2.5" d="M467.21,-523.28C513.44,-523.28 569.51,-523.28 615.48,-523.28"/>
<polygon fill="#cc7700" stroke="#cc7700" stroke-width="2.5" points="615.73,-526.78 625.73,-523.28 615.73,-519.78 615.73,-526.78"/>
<text text-anchor="middle" x="603.98" y="-510.93" font-family="Arial" font-size="9.00" fill="#cc7700">VDD</text>
</g>
<!-- C1 -->
<g id="node9" class="node">
<title>C1</title>
<path fill="#e3f2fd" stroke="#1565c0" d="M1133.49,-281.28C1133.49,-281.28 1038.49,-281.28 1038.49,-281.28 1032.49,-281.28 1026.49,-275.28 1026.49,-269.28 1026.49,-269.28 1026.49,-221.28 1026.49,-221.28 1026.49,-215.28 1032.49,-209.28 1038.49,-209.28 1038.49,-209.28 1133.49,-209.28 1133.49,-209.28 1139.49,-209.28 1145.49,-215.28 1145.49,-221.28 1145.49,-221.28 1145.49,-269.28 1145.49,-269.28 1145.49,-275.28 1139.49,-281.28 1133.49,-281.28"/>
<text text-anchor="middle" x="1085.99" y="-259.28" font-family="Arial" font-size="10.00">C1</text>
<text text-anchor="middle" x="1085.99" y="-248.28" font-family="Arial" font-size="10.00">470 µF / 6.3 V</text>
<text text-anchor="middle" x="1085.99" y="-237.28" font-family="Arial" font-size="10.00">Elko (Low&#45;ESR)</text>
<text text-anchor="middle" x="1085.99" y="-226.28" font-family="Arial" font-size="10.00">(parallel zur Kamera)</text>
</g>
<!-- VCC_BATT&#45;&gt;C1 -->
<g id="edge5" class="edge">
<title>VCC_BATT&#45;&gt;C1</title>
<path fill="none" stroke="#cc7700" stroke-width="1.8" d="M422.36,-505.46C543.19,-458.02 873.35,-328.38 1016.87,-272.02"/>
<polygon fill="#cc7700" stroke="#cc7700" stroke-width="1.8" points="1018.43,-275.17 1026.46,-268.26 1015.87,-268.65 1018.43,-275.17"/>
<text text-anchor="middle" x="1002.51" y="-264.57" font-family="Arial" font-size="9.00" fill="#cc7700">+ (Elko)</text>
</g>
<!-- M1 -->
<g id="node10" class="node">
<title>M1</title>
<path fill="#e8f5e9" stroke="#2e7d32" stroke-width="2" d="M2043.9,-211.28C2043.9,-211.28 1798.9,-211.28 1798.9,-211.28 1792.9,-211.28 1786.9,-205.28 1786.9,-199.28 1786.9,-199.28 1786.9,-115.28 1786.9,-115.28 1786.9,-109.28 1792.9,-103.28 1798.9,-103.28 1798.9,-103.28 2043.9,-103.28 2043.9,-103.28 2049.9,-103.28 2055.9,-109.28 2055.9,-115.28 2055.9,-115.28 2055.9,-199.28 2055.9,-199.28 2055.9,-205.28 2049.9,-211.28 2043.9,-211.28"/>
<text text-anchor="middle" x="1921.4" y="-165.78" font-family="Arial" font-size="10.00">M1 — ESP32&#45;CAM (AI&#45;Thinker)</text>
<text text-anchor="middle" x="1921.4" y="-154.78" font-family="Arial" font-size="10.00">OV2640 · Flash&#45;LED GPIO4</text>
<text text-anchor="middle" x="1921.4" y="-143.78" font-family="Arial" font-size="10.00">3.3V (Dauerpuls) | GND (geschaltet) | GPIO13 (DONE)</text>
</g>
<!-- VCC_BATT&#45;&gt;M1 -->
<g id="edge4" class="edge">
<title>VCC_BATT&#45;&gt;M1</title>
<path fill="none" stroke="#cc7700" stroke-width="2.5" d="M400.43,-496.71C474.71,-414.67 715.32,-164.96 974.99,-67.28 1246.69,34.94 1342.3,2.73 1627.9,-49.28 1683.8,-59.45 1743.04,-79.44 1793.48,-99.49"/>
<polygon fill="#cc7700" stroke="#cc7700" stroke-width="2.5" points="1792.2,-102.75 1802.79,-103.23 1794.81,-96.25 1792.2,-102.75"/>
<text text-anchor="middle" x="1786.38" y="-83.51" font-family="Arial" font-size="9.00" fill="#cc7700">3.3V (Dauerpuls)</text>
</g>
<!-- GND_SW -->
<g id="node5" class="node">
<title>GND_SW</title>
<path fill="#e3f2fd" stroke="#1565c0" stroke-width="2.8" d="M1502.5,-189.66C1502.5,-189.66 1411.48,-160.89 1411.48,-160.89 1405.75,-159.08 1405.75,-155.47 1411.48,-153.66 1411.48,-153.66 1502.5,-124.89 1502.5,-124.89 1508.23,-123.08 1519.67,-123.08 1525.39,-124.89 1525.39,-124.89 1616.42,-153.66 1616.42,-153.66 1622.14,-155.47 1622.14,-159.08 1616.42,-160.89 1616.42,-160.89 1525.39,-189.66 1525.39,-189.66 1519.67,-191.47 1508.23,-191.47 1502.5,-189.66"/>
<text text-anchor="middle" x="1513.95" y="-160.28" font-family="Arial" font-size="10.00">GND_SWITCHED</text>
<text text-anchor="middle" x="1513.95" y="-149.28" font-family="Arial" font-size="10.00">(Q1 Drain — geschaltet)</text>
</g>
<!-- GND_SW&#45;&gt;C1 -->
<g id="edge8" class="edge">
<title>GND_SW&#45;&gt;C1</title>
<path fill="none" stroke="#1565c0" stroke-width="1.8" d="M1444.57,-171.4C1365.23,-187.79 1235.16,-214.66 1155.68,-231.08"/>
<polygon fill="#1565c0" stroke="#1565c0" stroke-width="1.8" points="1154.86,-227.68 1145.77,-233.13 1156.27,-234.54 1154.86,-227.68"/>
<text text-anchor="middle" x="1169.12" y="-236.46" font-family="Arial" font-size="9.00" fill="#1565c0">&#45; (Elko)</text>
</g>
<!-- GND_SW&#45;&gt;M1 -->
<g id="edge9" class="edge">
<title>GND_SW&#45;&gt;M1</title>
<path fill="none" stroke="#1565c0" stroke-width="2.5" d="M1627.89,-157.28C1674.03,-157.28 1727.96,-157.28 1776.85,-157.28"/>
<polygon fill="#1565c0" stroke="#1565c0" stroke-width="2.5" points="1776.88,-160.78 1786.88,-157.28 1776.88,-153.78 1776.88,-160.78"/>
<text text-anchor="middle" x="1765.12" y="-144.93" font-family="Arial" font-size="9.00" fill="#1565c0">GND</text>
</g>
<!-- BAT1 -->
<g id="node6" class="node">
<title>BAT1</title>
<path fill="#fff8e1" stroke="#e65100" stroke-width="2" d="M126,-676.59C126,-681.66 101.35,-685.78 71,-685.78 40.65,-685.78 16,-681.66 16,-676.59 16,-676.59 16,-593.96 16,-593.96 16,-588.89 40.65,-584.78 71,-584.78 101.35,-584.78 126,-588.89 126,-593.96 126,-593.96 126,-676.59 126,-676.59"/>
<path fill="none" stroke="#e65100" stroke-width="2" d="M126,-676.59C126,-671.53 101.35,-667.41 71,-667.41 40.65,-667.41 16,-671.53 16,-676.59"/>
<text text-anchor="middle" x="71" y="-643.78" font-family="Arial" font-size="10.00">BAT1</text>
<text text-anchor="middle" x="71" y="-632.78" font-family="Arial" font-size="10.00">ER26500 Li&#45;SOCl₂</text>
<text text-anchor="middle" x="71" y="-621.78" font-family="Arial" font-size="10.00">3.6 V / 8500 mAh</text>
</g>
<!-- BAT1&#45;&gt;gnd_src -->
<g id="edge2" class="edge">
<title>BAT1&#45;&gt;gnd_src</title>
<path fill="none" stroke="#444444" stroke-width="2" d="M126.17,-637.06C189.26,-639.15 291.4,-642.52 342.99,-644.22"/>
<polygon fill="#444444" stroke="#444444" stroke-width="2" points="343.09,-647.72 353.2,-644.56 343.32,-640.73 343.09,-647.72"/>
<text text-anchor="middle" x="147.57" y="-645.72" font-family="Arial" font-size="9.00" fill="#444444">&#45; (Minuspol)</text>
</g>
<!-- BAT1&#45;&gt;VCC_BATT -->
<g id="edge1" class="edge">
<title>BAT1&#45;&gt;VCC_BATT</title>
<path fill="none" stroke="#e65100" stroke-width="2.5" d="M126.17,-615.25C180.44,-595.19 263.62,-564.44 318.65,-544.1"/>
<polygon fill="#e65100" stroke="#e65100" stroke-width="2.5" points="320.08,-547.3 328.25,-540.55 317.66,-540.74 320.08,-547.3"/>
<text text-anchor="middle" x="150.09" y="-615.02" font-family="Arial" font-size="9.00" fill="#e65100">+ (Pluspol)</text>
</g>
<!-- U1&#45;&gt;gnd_timer -->
<g id="edge11" class="edge">
<title>U1&#45;&gt;gnd_timer</title>
<path fill="none" stroke="#444444" stroke-width="2" d="M784.06,-523.28C866.47,-523.28 992.5,-523.28 1051.87,-523.28"/>
<polygon fill="#444444" stroke="#444444" stroke-width="2" points="1052.16,-526.78 1062.16,-523.28 1052.16,-519.78 1052.16,-526.78"/>
<text text-anchor="middle" x="805.81" y="-531.22" font-family="Arial" font-size="9.00" fill="#444444">GND</text>
</g>
<!-- Q1 -->
<g id="node8" class="node">
<title>Q1</title>
<path fill="#e3f2fd" stroke="#1565c0" stroke-width="2" d="M1176.99,-432.28C1176.99,-432.28 994.99,-432.28 994.99,-432.28 988.99,-432.28 982.99,-426.28 982.99,-420.28 982.99,-420.28 982.99,-358.28 982.99,-358.28 982.99,-352.28 988.99,-346.28 994.99,-346.28 994.99,-346.28 1176.99,-346.28 1176.99,-346.28 1182.99,-346.28 1188.99,-352.28 1188.99,-358.28 1188.99,-358.28 1188.99,-420.28 1188.99,-420.28 1188.99,-426.28 1182.99,-432.28 1176.99,-432.28"/>
<text text-anchor="middle" x="1085.99" y="-397.78" font-family="Arial" font-size="10.00">Q1 — AO3400</text>
<text text-anchor="middle" x="1085.99" y="-386.78" font-family="Arial" font-size="10.00">N&#45;Kanal MOSFET</text>
<text text-anchor="middle" x="1085.99" y="-375.78" font-family="Arial" font-size="10.00">Gate (Pin1) | Source (Pin2) | Drain (Pin3)</text>
</g>
<!-- U1&#45;&gt;Q1 -->
<g id="edge6" class="edge">
<title>U1&#45;&gt;Q1</title>
<path fill="none" stroke="#1565c0" stroke-width="2.5" d="M784.06,-495.67C838.67,-476.36 912.43,-450.29 973.26,-428.78"/>
<polygon fill="#1565c0" stroke="#1565c0" stroke-width="2.5" points="974.64,-432 982.9,-425.37 972.31,-425.4 974.64,-432"/>
<text text-anchor="middle" x="883.49" y="-467.08" font-family="Arial" font-size="9.00">TPL_DRV</text>
<text text-anchor="middle" x="959.01" y="-420.86" font-family="Arial" font-size="9.00" fill="#1565c0">Gate (Pin1)</text>
<text text-anchor="middle" x="807.95" y="-495.78" font-family="Arial" font-size="9.00" fill="#1565c0">DRV (Pin5)</text>
</g>
<!-- Q1&#45;&gt;gnd_mosfet -->
<g id="edge12" class="edge">
<title>Q1&#45;&gt;gnd_mosfet</title>
<path fill="none" stroke="#444444" stroke-width="2" d="M1189.02,-389.28C1283.52,-389.28 1418.45,-389.28 1480.03,-389.28"/>
<polygon fill="#444444" stroke="#444444" stroke-width="2" points="1480.3,-392.78 1490.3,-389.28 1480.3,-385.78 1480.3,-392.78"/>
<text text-anchor="middle" x="1210.77" y="-397.22" font-family="Arial" font-size="9.00" fill="#444444">Source (Pin2)</text>
</g>
<!-- Q1&#45;&gt;GND_SW -->
<g id="edge7" class="edge">
<title>Q1&#45;&gt;GND_SW</title>
<path fill="none" stroke="#1565c0" stroke-width="2.5" d="M1148.35,-346.27C1209.93,-304.43 1308.51,-240.93 1399.99,-197.28 1414.61,-190.3 1430.78,-183.87 1446.21,-178.29"/>
<polygon fill="#1565c0" stroke="#1565c0" stroke-width="2.5" points="1447.44,-181.57 1455.7,-174.94 1445.1,-174.97 1447.44,-181.57"/>
<text text-anchor="middle" x="1172.05" y="-340.33" font-family="Arial" font-size="9.00" fill="#1565c0">Drain (Pin3)</text>
</g>
<!-- M1&#45;&gt;U1 -->
<g id="edge10" class="edge">
<title>M1&#45;&gt;U1</title>
<path fill="none" stroke="#2e7d32" stroke-width="2" stroke-dasharray="5,2" d="M1786.83,-119.46C1737.34,-107.24 1680.48,-95.31 1627.9,-89.28 1336.51,-55.85 1223.43,-29.38 974.99,-185.28 862.36,-255.94 776.72,-390.84 734.7,-467.11"/>
<polygon fill="#2e7d32" stroke="#2e7d32" stroke-width="2" points="731.5,-465.66 729.79,-476.11 737.65,-469.01 731.5,-465.66"/>
<text text-anchor="middle" x="1294.49" y="-70.08" font-family="Arial" font-size="9.00">MCU_DONE</text>
<text text-anchor="middle" x="749.11" y="-459.67" font-family="Arial" font-size="9.00" fill="#2e7d32">DONE (Pin4)</text>
<text text-anchor="middle" x="1768.08" y="-102.28" font-family="Arial" font-size="9.00" fill="#2e7d32">GPIO13</text>
</g>
</g>
</svg>
